<svg
      xmlns="http://www.w3.org/2000/svg"
      width="36"
      height="39"
      viewBox="0 0 36 39"
      fill="none">
      <path
        d="M1.95801 38.3048C1.56842 38.3048 1.24186 38.1729 0.97832 37.9093C0.714779 37.6456 0.583008 37.3189 0.583008 36.9292C0.583008 36.5394 0.714779 36.2129 0.97832 35.9497C1.24186 35.6864 1.56842 35.5548 1.95801 35.5548H34.0413C34.4308 35.5548 34.7574 35.6866 35.0209 35.9503C35.2845 36.214 35.4163 36.5407 35.4163 36.9304C35.4163 37.3201 35.2845 37.6466 35.0209 37.9099C34.7574 38.1731 34.4308 38.3048 34.0413 38.3048H1.95801ZM5.90673 33.51C5.43725 33.51 5.04371 33.3511 4.72611 33.0335C4.40849 32.7159 4.24968 32.3224 4.24968 31.8529V23.7087C3.21784 21.8354 2.42986 19.951 1.88573 18.0553C1.34163 16.1597 1.06957 14.2964 1.06957 12.4654C1.06957 10.8131 1.27993 9.14726 1.70065 7.46786C2.12137 5.7885 2.68195 4.00159 3.38237 2.10715C3.55629 1.63002 3.84187 1.24457 4.23909 0.950775C4.63631 0.656953 5.08876 0.51004 5.59644 0.51004C6.27334 0.51004 6.848 0.751553 7.32042 1.23458C7.79284 1.71757 7.98557 2.28458 7.8986 2.93563L7.41208 6.91255C7.22875 8.44974 7.39092 9.93403 7.8986 11.3654C8.40632 12.7969 9.15317 14.0649 10.1392 15.1697C11.1252 16.2744 12.2975 17.1628 13.656 17.835C15.0146 18.5073 16.4624 18.8434 17.9996 18.8434C19.8682 18.8434 21.6534 19.005 23.3551 19.3282C25.0568 19.6513 26.5246 20.1173 27.7586 20.7261C29.0278 21.3583 30.0102 22.1669 30.706 23.1517C31.4017 24.1365 31.7496 25.3587 31.7496 26.8183V31.8529C31.7496 32.3224 31.5908 32.7159 31.2732 33.0335C30.9556 33.3511 30.562 33.51 30.0925 33.51H5.90673ZM6.99963 30.76H28.9996V26.8183C28.9996 26.0262 28.7987 25.3299 28.3967 24.7294C27.9948 24.1288 27.4107 23.6429 26.6445 23.2715C25.521 22.7309 24.1871 22.3161 22.6429 22.027C21.0987 21.7379 19.5509 21.5933 17.9996 21.5933C16.0535 21.5933 14.2231 21.1691 12.5085 20.3206C10.7938 19.4721 9.32127 18.3468 8.09083 16.9448C6.86039 15.5427 5.9308 13.9386 5.30205 12.1323C4.67331 10.326 4.47528 8.46853 4.70796 6.56C4.40241 7.47666 4.18088 8.44269 4.04338 9.45809C3.90588 10.4734 3.83713 11.4759 3.83713 12.4654C3.83713 14.1319 4.12976 15.8236 4.71502 17.5406C5.30025 19.2576 6.06179 21.0598 6.99963 22.9472V30.76ZM17.9996 16.587C16.2351 16.587 14.7245 15.9587 13.4679 14.7021C12.2113 13.4455 11.583 11.9349 11.583 10.1703C11.583 8.40578 12.2113 6.89522 13.4679 5.63865C14.7245 4.38206 16.2351 3.75376 17.9996 3.75376C19.7642 3.75376 21.2748 4.38206 22.5314 5.63865C23.788 6.89522 24.4163 8.40578 24.4163 10.1703C24.4163 11.9349 23.788 13.4455 22.5314 14.7021C21.2748 15.9587 19.7642 16.587 17.9996 16.587ZM17.9996 13.837C19.008 13.837 19.8712 13.478 20.5892 12.7599C21.3073 12.0419 21.6663 11.1787 21.6663 10.1703C21.6663 9.162 21.3073 8.29881 20.5892 7.58075C19.8712 6.86269 19.008 6.50367 17.9996 6.50367C16.9913 6.50367 16.1281 6.86269 15.41 7.58075C14.692 8.29881 14.333 9.162 14.333 10.1703C14.333 11.1787 14.692 12.0419 15.41 12.7599C16.1281 13.478 16.9913 13.837 17.9996 13.837ZM11.1599 33.51V32.2901C11.1599 30.4074 11.8174 28.8003 13.1325 27.4688C14.4475 26.1373 16.0464 25.4716 17.9291 25.4716H23.3234C23.7129 25.4716 24.0395 25.6034 24.303 25.867C24.5665 26.1307 24.6983 26.4574 24.6983 26.8471C24.6983 27.2369 24.5665 27.5634 24.303 27.8266C24.0395 28.0899 23.7129 28.2215 23.3234 28.2215H17.9291C16.7903 28.2215 15.8357 28.6193 15.0654 29.4149C14.295 30.2105 13.9099 31.1689 13.9099 32.2901V33.51H11.1599Z"
        fill="#6B83FF"
      />
    </svg>