<svg width="1369" height="707" viewBox="0 0 1369 707" fill="none" xmlns="http://www.w3.org/2000/svg">
<path d="M1334.82 667.933C1342.67 670.651 1351.31 667.11 1354.99 659.669C1352.27 667.515 1355.82 676.158 1363.26 679.841C1355.41 677.123 1346.77 680.664 1343.09 688.106C1345.8 680.26 1342.26 671.617 1334.82 667.933Z" fill="#FBFBFB"/>
<path d="M1034.49 457.315C1034.28 465.616 1040.28 472.776 1048.49 474.026C1040.19 473.818 1033.03 479.816 1031.78 488.025C1031.99 479.724 1025.99 472.565 1017.78 471.315C1026.08 471.522 1033.24 465.524 1034.49 457.315Z" fill="#FBFBFB"/>
<path d="M1044.36 100.924C1044.15 109.225 1050.15 116.385 1058.36 117.635C1050.06 117.427 1042.9 123.425 1041.65 131.634C1041.85 123.333 1035.85 116.174 1027.65 114.924C1035.95 115.131 1043.11 109.133 1044.36 100.924Z" fill="#FBFBFB"/>
<path d="M888.975 498.01C888.768 506.311 894.766 513.471 902.975 514.721C894.674 514.513 887.514 520.511 886.264 528.72C886.472 520.419 880.474 513.26 872.265 512.01C880.566 512.217 887.725 506.219 888.975 498.01Z" fill="#FBFBFB"/>
<path d="M782.809 655.099C782.602 663.4 788.6 670.559 796.809 671.809C788.508 671.602 781.348 677.6 780.098 685.809C780.306 677.508 774.308 670.348 766.099 669.098C774.4 669.306 781.559 663.308 782.809 655.099Z" fill="#FBFBFB"/>
<path d="M587.809 9.09874C587.602 17.3996 593.6 24.5594 601.809 25.8094C593.508 25.6019 586.348 31.6001 585.098 39.809C585.306 31.508 579.308 24.3483 571.099 23.0983C579.4 23.3058 586.559 17.3076 587.809 9.09874Z" fill="#FBFBFB"/>
<path d="M847.323 137.616C841.277 143.308 840.407 152.607 845.294 159.321C839.602 153.275 830.302 152.406 823.588 157.292C829.634 151.6 830.503 142.3 825.617 135.587C831.309 141.632 840.609 142.502 847.323 137.616Z" fill="#FBFBFB"/>
<path d="M1328.68 363.431C1326.1 371.323 1329.79 379.904 1337.29 383.459C1329.4 380.876 1320.82 384.565 1317.26 392.069C1319.84 384.177 1316.16 375.597 1308.65 372.041C1316.54 374.624 1325.12 370.935 1328.68 363.431Z" fill="#FBFBFB"/>
<path d="M1240.51 215.134C1244.51 222.412 1253.29 225.581 1261.02 222.531C1253.74 226.528 1250.57 235.314 1253.62 243.037C1249.62 235.759 1240.84 232.59 1233.11 235.64C1240.39 231.643 1243.56 222.857 1240.51 215.134Z" fill="#FBFBFB"/>
<path opacity="0.2" fill-rule="evenodd" clip-rule="evenodd" d="M964.363 112.65C964.574 113.293 964.796 113.877 965.014 114.399C961.95 113.125 959.503 110.81 958.028 107.961C959.416 107.47 961.163 107.015 963.203 106.815C963.377 109.08 963.837 111.048 964.363 112.65ZM967 111.785C966.543 110.393 966.14 108.684 965.978 106.715C967.061 106.742 968.204 106.849 969.399 107.057C970.594 107.266 971.705 107.553 972.733 107.894C971.914 109.692 970.956 111.164 970.054 112.318C969.332 113.244 968.647 113.965 968.102 114.484C967.766 113.811 967.366 112.901 967 111.785ZM966.253 100.875C966.067 101.939 965.963 102.962 965.922 103.938C967.173 103.964 968.494 104.083 969.876 104.324C971.259 104.565 972.542 104.901 973.727 105.3C974.019 104.368 974.267 103.371 974.453 102.306C974.639 101.242 974.744 100.22 974.784 99.2436C973.534 99.2178 972.213 99.0987 970.831 98.8574C969.448 98.6161 968.165 98.2805 966.98 97.8811C966.687 98.8128 966.439 99.8106 966.253 100.875ZM964.396 96.8493C964.041 97.9496 963.741 99.132 963.52 100.398C963.299 101.663 963.18 102.878 963.142 104.033C960.713 104.251 958.638 104.794 957.004 105.38C956.45 103.433 956.315 101.333 956.687 99.2048C957.058 97.0764 957.896 95.1468 959.078 93.5024C960.416 94.607 962.184 95.8211 964.396 96.8493ZM967.973 95.2874C969.002 95.6284 970.113 95.9154 971.308 96.1241C972.503 96.3327 973.645 96.4391 974.728 96.4667C974.567 94.4971 974.164 92.7882 973.707 91.3964C973.341 90.2804 972.941 89.3705 972.604 88.6973C972.06 89.2167 971.375 89.9372 970.652 90.863C969.751 92.0177 968.793 93.489 967.973 95.2874ZM977.564 99.1483C977.526 100.304 977.408 101.518 977.187 102.784C976.966 104.049 976.666 105.232 976.31 106.332C978.522 107.36 980.29 108.574 981.629 109.679C982.81 108.034 983.648 106.105 984.02 103.977C984.391 101.848 984.257 99.7488 983.702 97.8015C982.069 98.3872 979.994 98.9303 977.564 99.1483ZM982.679 95.2208C981.291 95.7118 979.544 96.1668 977.504 96.367C977.329 94.1015 976.869 92.1334 976.343 90.5312C976.132 89.8887 975.911 89.3045 975.693 88.7827C978.756 90.0565 981.203 92.3711 982.679 95.2208ZM965.396 94.2531C963.544 93.3736 962.055 92.3536 960.915 91.4213C963.269 89.2402 966.356 87.8917 969.669 87.7312C969.287 88.1481 968.881 88.6227 968.465 89.1557C967.427 90.485 966.327 92.1807 965.396 94.2531ZM975.311 108.928C974.379 111.001 973.279 112.696 972.242 114.026C971.826 114.559 971.419 115.033 971.037 115.45C974.351 115.29 977.438 113.941 979.791 111.76C978.652 110.828 977.162 109.808 975.311 108.928ZM967.49 117.991C976.548 119.572 985.172 113.511 986.753 104.454C988.334 95.3964 982.274 86.772 973.216 85.1907C964.159 83.6095 955.535 89.6702 953.953 98.7276C952.372 107.785 958.433 116.409 967.49 117.991Z" fill="#EB6B6B"/>
<path opacity="0.2" fill-rule="evenodd" clip-rule="evenodd" d="M676.272 98.3227C676.483 98.9651 676.705 99.5494 676.923 100.071C673.86 98.7973 671.413 96.4828 669.937 93.6331C671.325 93.1422 673.072 92.6871 675.112 92.487C675.286 94.7523 675.747 96.7204 676.272 98.3227ZM678.909 97.4574C678.452 96.0657 678.049 94.3568 677.887 92.3872C678.97 92.4148 680.113 92.5211 681.308 92.7298C682.503 92.9384 683.614 93.2255 684.642 93.5663C683.823 95.3648 682.865 96.8361 681.964 97.9907C681.241 98.9166 680.556 99.637 680.012 100.157C679.675 99.4832 679.275 98.5735 678.909 97.4574ZM678.162 86.5473C677.977 87.6116 677.872 88.6344 677.832 89.6102C679.082 89.636 680.403 89.7551 681.785 89.9964C683.168 90.2378 684.451 90.5731 685.636 90.9726C685.929 90.0408 686.177 89.0432 686.362 87.9788C686.548 86.9145 686.653 85.8919 686.693 84.916C685.443 84.8902 684.122 84.7711 682.74 84.5298C681.357 84.2884 680.074 83.9529 678.889 83.5535C678.596 84.4852 678.348 85.4829 678.162 86.5473ZM676.306 82.5217C675.95 83.6219 675.65 84.8044 675.429 86.0701C675.208 87.3358 675.09 88.5499 675.051 89.7056C672.622 89.9235 670.547 90.4665 668.913 91.0524C668.359 89.1051 668.224 87.0055 668.596 84.8771C668.967 82.7488 669.806 80.8192 670.987 79.1748C672.325 80.2794 674.094 81.4935 676.306 82.5217ZM679.882 80.9598C680.911 81.3007 682.022 81.5878 683.217 81.7964C684.412 82.0051 685.555 82.1115 686.637 82.1391C686.476 80.1695 686.073 78.4605 685.616 77.0687C685.25 75.9528 684.85 75.0428 684.513 74.3696C683.969 74.889 683.284 75.6096 682.561 76.5354C681.66 77.6901 680.702 79.1613 679.882 80.9598ZM689.473 84.8207C689.435 85.9764 689.317 87.1905 689.096 88.456C688.875 89.7217 688.575 90.904 688.219 92.0042C690.431 93.0326 692.199 94.2466 693.538 95.3513C694.719 93.7069 695.558 91.7772 695.929 89.649C696.301 87.5208 696.166 85.4212 695.612 83.4738C693.978 84.0596 691.903 84.6027 689.473 84.8207ZM694.588 80.8931C693.2 81.3842 691.453 81.8392 689.413 82.0393C689.239 79.7739 688.778 77.8057 688.253 76.2035C688.042 75.561 687.82 74.9768 687.602 74.4551C690.665 75.7289 693.112 78.0435 694.588 80.8931ZM677.305 79.9254C675.454 79.046 673.964 78.0259 672.825 77.0936C675.178 74.9125 678.265 73.564 681.578 73.4036C681.197 73.8205 680.79 74.2951 680.374 74.8281C679.336 76.1573 678.237 77.8531 677.305 79.9254ZM687.22 94.6006C686.288 96.6731 685.189 98.3688 684.151 99.6981C683.735 100.231 683.328 100.706 682.946 101.123C686.26 100.962 689.347 99.6135 691.7 97.4324C690.561 96.5002 689.071 95.4802 687.22 94.6006ZM679.399 103.663C688.457 105.244 697.081 99.1837 698.662 90.1262C700.244 81.0687 694.183 72.4444 685.126 70.8631C676.068 69.2819 667.444 75.3425 665.862 84.4C664.281 93.4575 670.342 102.082 679.399 103.663Z" fill="#EB6B6B"/>
<path d="M901.713 257.743L902.208 249.208L886.31 238.798L883.973 277.366L890.785 273.943L891.443 263.092L896.238 266.266L896.658 258.842L891.889 255.722L892.15 251.413L901.716 257.742L901.713 257.743ZM867.791 247.121L884.83 238.708L882.493 277.277L876.144 273.056L877.509 250.526L867.25 255.654L867.791 247.121Z" fill="#ECCD2A" fill-opacity="0.2"/>
<path d="M575.228 173.543L579.74 166.281L570.746 149.542L550.27 182.31L557.89 182.556L563.651 173.337L566.347 178.416L570.262 172.094L567.563 167.075L569.85 163.415L575.231 173.544L575.228 173.543ZM550.5 148.009L569.488 148.756L549.012 181.524L545.451 174.783L557.411 155.642L545.949 155.246L550.5 148.009Z" fill="#ECCD2A" fill-opacity="0.2"/>
<path d="M1083.6 616.606L1075.26 614.722L1062.39 628.705L1100.06 637.314L1097.79 630.034L1087.19 627.612L1091.11 623.4L1083.85 621.773L1080 625.967L1075.79 625.006L1083.6 616.603L1083.6 616.606ZM1067.57 648.336L1062.06 630.151L1099.73 638.76L1094.52 644.334L1072.52 639.305L1075.9 650.264L1067.57 648.336Z" fill="#ECCD2A" fill-opacity="0.2"/>
<path d="M696.042 547.012L690.529 540.477L671.83 543.859L696.666 573.458L699.255 566.287L692.267 557.959L697.931 556.964L693.129 551.288L687.521 552.303L684.747 548.997L696.043 547.009L696.042 547.012ZM664.115 562.639L670.694 544.812L695.53 574.411L688.019 575.715L673.511 558.425L669.592 569.204L664.115 562.639Z" fill="#ECCD2A" fill-opacity="0.2"/>
<path d="M1203.4 478.412L1201.41 470.097L1183.19 464.72L1192.08 502.321L1197.62 497.077L1195.11 486.498L1200.62 488.153L1198.88 480.924L1193.41 479.313L1192.42 475.113L1203.41 478.41L1203.4 478.412ZM1167.86 478.035L1181.74 465.062L1190.64 502.663L1183.34 500.454L1178.15 478.49L1169.8 486.361L1167.86 478.035Z" fill="#ECCD2A" fill-opacity="0.2"/>
<path opacity="0.2" d="M1144.02 127.512L1147.87 124.858C1150.03 123.376 1150.22 122.214 1148.83 120.167L1143.3 112.004C1142.15 110.295 1139.99 110.082 1138.52 111.533L1131.51 118.464C1129.74 120.2 1129.62 121.428 1131.54 123.251L1134.79 126.604M1140.94 111.357L1140.46 116.291M1139.33 96.3124C1131.42 96.4201 1124.72 102.121 1123.96 109.785M1157.86 113.12C1158.61 105.475 1153.19 98.6013 1145.49 96.9188M1136.17 133.296L1141.35 133.805C1143.32 133.999 1144.72 132.798 1144.51 131.143L1144.02 127.53L1134.77 126.621L1133.58 130.068C1133.06 131.553 1134.32 133.114 1136.17 133.296ZM1143.16 99.5256L1141.11 99.3235C1139.98 99.2124 1139.14 98.2438 1139.25 97.1712L1139.44 95.221C1139.54 94.1484 1140.55 93.3617 1141.68 93.4729L1143.74 93.675C1144.87 93.7861 1145.71 94.7546 1145.6 95.8273L1145.41 97.7775C1145.3 98.8501 1144.29 99.6367 1143.16 99.5256ZM1122.4 115.539L1124.46 115.742C1125.59 115.853 1126.6 115.066 1126.7 113.993L1126.89 112.043C1127 110.971 1126.16 110.002 1125.03 109.891L1122.98 109.689C1121.85 109.578 1120.84 110.364 1120.73 111.437L1120.54 113.387C1120.43 114.46 1121.27 115.428 1122.4 115.539ZM1158.27 119.067L1156.22 118.865C1155.09 118.754 1154.25 117.786 1154.35 116.713L1154.55 114.763C1154.65 113.69 1155.66 112.903 1156.79 113.015L1158.85 113.217C1159.98 113.328 1160.81 114.297 1160.71 115.369L1160.52 117.319C1160.41 118.392 1159.4 119.179 1158.27 119.067Z" stroke="#6B83FF" stroke-width="2" stroke-linecap="round" stroke-linejoin="round"/>
<path opacity="0.2" d="M1150.19 371.683L1154.03 369.029C1156.19 367.548 1156.39 366.386 1154.99 364.338L1149.47 356.175C1148.31 354.466 1146.15 354.254 1144.68 355.704L1137.68 362.635C1135.91 364.371 1135.79 365.599 1137.7 367.422L1140.96 370.775M1147.11 355.529L1146.62 360.463M1145.5 340.484C1137.58 340.591 1130.88 346.292 1130.13 353.956M1164.03 357.291C1164.78 349.646 1159.36 342.772 1151.66 341.09M1142.33 377.467L1147.51 377.976C1149.48 378.17 1150.89 376.969 1150.68 375.314L1150.18 371.702L1140.94 370.792L1139.75 374.239C1139.23 375.724 1140.49 377.285 1142.33 377.467ZM1149.33 343.697L1147.27 343.495C1146.14 343.384 1145.31 342.415 1145.41 341.342L1145.6 339.392C1145.71 338.32 1146.72 337.533 1147.85 337.644L1149.9 337.846C1151.03 337.957 1151.87 338.926 1151.77 339.998L1151.58 341.949C1151.47 343.021 1150.46 343.808 1149.33 343.697ZM1128.57 359.711L1130.62 359.913C1131.75 360.024 1132.76 359.237 1132.87 358.165L1133.06 356.214C1133.16 355.142 1132.33 354.173 1131.2 354.062L1129.14 353.86C1128.01 353.749 1127 354.535 1126.9 355.608L1126.7 357.558C1126.6 358.631 1127.44 359.599 1128.57 359.711ZM1164.44 363.239L1162.38 363.037C1161.25 362.925 1160.41 361.957 1160.52 360.884L1160.71 358.934C1160.82 357.861 1161.83 357.075 1162.96 357.186L1165.01 357.388C1166.14 357.499 1166.98 358.468 1166.88 359.54L1166.68 361.49C1166.58 362.563 1165.57 363.35 1164.44 363.239Z" stroke="#6B83FF" stroke-width="2" stroke-linecap="round" stroke-linejoin="round"/>
<path opacity="0.2" d="M875.915 694.018L879.764 691.364C881.922 689.883 882.119 688.721 880.724 686.674L875.2 678.51C874.041 676.801 871.883 676.589 870.413 678.04L863.405 684.97C861.637 686.706 861.516 687.935 863.432 689.758L866.69 693.111M872.836 677.864L872.351 682.798M871.225 662.819C863.311 662.927 856.611 668.628 855.857 676.292M889.756 679.627C890.508 671.982 885.086 665.108 877.39 663.426M868.064 699.803L873.242 700.312C875.214 700.506 876.618 699.305 876.407 697.65L875.912 694.037L866.667 693.128L865.478 696.575C864.958 698.06 866.215 699.621 868.064 699.803ZM875.058 666.032L873.004 665.83C871.874 665.719 871.036 664.751 871.141 663.678L871.333 661.728C871.439 660.655 872.45 659.869 873.579 659.98L875.634 660.182C876.764 660.293 877.602 661.261 877.496 662.334L877.305 664.284C877.199 665.357 876.188 666.144 875.058 666.032ZM854.296 682.046L856.351 682.248C857.481 682.36 858.491 681.573 858.597 680.5L858.789 678.55C858.894 677.477 858.056 676.509 856.926 676.398L854.872 676.195C853.742 676.084 852.731 676.871 852.625 677.944L852.434 679.894C852.328 680.967 853.166 681.935 854.296 682.046ZM890.166 685.574L888.112 685.372C886.982 685.261 886.144 684.293 886.249 683.22L886.441 681.27C886.547 680.197 887.558 679.41 888.688 679.521L890.742 679.723C891.872 679.835 892.71 680.803 892.605 681.876L892.413 683.826C892.307 684.899 891.296 685.685 890.166 685.574Z" stroke="#6B83FF" stroke-width="2" stroke-linecap="round" stroke-linejoin="round"/>
<path opacity="0.2" d="M764.689 226.955L765.45 222.341C765.88 219.76 765.18 218.811 762.738 218.396L753.027 216.708C750.991 216.357 749.342 217.763 749.366 219.828L749.493 229.684C749.517 232.162 750.317 233.102 752.959 232.987L757.635 232.967M750.921 217.962L754.137 221.735M738.97 208.682C733.556 214.455 733.011 223.236 738.007 229.097M763.931 207.002C758.948 201.155 750.236 200.29 743.684 204.664M763.407 236.621L767.366 233.247C768.874 231.961 768.984 230.117 767.646 229.12L764.701 226.97L757.631 232.996L759.288 236.244C759.996 237.648 761.993 237.826 763.407 236.621ZM743.943 208.152L742.372 209.491C741.508 210.227 740.229 210.159 739.53 209.338L738.259 207.847C737.56 207.027 737.695 205.753 738.559 205.017L740.13 203.677C740.994 202.941 742.273 203.01 742.972 203.83L744.243 205.321C744.942 206.141 744.807 207.415 743.943 208.152ZM741.067 234.214L742.638 232.875C743.503 232.138 743.637 230.865 742.938 230.044L741.667 228.553C740.968 227.733 739.689 227.664 738.825 228.4L737.254 229.74C736.39 230.476 736.255 231.75 736.954 232.57L738.225 234.062C738.924 234.882 740.203 234.95 741.067 234.214ZM768.498 210.833L766.927 212.172C766.063 212.909 764.784 212.84 764.085 212.02L762.814 210.529C762.115 209.708 762.25 208.434 763.114 207.698L764.685 206.359C765.549 205.622 766.828 205.691 767.527 206.511L768.798 208.003C769.497 208.823 769.362 210.097 768.498 210.833Z" stroke="#6B83FF" stroke-width="2" stroke-linecap="round" stroke-linejoin="round"/>
<path opacity="0.2" d="M1250.5 51.0415L1247.1 47.8384C1245.19 46.0416 1244.02 46.094 1242.31 47.8903L1235.49 55.0118C1234.07 56.5057 1234.32 58.659 1236.04 59.7902L1244.3 65.1787C1246.37 66.5407 1247.59 66.3997 1248.97 64.1425L1251.56 60.2497M1235.36 57.4589L1240.29 56.8925M1220.99 62.2073C1222.77 69.9202 1229.76 75.2675 1237.41 74.3875M1233.51 40.5477C1225.88 41.4254 1220.31 48.1758 1220.29 56.0537M1257.81 57.495L1257.22 52.3269C1256.99 50.3581 1255.52 49.2389 1253.95 49.7939L1250.52 51.0399L1251.58 60.2687L1255.2 60.7043C1256.76 60.8988 1258.02 59.3408 1257.81 57.495ZM1223.33 57.7825L1223.56 59.8333C1223.69 60.9613 1222.92 61.9849 1221.85 62.108L1219.91 62.3319C1218.83 62.4551 1217.85 61.633 1217.72 60.505L1217.49 58.4542C1217.36 57.3262 1218.13 56.3026 1219.2 56.1795L1221.14 55.9556C1222.22 55.8324 1223.2 56.6545 1223.33 57.7825ZM1243.36 74.6992L1243.12 72.6484C1242.99 71.5204 1242.01 70.6983 1240.94 70.8214L1239 71.0453C1237.92 71.1685 1237.15 72.1921 1237.28 73.3201L1237.52 75.3709C1237.65 76.4989 1238.63 77.321 1239.7 77.1978L1241.65 76.9739C1242.72 76.8508 1243.49 75.8271 1243.36 74.6992ZM1239.24 38.892L1239.48 40.9428C1239.61 42.0707 1238.84 43.0944 1237.77 43.2175L1235.82 43.4414C1234.75 43.5646 1233.77 42.7425 1233.64 41.6145L1233.4 39.5637C1233.27 38.4357 1234.04 37.4121 1235.11 37.2889L1237.06 37.065C1238.13 36.9419 1239.11 37.764 1239.24 38.892Z" stroke="#6B83FF" stroke-width="2" stroke-linecap="round" stroke-linejoin="round"/>
<path opacity="0.2" d="M917.523 607.941L910.733 622.791L925.601 629.542M930.518 603.082L945.385 609.833L938.595 624.683" stroke="#BA75DA" stroke-width="2.5" stroke-linecap="round" stroke-linejoin="round"/>
<path opacity="0.2" d="M893.636 408.15L900.171 423.114L915.118 416.54M898.683 395.227L913.63 388.653L920.165 403.617" stroke="#BA75DA" stroke-width="2.5" stroke-linecap="round" stroke-linejoin="round"/>
<path opacity="0.2" d="M889.182 35.9225L875.081 44.1566L883.352 58.2357M902.604 39.4295L910.875 53.5087L896.775 61.7427" stroke="#BA75DA" stroke-width="2.5" stroke-linecap="round" stroke-linejoin="round"/>
<path opacity="0.2" fill-rule="evenodd" clip-rule="evenodd" d="M1196.52 689.121C1197.06 689.529 1197.57 689.884 1198.05 690.188C1194.81 690.884 1191.48 690.372 1188.64 688.868C1189.5 687.675 1190.68 686.307 1192.25 684.982C1193.68 686.746 1195.18 688.102 1196.52 689.121ZM1198.2 686.909C1197.03 686.025 1195.72 684.849 1194.47 683.321C1195.38 682.727 1196.38 682.165 1197.48 681.656C1198.58 681.148 1199.66 680.752 1200.7 680.447C1201.05 682.393 1201.1 684.148 1201.01 685.61C1200.94 686.783 1200.79 687.765 1200.64 688.502C1199.98 688.139 1199.13 687.619 1198.2 686.909ZM1191.38 678.361C1191.83 679.342 1192.32 680.243 1192.85 681.069C1193.89 680.378 1195.04 679.725 1196.32 679.137C1197.59 678.549 1198.84 678.095 1200.04 677.749C1199.75 676.816 1199.39 675.855 1198.93 674.874C1198.48 673.893 1197.98 672.992 1197.46 672.167C1196.42 672.857 1195.27 673.51 1193.99 674.098C1192.72 674.686 1191.47 675.14 1190.27 675.486C1190.56 676.419 1190.92 677.38 1191.38 678.361ZM1187.56 676.107C1187.89 677.214 1188.32 678.357 1188.86 679.524C1189.39 680.691 1189.99 681.757 1190.61 682.729C1188.74 684.29 1187.34 685.917 1186.33 687.328C1184.77 686.042 1183.46 684.392 1182.56 682.43C1181.65 680.469 1181.24 678.405 1181.28 676.38C1183.01 676.527 1185.15 676.52 1187.56 676.107ZM1189.61 672.788C1190.65 672.483 1191.73 672.087 1192.83 671.579C1193.93 671.07 1194.93 670.508 1195.84 669.915C1194.58 668.387 1193.28 667.21 1192.11 666.326C1191.18 665.616 1190.33 665.096 1189.67 664.733C1189.52 665.47 1189.36 666.452 1189.3 667.625C1189.21 669.087 1189.26 670.843 1189.61 672.788ZM1199.69 670.507C1200.32 671.479 1200.91 672.545 1201.45 673.711C1201.99 674.878 1202.42 676.021 1202.75 677.128C1205.15 676.715 1207.3 676.708 1209.03 676.855C1209.06 674.83 1208.66 672.766 1207.75 670.805C1206.85 668.843 1205.54 667.193 1203.98 665.907C1202.97 667.318 1201.57 668.945 1199.69 670.507ZM1201.67 664.367C1200.8 665.56 1199.63 666.928 1198.06 668.253C1196.63 666.49 1195.13 665.133 1193.79 664.114C1193.25 663.706 1192.73 663.352 1192.26 663.047C1195.5 662.351 1198.83 662.863 1201.67 664.367ZM1186.9 673.403C1184.88 673.733 1183.07 673.742 1181.61 673.623C1182.3 670.491 1184.07 667.626 1186.71 665.609C1186.63 666.169 1186.57 666.79 1186.53 667.465C1186.43 669.149 1186.49 671.169 1186.9 673.403ZM1203.41 679.831C1203.82 682.066 1203.88 684.086 1203.78 685.77C1203.74 686.445 1203.68 687.066 1203.6 687.627C1206.24 685.609 1208.01 682.744 1208.7 679.611C1207.23 679.493 1205.43 679.502 1203.41 679.831ZM1202.13 691.734C1210.48 687.881 1214.12 677.991 1210.27 669.642C1206.42 661.294 1196.53 657.649 1188.18 661.501C1179.83 665.354 1176.19 675.245 1180.04 683.593C1183.89 691.941 1193.78 695.586 1202.13 691.734Z" fill="#EB6B6B"/>
<path opacity="0.2" fill-rule="evenodd" clip-rule="evenodd" d="M1033.74 348.761C1034.28 349.17 1034.79 349.524 1035.27 349.829C1032.03 350.524 1028.7 350.013 1025.86 348.509C1026.72 347.316 1027.9 345.947 1029.47 344.622C1030.9 346.386 1032.4 347.743 1033.74 348.761ZM1035.42 346.55C1034.25 345.665 1032.94 344.489 1031.69 342.961C1032.6 342.368 1033.6 341.805 1034.7 341.297C1035.8 340.789 1036.88 340.393 1037.92 340.088C1038.27 342.033 1038.32 343.788 1038.23 345.251C1038.16 346.423 1038.01 347.405 1037.86 348.142C1037.2 347.78 1036.35 347.259 1035.42 346.55ZM1028.59 338.002C1029.05 338.983 1029.54 339.884 1030.07 340.709C1031.11 340.019 1032.26 339.365 1033.54 338.777C1034.81 338.189 1036.06 337.735 1037.26 337.39C1036.97 336.457 1036.61 335.495 1036.15 334.514C1035.7 333.533 1035.2 332.633 1034.68 331.807C1033.64 332.497 1032.49 333.151 1031.21 333.739C1029.94 334.327 1028.69 334.781 1027.49 335.127C1027.78 336.059 1028.14 337.021 1028.59 338.002ZM1024.78 335.748C1025.11 336.855 1025.54 337.998 1026.08 339.165C1026.61 340.331 1027.21 341.397 1027.83 342.369C1025.96 343.931 1024.56 345.558 1023.55 346.969C1021.99 345.683 1020.68 344.033 1019.78 342.071C1018.87 340.109 1018.46 338.045 1018.5 336.021C1020.23 336.168 1022.37 336.16 1024.78 335.748ZM1026.83 332.428C1027.87 332.124 1028.95 331.728 1030.05 331.219C1031.15 330.711 1032.15 330.149 1033.06 329.555C1031.8 328.027 1030.5 326.851 1029.33 325.966C1028.4 325.257 1027.55 324.736 1026.89 324.374C1026.74 325.111 1026.58 326.093 1026.52 327.266C1026.43 328.728 1026.48 330.483 1026.83 332.428ZM1036.91 330.147C1037.54 331.119 1038.13 332.185 1038.67 333.352C1039.21 334.518 1039.64 335.661 1039.97 336.768C1042.37 336.356 1044.52 336.348 1046.25 336.495C1046.28 334.471 1045.88 332.407 1044.97 330.445C1044.07 328.484 1042.76 326.834 1041.2 325.547C1040.19 326.959 1038.79 328.586 1036.91 330.147ZM1038.89 324.008C1038.02 325.201 1036.85 326.569 1035.28 327.894C1033.85 326.13 1032.35 324.773 1031.01 323.755C1030.47 323.347 1029.95 322.992 1029.48 322.687C1032.72 321.992 1036.05 322.503 1038.89 324.008ZM1024.12 333.044C1022.1 333.374 1020.29 333.383 1018.83 333.264C1019.52 330.131 1021.29 327.266 1023.93 325.249C1023.85 325.809 1023.79 326.431 1023.75 327.106C1023.65 328.789 1023.71 330.81 1024.12 333.044ZM1040.63 339.472C1041.04 341.707 1041.1 343.727 1041 345.41C1040.96 346.085 1040.9 346.707 1040.82 347.267C1043.46 345.25 1045.23 342.385 1045.92 339.252C1044.45 339.134 1042.65 339.142 1040.63 339.472ZM1039.35 351.374C1047.7 347.522 1051.34 337.631 1047.49 329.283C1043.64 320.934 1033.75 317.289 1025.4 321.142C1017.05 324.994 1013.41 334.885 1017.26 343.234C1021.11 351.582 1031 355.227 1039.35 351.374Z" fill="#EB6B6B"/>
<path opacity="0.2" d="M1071.29 212.001L1066.27 206.93C1066.18 206.841 1066.07 206.772 1065.93 206.736C1065.54 206.63 1065.13 206.866 1065.03 207.265C1064.95 207.531 1065.03 207.801 1065.21 207.983L1065.21 207.985L1070.3 213.119C1068.4 215.42 1066.88 218.3 1066.01 221.532C1065.15 224.763 1065.02 228.018 1065.53 231.113L1065.51 230.962L1058.53 232.851C1058.28 232.92 1058.07 233.115 1058 233.381C1057.9 233.779 1058.13 234.188 1058.52 234.294C1058.66 234.33 1058.79 234.327 1058.91 234.293L1058.91 234.293L1065.8 232.426C1067.46 239.26 1072.33 244.964 1079.13 247.4L1079.2 247.423L1090.41 205.741C1083.23 204.422 1076.16 206.917 1071.37 211.906L1071.29 211.997L1071.29 212.001ZM1076.34 234.596C1076.08 235.555 1075.1 236.124 1074.15 235.869C1073.2 235.613 1072.64 234.629 1072.9 233.67C1073.15 232.711 1074.13 232.141 1075.08 232.397C1076.03 232.654 1076.6 233.636 1076.34 234.596ZM1081.5 215.411C1081.24 216.37 1080.26 216.939 1079.31 216.684C1078.36 216.428 1077.8 215.444 1078.05 214.485C1078.31 213.526 1079.29 212.956 1080.24 213.212C1081.19 213.469 1081.75 214.451 1081.5 215.411Z" fill="#ABD700"/>
<path opacity="0.2" d="M569.382 619.52L564.356 614.45C564.27 614.361 564.156 614.292 564.024 614.256C563.628 614.15 563.222 614.386 563.114 614.785C563.043 615.05 563.123 615.321 563.301 615.503L563.304 615.505L568.393 620.639C566.493 622.94 564.971 625.82 564.102 629.051C563.234 632.283 563.107 635.537 563.616 638.632L563.597 638.481L556.618 640.371C556.369 640.44 556.163 640.635 556.092 640.9C555.984 641.299 556.218 641.708 556.613 641.814C556.746 641.849 556.878 641.846 557.001 641.812L556.998 641.813L563.889 639.946C565.551 646.78 570.417 652.484 577.222 654.92L577.293 654.943L588.497 613.261C581.315 611.942 574.244 614.437 569.461 619.425L569.38 619.517L569.382 619.52ZM574.428 642.115C574.17 643.074 573.191 643.644 572.24 643.389C571.289 643.133 570.727 642.149 570.985 641.19C571.243 640.231 572.222 639.661 573.173 639.917C574.122 640.174 574.685 641.156 574.428 642.115ZM579.585 622.93C579.327 623.889 578.348 624.459 577.397 624.204C576.446 623.948 575.884 622.964 576.142 622.005C576.4 621.046 577.379 620.476 578.33 620.732C579.279 620.989 579.841 621.971 579.585 622.93Z" fill="#ABD700"/>
<path opacity="0.2" d="M783.382 12.5204L778.356 7.44965C778.27 7.36108 778.156 7.2916 778.024 7.25603C777.628 7.14969 777.222 7.38617 777.114 7.78504C777.043 8.0505 777.123 8.32076 777.301 8.5029L777.304 8.50503L782.393 13.6389C780.493 15.9402 778.971 18.82 778.102 22.0514C777.234 25.2827 777.107 28.5375 777.616 31.6323L777.597 31.4813L770.618 33.3712C770.369 33.4399 770.163 33.6349 770.092 33.9003C769.984 34.2992 770.218 34.7076 770.613 34.8139C770.746 34.8495 770.878 34.8463 771.001 34.8123L770.998 34.813L777.889 32.9458C779.551 39.7795 784.417 45.4839 791.222 47.9195L791.293 47.943L802.497 6.26105C795.315 4.94157 788.244 7.43716 783.461 12.4253L783.38 12.5169L783.382 12.5204ZM788.428 35.1155C788.17 36.0745 787.191 36.6442 786.24 36.3886C785.289 36.1329 784.727 35.1489 784.985 34.1899C785.243 33.2309 786.222 32.6612 787.173 32.9168C788.122 33.1735 788.685 34.1561 788.428 35.1155ZM793.585 15.9305C793.327 16.8895 792.348 17.4592 791.397 17.2036C790.446 16.9479 789.884 15.9639 790.142 15.0049C790.4 14.0459 791.379 13.4762 792.33 13.7318C793.279 13.9885 793.841 14.9711 793.585 15.9305Z" fill="#ABD700"/>
<path opacity="0.2" d="M1267.36 126.361L1268.51 119.314C1268.53 119.193 1268.52 119.059 1268.47 118.931C1268.32 118.549 1267.89 118.359 1267.51 118.506C1267.25 118.605 1267.08 118.828 1267.04 119.079L1267.04 119.083L1265.87 126.217C1262.89 126.032 1259.67 126.492 1256.54 127.687C1253.42 128.883 1250.71 130.692 1248.5 132.922L1248.62 132.818L1242.99 128.281C1242.78 128.12 1242.51 128.068 1242.25 128.166C1241.86 128.314 1241.67 128.742 1241.82 129.125C1241.86 129.253 1241.94 129.358 1242.04 129.438L1242.04 129.436L1247.6 133.915C1243.05 139.275 1241.29 146.564 1243.32 153.502L1243.34 153.573L1283.65 138.151C1280.5 131.564 1274.33 127.309 1267.48 126.369L1267.36 126.357L1267.36 126.361ZM1252.04 143.718C1251.11 144.073 1250.07 143.615 1249.72 142.696C1249.37 141.776 1249.84 140.743 1250.76 140.388C1251.69 140.033 1252.73 140.491 1253.08 141.411C1253.43 142.33 1252.96 143.362 1252.04 143.718ZM1270.59 136.62C1269.67 136.975 1268.63 136.517 1268.28 135.597C1267.92 134.678 1268.39 133.645 1269.32 133.29C1270.25 132.935 1271.28 133.393 1271.63 134.313C1271.98 135.232 1271.52 136.264 1270.59 136.62Z" fill="#ABD700"/>
<path opacity="0.2" d="M1316.55 583.841L1316.42 576.702C1316.42 576.579 1316.39 576.45 1316.31 576.332C1316.1 575.982 1315.65 575.872 1315.29 576.087C1315.06 576.229 1314.93 576.48 1314.93 576.735L1314.93 576.738L1315.06 583.966C1312.1 584.317 1309.01 585.347 1306.15 587.083C1303.29 588.819 1300.95 591.084 1299.18 593.673L1299.27 593.551L1292.92 590.096C1292.69 589.973 1292.41 589.972 1292.17 590.114C1291.82 590.329 1291.7 590.785 1291.92 591.135C1291.99 591.252 1292.09 591.342 1292.2 591.402L1292.2 591.4L1298.47 594.812C1294.95 600.9 1294.53 608.386 1297.76 614.849L1297.8 614.914L1334.7 592.522C1330.41 586.606 1323.58 583.525 1316.67 583.826L1316.55 583.837L1316.55 583.841ZM1304.59 603.662C1303.74 604.177 1302.64 603.912 1302.13 603.07C1301.62 602.228 1301.89 601.129 1302.74 600.614C1303.59 600.098 1304.69 600.363 1305.2 601.205C1305.71 602.047 1305.44 603.145 1304.59 603.662ZM1321.57 593.355C1320.72 593.87 1319.62 593.605 1319.11 592.763C1318.6 591.921 1318.87 590.822 1319.72 590.307C1320.57 589.792 1321.67 590.056 1322.18 590.898C1322.69 591.74 1322.42 592.839 1321.57 593.355Z" fill="#ABD700"/>
<path d="M33.5798 667.933C25.7338 670.651 17.0908 667.11 13.4072 659.669C16.1254 667.515 12.5845 676.158 5.14278 679.841C12.9888 677.123 21.6317 680.664 25.3153 688.106C22.5972 680.26 26.1381 671.617 33.5798 667.933Z" fill="#FBFBFB"/>
<path d="M333.909 457.315C334.117 465.616 328.119 472.776 319.91 474.026C328.211 473.818 335.37 479.816 336.62 488.025C336.413 479.724 342.411 472.565 350.62 471.315C342.319 471.522 335.159 465.524 333.909 457.315Z" fill="#FBFBFB"/>
<path d="M324.043 100.924C324.25 109.225 318.252 116.385 310.043 117.635C318.344 117.427 325.504 123.425 326.754 131.634C326.547 123.333 332.545 116.174 340.754 114.924C332.453 115.131 325.293 109.133 324.043 100.924Z" fill="#FBFBFB"/>
<path d="M479.425 498.01C479.632 506.311 473.634 513.471 465.425 514.721C473.726 514.513 480.886 520.511 482.136 528.72C481.928 520.419 487.927 513.26 496.136 512.01C487.835 512.217 480.675 506.219 479.425 498.01Z" fill="#FBFBFB"/>
<path d="M39.7212 363.431C42.3041 371.323 38.6153 379.904 31.1113 383.459C39.0029 380.876 47.5837 384.565 51.1389 392.069C48.5559 384.177 52.2449 375.597 59.7488 372.041C51.8573 374.624 43.2763 370.935 39.7212 363.431Z" fill="#FBFBFB"/>
<path d="M127.891 215.134C123.894 222.412 115.108 225.581 107.385 222.531C114.663 226.528 117.832 235.314 114.782 243.037C118.779 235.759 127.565 232.59 135.288 235.64C128.01 231.643 124.841 222.857 127.891 215.134Z" fill="#FBFBFB"/>
<path opacity="0.2" fill-rule="evenodd" clip-rule="evenodd" d="M404.037 112.65C403.826 113.293 403.605 113.877 403.387 114.399C406.45 113.125 408.897 110.81 410.372 107.961C408.985 107.47 407.237 107.015 405.198 106.815C405.023 109.08 404.563 111.048 404.037 112.65ZM401.401 111.785C401.858 110.393 402.261 108.684 402.422 106.715C401.339 106.742 400.196 106.849 399.001 107.057C397.806 107.266 396.695 107.553 395.667 107.894C396.486 109.692 397.445 111.164 398.346 112.318C399.069 113.244 399.754 113.965 400.298 114.484C400.634 113.811 401.035 112.901 401.401 111.785ZM402.147 100.875C402.333 101.939 402.438 102.962 402.478 103.938C401.228 103.964 399.907 104.083 398.524 104.324C397.142 104.565 395.859 104.901 394.674 105.3C394.381 104.368 394.133 103.371 393.947 102.306C393.761 101.242 393.657 100.22 393.616 99.2436C394.867 99.2178 396.187 99.0987 397.57 98.8574C398.952 98.6161 400.235 98.2805 401.421 97.8811C401.713 98.8128 401.961 99.8106 402.147 100.875ZM404.004 96.8493C404.36 97.9496 404.659 99.132 404.88 100.398C405.101 101.663 405.22 102.878 405.258 104.033C407.687 104.251 409.762 104.794 411.396 105.38C411.951 103.433 412.085 101.333 411.714 99.2048C411.342 97.0764 410.504 95.1468 409.323 93.5024C407.984 94.607 406.216 95.8211 404.004 96.8493ZM400.427 95.2874C399.399 95.6284 398.288 95.9154 397.093 96.1241C395.898 96.3327 394.755 96.4391 393.672 96.4667C393.834 94.4971 394.237 92.7882 394.693 91.3964C395.06 90.2804 395.46 89.3705 395.796 88.6973C396.341 89.2167 397.026 89.9372 397.748 90.863C398.65 92.0177 399.608 93.489 400.427 95.2874ZM390.836 99.1483C390.874 100.304 390.993 101.518 391.214 102.784C391.435 104.049 391.735 105.232 392.09 106.332C389.879 107.36 388.11 108.574 386.772 109.679C385.59 108.034 384.752 106.105 384.38 103.977C384.009 101.848 384.144 99.7488 384.698 97.8015C386.332 98.3872 388.407 98.9303 390.836 99.1483ZM385.722 95.2208C387.11 95.7118 388.857 96.1668 390.897 96.367C391.071 94.1015 391.531 92.1334 392.057 90.5312C392.268 89.8887 392.49 89.3045 392.708 88.7827C389.644 90.0565 387.197 92.3711 385.722 95.2208ZM403.005 94.2531C404.856 93.3736 406.345 92.3536 407.485 91.4213C405.131 89.2402 402.045 87.8917 398.731 87.7312C399.113 88.1481 399.519 88.6227 399.935 89.1557C400.973 90.485 402.073 92.1807 403.005 94.2531ZM393.089 108.928C394.021 111.001 395.121 112.696 396.159 114.026C396.575 114.559 396.981 115.033 397.363 115.45C394.049 115.29 390.963 113.941 388.609 111.76C389.749 110.828 391.238 109.808 393.089 108.928ZM400.91 117.991C391.853 119.572 383.228 113.511 381.647 104.454C380.066 95.3964 386.127 86.772 395.184 85.1907C404.241 83.6095 412.866 89.6702 414.447 98.7276C416.028 107.785 409.968 116.409 400.91 117.991Z" fill="#EB6B6B"/>
<path d="M466.687 257.743L466.192 249.208L482.09 238.798L484.427 277.366L477.615 273.943L476.958 263.092L472.162 266.266L471.742 258.842L476.511 255.722L476.25 251.413L466.685 257.742L466.687 257.743ZM500.609 247.121L483.571 238.708L485.907 277.277L492.256 273.056L490.891 250.526L501.151 255.654L500.609 247.121Z" fill="#ECCD2A" fill-opacity="0.2"/>
<path d="M284.803 616.606L293.142 614.722L306.011 628.705L268.343 637.314L270.607 630.034L281.205 627.612L277.29 623.4L284.544 621.773L288.403 625.967L292.61 625.006L284.803 616.603L284.803 616.606ZM300.826 648.336L306.341 630.151L268.673 638.76L273.875 644.334L295.878 639.305L292.497 650.264L300.826 648.336Z" fill="#ECCD2A" fill-opacity="0.2"/>
<path d="M164.997 478.412L166.987 470.097L185.213 464.72L176.316 502.321L170.783 497.077L173.286 486.498L167.779 488.153L169.519 480.924L174.986 479.313L175.98 475.113L164.994 478.41L164.997 478.412ZM200.541 478.035L186.656 465.062L177.759 502.663L185.056 500.454L190.253 478.49L198.596 486.361L200.541 478.035Z" fill="#ECCD2A" fill-opacity="0.2"/>
<path opacity="0.2" d="M224.381 127.512L220.531 124.858C218.374 123.377 218.176 122.215 219.572 120.167L225.096 112.004C226.255 110.295 228.413 110.083 229.883 111.533L236.891 118.464C238.659 120.2 238.78 121.429 236.864 123.251L233.605 126.604M227.46 111.358L227.945 116.292M229.071 96.3127C236.984 96.4204 243.685 102.121 244.439 109.786M210.54 113.12C209.788 105.475 215.21 98.6015 222.906 96.9191M232.231 133.296L227.054 133.805C225.082 133.999 223.678 132.798 223.888 131.143L224.384 127.531L233.629 126.621L234.818 130.068C235.337 131.553 234.08 133.114 232.231 133.296ZM225.237 99.5258L227.292 99.3238C228.422 99.2126 229.26 98.2441 229.155 97.1715L228.963 95.2213C228.857 94.1487 227.846 93.362 226.716 93.4731L224.662 93.6752C223.532 93.7864 222.694 94.7549 222.799 95.8275L222.991 97.7777C223.097 98.8503 224.108 99.637 225.237 99.5258ZM246 115.54L243.945 115.742C242.815 115.853 241.804 115.066 241.699 113.994L241.507 112.043C241.402 110.971 242.24 110.002 243.37 109.891L245.424 109.689C246.554 109.578 247.565 110.365 247.67 111.437L247.862 113.387C247.968 114.46 247.13 115.429 246 115.54ZM210.129 119.068L212.184 118.866C213.314 118.754 214.152 117.786 214.046 116.713L213.855 114.763C213.749 113.691 212.738 112.904 211.608 113.015L209.554 113.217C208.424 113.328 207.586 114.297 207.691 115.369L207.883 117.32C207.989 118.392 209 119.179 210.129 119.068Z" stroke="#6B83FF" stroke-width="2" stroke-linecap="round" stroke-linejoin="round"/>
<path opacity="0.2" d="M218.215 371.683L214.365 369.029C212.208 367.548 212.01 366.386 213.406 364.338L218.93 356.175C220.089 354.466 222.246 354.254 223.717 355.704L230.725 362.635C232.493 364.371 232.614 365.599 230.698 367.422L227.439 370.775M221.294 355.529L221.779 360.463M222.905 340.484C230.818 340.591 237.519 346.292 238.273 353.956M204.374 357.291C203.622 349.646 209.044 342.772 216.74 341.09M226.065 377.467L220.888 377.976C218.916 378.17 217.512 376.969 217.722 375.314L218.218 371.702L227.462 370.792L228.652 374.239C229.171 375.724 227.914 377.285 226.065 377.467ZM219.071 343.697L221.126 343.495C222.256 343.384 223.094 342.415 222.989 341.342L222.797 339.392C222.691 338.32 221.68 337.533 220.55 337.644L218.496 337.846C217.366 337.957 216.528 338.926 216.633 339.998L216.825 341.949C216.931 343.021 217.942 343.808 219.071 343.697ZM239.834 359.711L237.779 359.913C236.649 360.024 235.638 359.237 235.533 358.165L235.341 356.214C235.236 355.142 236.074 354.173 237.204 354.062L239.258 353.86C240.388 353.749 241.399 354.535 241.504 355.608L241.696 357.558C241.802 358.631 240.964 359.599 239.834 359.711ZM203.963 363.239L206.018 363.037C207.148 362.925 207.986 361.957 207.88 360.884L207.689 358.934C207.583 357.861 206.572 357.075 205.442 357.186L203.388 357.388C202.258 357.499 201.42 358.468 201.525 359.54L201.717 361.49C201.823 362.563 202.833 363.35 203.963 363.239Z" stroke="#6B83FF" stroke-width="2" stroke-linecap="round" stroke-linejoin="round"/>
<path opacity="0.2" d="M117.898 51.0415L121.304 47.8384C123.207 46.0416 124.385 46.094 126.091 47.8903L132.906 55.0118C134.332 56.5057 134.084 58.659 132.356 59.7902L124.103 65.1787C122.033 66.5407 120.807 66.3997 119.429 64.1425L116.839 60.2497M133.039 57.4589L128.113 56.8925M147.405 62.2073C145.631 69.9202 138.645 75.2675 130.994 74.3875M134.886 40.5477C142.517 41.4254 148.092 48.1758 148.113 56.0537M110.588 57.495L111.182 52.3269C111.409 50.3581 112.879 49.2389 114.452 49.7939L117.879 51.0399L116.817 60.2687L113.197 60.7043C111.636 60.8988 110.375 59.3408 110.588 57.495ZM145.073 57.7825L144.837 59.8333C144.708 60.9613 145.478 61.9849 146.548 62.108L148.495 62.3319C149.566 62.4551 150.548 61.633 150.678 60.505L150.914 58.4542C151.043 57.3262 150.273 56.3026 149.203 56.1795L147.256 55.9556C146.185 55.8324 145.203 56.6545 145.073 57.7825ZM125.04 74.6992L125.276 72.6484C125.405 71.5204 126.388 70.6983 127.458 70.8214L129.405 71.0453C130.476 71.1685 131.246 72.1921 131.116 73.3201L130.88 75.3709C130.751 76.4989 129.768 77.321 128.698 77.1978L126.751 76.9739C125.68 76.8508 124.91 75.8271 125.04 74.6992ZM129.158 38.892L128.922 40.9428C128.793 42.0707 129.563 43.0944 130.633 43.2175L132.58 43.4414C133.651 43.5646 134.633 42.7425 134.763 41.6145L134.999 39.5637C135.129 38.4357 134.359 37.4121 133.288 37.2889L131.341 37.065C130.27 36.9419 129.288 37.764 129.158 38.892Z" stroke="#6B83FF" stroke-width="2" stroke-linecap="round" stroke-linejoin="round"/>
<path opacity="0.2" d="M450.876 607.941L457.666 622.791L442.799 629.542M437.882 603.082L423.014 609.833L429.804 624.683" stroke="#BA75DA" stroke-width="2.5" stroke-linecap="round" stroke-linejoin="round"/>
<path opacity="0.2" d="M474.765 408.15L468.23 423.114L453.283 416.54M469.717 395.227L454.77 388.653L448.236 403.617" stroke="#BA75DA" stroke-width="2.5" stroke-linecap="round" stroke-linejoin="round"/>
<path opacity="0.2" d="M479.219 35.9225L493.319 44.1566L485.049 58.2357M465.796 39.4295L457.525 53.5087L471.626 61.7427" stroke="#BA75DA" stroke-width="2.5" stroke-linecap="round" stroke-linejoin="round"/>
<path opacity="0.2" fill-rule="evenodd" clip-rule="evenodd" d="M171.881 689.121C171.342 689.529 170.827 689.884 170.351 690.188C173.595 690.884 176.924 690.372 179.759 688.868C178.897 687.675 177.719 686.307 176.155 684.982C174.723 686.746 173.225 688.102 171.881 689.121ZM170.205 686.909C171.372 686.025 172.676 684.849 173.929 683.321C173.023 682.727 172.023 682.165 170.921 681.656C169.819 681.148 168.742 680.752 167.703 680.447C167.354 682.393 167.305 684.148 167.389 685.61C167.457 686.783 167.61 687.765 167.762 688.502C168.422 688.139 169.269 687.619 170.205 686.909ZM177.025 678.361C176.573 679.342 176.077 680.243 175.555 681.069C174.512 680.378 173.358 679.725 172.083 679.137C170.809 678.549 169.563 678.095 168.362 677.749C168.651 676.816 169.014 675.855 169.467 674.874C169.92 673.893 170.416 672.992 170.938 672.167C171.98 672.857 173.135 673.51 174.409 674.098C175.683 674.686 176.929 675.14 178.131 675.486C177.842 676.419 177.478 677.38 177.025 678.361ZM180.843 676.107C180.509 677.214 180.083 678.357 179.545 679.524C179.006 680.691 178.413 681.757 177.787 682.729C179.661 684.29 181.058 685.917 182.069 687.328C183.632 686.042 184.938 684.392 185.843 682.43C186.748 680.469 187.157 678.405 187.121 676.38C185.392 676.527 183.247 676.52 180.843 676.107ZM178.79 672.788C177.75 672.483 176.673 672.087 175.571 671.579C174.47 671.07 173.47 670.508 172.563 669.915C173.817 668.387 175.12 667.21 176.288 666.326C177.224 665.616 178.071 665.096 178.73 664.733C178.883 665.47 179.036 666.452 179.103 667.625C179.188 669.087 179.139 670.843 178.79 672.788ZM168.705 670.507C168.079 671.479 167.486 672.545 166.948 673.711C166.409 674.878 165.984 676.021 165.65 677.128C163.246 676.715 161.101 676.708 159.372 676.855C159.336 674.83 159.744 672.766 160.649 670.805C161.555 668.843 162.86 667.193 164.424 665.907C165.434 667.318 166.831 668.945 168.705 670.507ZM166.734 664.367C167.596 665.56 168.774 666.928 170.337 668.253C171.77 666.49 173.268 665.133 174.612 664.114C175.151 663.706 175.665 663.352 176.142 663.047C172.898 662.351 169.568 662.863 166.734 664.367ZM181.498 673.403C183.521 673.733 185.326 673.742 186.793 673.623C186.099 670.491 184.327 667.626 181.694 665.609C181.77 666.169 181.835 666.79 181.874 667.465C181.971 669.149 181.911 671.169 181.498 673.403ZM164.995 679.831C164.582 682.066 164.522 684.086 164.619 685.77C164.658 686.445 164.722 687.066 164.799 687.627C162.165 685.609 160.394 682.744 159.699 679.611C161.166 679.493 162.972 679.502 164.995 679.831ZM166.271 691.734C157.922 687.881 154.278 677.991 158.13 669.642C161.982 661.294 171.873 657.649 180.222 661.501C188.57 665.354 192.215 675.245 188.362 683.593C184.51 691.941 174.619 695.586 166.271 691.734Z" fill="#EB6B6B"/>
<path opacity="0.2" fill-rule="evenodd" clip-rule="evenodd" d="M334.661 348.761C334.122 349.17 333.607 349.524 333.131 349.829C336.375 350.524 339.704 350.013 342.539 348.509C341.677 347.316 340.499 345.947 338.935 344.622C337.503 346.386 336.005 347.743 334.661 348.761ZM332.985 346.55C334.152 345.665 335.456 344.489 336.709 342.961C335.803 342.368 334.803 341.805 333.701 341.297C332.6 340.789 331.523 340.393 330.483 340.088C330.134 342.033 330.085 343.788 330.169 345.251C330.237 346.423 330.39 347.405 330.542 348.142C331.202 347.78 332.049 347.259 332.985 346.55ZM339.806 338.002C339.353 338.983 338.857 339.884 338.335 340.709C337.292 340.019 336.138 339.365 334.864 338.777C333.59 338.189 332.344 337.735 331.142 337.39C331.431 336.457 331.795 335.495 332.247 334.514C332.7 333.533 333.196 332.633 333.718 331.807C334.761 332.497 335.915 333.151 337.189 333.739C338.463 334.327 339.709 334.781 340.911 335.127C340.622 336.059 340.258 337.021 339.806 338.002ZM343.623 335.748C343.289 336.855 342.863 337.998 342.325 339.165C341.787 340.331 341.193 341.397 340.567 342.369C342.441 343.931 343.839 345.558 344.849 346.969C346.413 345.683 347.718 344.033 348.623 342.071C349.529 340.109 349.937 338.045 349.901 336.021C348.172 336.168 346.027 336.16 343.623 335.748ZM341.57 332.428C340.53 332.124 339.453 331.728 338.351 331.219C337.25 330.711 336.25 330.149 335.344 329.555C336.597 328.027 337.901 326.851 339.068 325.966C340.004 325.257 340.851 324.736 341.511 324.374C341.663 325.111 341.816 326.093 341.884 327.266C341.968 328.728 341.919 330.483 341.57 332.428ZM331.486 330.147C330.86 331.119 330.266 332.185 329.728 333.352C329.19 334.518 328.764 335.661 328.43 336.768C326.026 336.356 323.881 336.348 322.152 336.495C322.116 334.471 322.525 332.407 323.43 330.445C324.335 328.484 325.64 326.834 327.204 325.547C328.214 326.959 329.612 328.586 331.486 330.147ZM329.514 324.008C330.376 325.201 331.554 326.569 333.118 327.894C334.55 326.13 336.048 324.773 337.392 323.755C337.931 323.347 338.446 322.992 338.922 322.687C335.678 321.992 332.349 322.503 329.514 324.008ZM344.278 333.044C346.301 333.374 348.106 333.383 349.574 333.264C348.879 330.131 347.108 327.266 344.474 325.249C344.551 325.809 344.615 326.431 344.654 327.106C344.751 328.789 344.691 330.81 344.278 333.044ZM327.775 339.472C327.362 341.707 327.302 343.727 327.399 345.41C327.438 346.085 327.502 346.707 327.579 347.267C324.945 345.25 323.174 342.385 322.479 339.252C323.947 339.134 325.752 339.142 327.775 339.472ZM329.051 351.374C320.703 347.522 317.058 337.631 320.91 329.283C324.763 320.934 334.653 317.289 343.002 321.142C351.35 324.994 354.995 334.885 351.143 343.234C347.29 351.582 337.399 355.227 329.051 351.374Z" fill="#EB6B6B"/>
<path opacity="0.2" d="M297.107 212.001L302.133 206.93C302.219 206.841 302.333 206.772 302.466 206.736C302.861 206.63 303.268 206.866 303.375 207.265C303.446 207.531 303.367 207.801 303.188 207.983L303.186 207.985L298.096 213.119C299.996 215.42 301.518 218.3 302.387 221.532C303.255 224.763 303.382 228.018 302.874 231.113L302.892 230.962L309.871 232.851C310.12 232.92 310.326 233.115 310.398 233.381C310.505 233.779 310.272 234.188 309.876 234.294C309.744 234.33 309.611 234.327 309.488 234.293L309.492 234.293L302.6 232.426C300.938 239.26 296.072 244.964 289.267 247.4L289.196 247.423L277.992 205.741C285.174 204.422 292.245 206.917 297.028 211.906L297.109 211.997L297.107 212.001ZM292.061 234.596C292.319 235.555 293.298 236.124 294.249 235.869C295.2 235.613 295.762 234.629 295.504 233.67C295.247 232.711 294.267 232.141 293.316 232.397C292.367 232.654 291.805 233.636 292.061 234.596ZM286.904 215.411C287.162 216.37 288.141 216.939 289.092 216.684C290.044 216.428 290.605 215.444 290.348 214.485C290.09 213.526 289.11 212.956 288.159 213.212C287.21 213.469 286.648 214.451 286.904 215.411Z" fill="#ABD700"/>
<path opacity="0.2" d="M101.042 126.361L99.8921 119.314C99.8707 119.193 99.8816 119.059 99.9306 118.931C100.077 118.549 100.507 118.359 100.893 118.506C101.15 118.605 101.322 118.828 101.364 119.079L101.364 119.083L102.529 126.217C105.507 126.032 108.732 126.492 111.857 127.687C114.982 128.883 117.691 130.692 119.896 132.922L119.785 132.818L125.414 128.281C125.616 128.12 125.895 128.068 126.152 128.166C126.538 128.314 126.731 128.742 126.585 129.125C126.536 129.253 126.455 129.358 126.356 129.438L126.358 129.436L120.798 133.915C125.352 139.275 127.109 146.564 125.082 153.502L125.06 153.573L84.7474 138.151C87.899 131.564 94.0725 127.309 100.919 126.369L101.041 126.357L101.042 126.361ZM116.363 143.718C117.29 144.073 118.326 143.615 118.678 142.696C119.03 141.776 118.564 140.743 117.636 140.388C116.709 140.033 115.673 140.491 115.321 141.411C114.971 142.33 115.436 143.362 116.363 143.718ZM97.8078 136.62C98.7353 136.975 99.7718 136.517 100.124 135.597C100.476 134.678 100.009 133.645 99.0818 133.29C98.1543 132.935 97.1179 133.393 96.766 134.313C96.4159 135.232 96.8809 136.264 97.8078 136.62Z" fill="#ABD700"/>
<path opacity="0.2" d="M51.8487 583.841L51.9792 576.702C51.9798 576.579 52.0145 576.45 52.0856 576.332C52.2981 575.982 52.7554 575.872 53.1085 576.087C53.3434 576.229 53.4726 576.48 53.4693 576.735L53.4691 576.738L53.3367 583.966C56.3004 584.317 59.3904 585.347 62.2508 587.083C65.1113 588.819 67.4519 591.084 69.2224 593.673L69.1314 593.551L75.4825 590.096C75.71 589.973 75.9937 589.972 76.2287 590.114C76.5818 590.329 76.6954 590.785 76.4829 591.135C76.4118 591.252 76.3139 591.342 76.2015 591.402L76.2042 591.4L69.932 594.812C73.4523 600.9 73.8752 608.386 70.6384 614.849L70.6036 614.914L33.7054 592.522C37.9858 586.606 44.8217 583.525 51.726 583.826L51.8477 583.837L51.8487 583.841ZM63.812 603.662C64.6609 604.177 65.7626 603.912 66.2736 603.07C66.7845 602.228 66.5108 601.129 65.6618 600.614C64.8129 600.098 63.7112 600.363 63.2003 601.205C62.6913 602.047 62.9638 603.145 63.812 603.662ZM46.8288 593.355C47.6777 593.87 48.7794 593.605 49.2904 592.763C49.8014 591.921 49.5276 590.822 48.6787 590.307C47.8297 589.792 46.728 590.056 46.2171 590.898C45.7081 591.74 45.9806 592.839 46.8288 593.355Z" fill="#ABD700"/>
</svg>
