<svg xmlns="http://www.w3.org/2000/svg" width="56" height="27" viewBox="0 0 56 27" fill="none">
  <path d="M13.2153 13.4799L22.2288 8.27889C23.2479 7.69067 23.9916 6.7217 24.2962 5.58518C24.6008 4.44867 24.4415 3.23769 23.8533 2.21863C23.2651 1.19958 22.2962 0.455939 21.1596 0.151292C20.0231 -0.153354 18.8121 0.00595856 17.7931 0.594178L2.21289 9.58945L13.2153 13.4799Z" fill="#EA4335"/>
  <path d="M20.0067 26.8559C20.9831 26.8564 21.9324 26.5347 22.7073 25.9407C23.4823 25.3467 24.0395 24.5136 24.2928 23.5706C24.546 22.6277 24.4811 21.6275 24.1079 20.7252C23.7348 19.8228 23.0744 19.0689 22.2292 18.5801L6.64897 9.58943C6.14469 9.29847 5.58804 9.10968 5.0108 9.03385C4.43356 8.95803 3.84704 8.99665 3.28472 9.14749C2.7224 9.29834 2.19529 9.55844 1.7335 9.913C1.27171 10.2676 0.884279 10.7096 0.593323 11.2139C0.302367 11.7182 0.113592 12.2748 0.0377647 12.8521C-0.0380626 13.4293 0.000542477 14.0158 0.151388 14.5781C0.302233 15.1405 0.562369 15.6676 0.916922 16.1294C1.27148 16.5912 1.71351 16.9786 2.21779 17.2695L17.798 26.2602C18.4693 26.6489 19.231 26.8543 20.0067 26.8559Z" fill="#4285F4"/>
  <path d="M35.4815 26.8562C36.2589 26.8561 37.0224 26.6506 37.6948 26.2605L53.275 17.2698L42.4193 13.2969L33.2545 18.5804C32.4089 19.0693 31.7483 19.8237 31.3753 20.7265C31.0022 21.6292 30.9376 22.6299 31.1914 23.5731C31.4453 24.5164 32.0034 25.3495 32.7791 25.9431C33.5548 26.5367 34.5047 26.8577 35.4815 26.8562Z" fill="#FBBC04"/>
  <path d="M51.061 17.8653C52.0374 17.8657 52.9866 17.544 53.7616 16.95C54.5365 16.356 55.0938 15.5229 55.347 14.58C55.6003 13.637 55.5353 12.6368 55.1622 11.7345C54.7891 10.8322 54.1287 10.0782 53.2834 9.58945L37.7032 0.594178C36.6842 0.00595868 35.4732 -0.153354 34.3367 0.151292C33.2002 0.455939 32.2312 1.19958 31.643 2.21863C31.0548 3.23769 30.8955 4.44867 31.2001 5.58518C31.5048 6.7217 32.2484 7.69067 33.2675 8.27889L48.8477 17.2696C49.5201 17.6596 50.2836 17.8651 51.061 17.8653Z" fill="#34A853"/>
</svg>