<svg width="36" height="36" viewBox="0 0 36 36" fill="none" xmlns="http://www.w3.org/2000/svg">
<g id="add">
<mask id="mask0_414_191" style="mask-type:alpha" maskUnits="userSpaceOnUse" x="0" y="0" width="36" height="36">
<rect id="Bounding box" width="36" height="36" fill="#D9D9D9"/>
</mask>
<g mask="url(#mask0_414_191)">
<path id="add_2" d="M16.5 19.4999H9C8.575 19.4999 8.21875 19.3562 7.93125 19.0687C7.64375 18.7812 7.5 18.4249 7.5 17.9999C7.5 17.5749 7.64375 17.2187 7.93125 16.9312C8.21875 16.6437 8.575 16.4999 9 16.4999H16.5V8.99993C16.5 8.57493 16.6438 8.21868 16.9312 7.93118C17.2188 7.64368 17.575 7.49993 18 7.49993C18.425 7.49993 18.7812 7.64368 19.0688 7.93118C19.3562 8.21868 19.5 8.57493 19.5 8.99993V16.4999H27C27.425 16.4999 27.7812 16.6437 28.0688 16.9312C28.3563 17.2187 28.5 17.5749 28.5 17.9999C28.5 18.4249 28.3563 18.7812 28.0688 19.0687C27.7812 19.3562 27.425 19.4999 27 19.4999H19.5V26.9999C19.5 27.4249 19.3562 27.7812 19.0688 28.0687C18.7812 28.3562 18.425 28.4999 18 28.4999C17.575 28.4999 17.2188 28.3562 16.9312 28.0687C16.6438 27.7812 16.5 27.4249 16.5 26.9999V19.4999Z" fill="#2F3B00"/>
</g>
</g>
</svg>
