<svg xmlns="http://www.w3.org/2000/svg" width="602" height="602" viewBox="0 0 602 602" fill="none">
  <path opacity="0.2" fill-rule="evenodd" clip-rule="evenodd" d="M301 0H602V301V602C596.389 602 590.813 601.846 585.278 601.543C432.354 593.17 309.83 470.646 301.457 317.722C301.154 312.187 301 306.611 301 301H0C166.238 301 301 435.762 301 602H0V301V0C5.61127 0 11.1866 0.153543 16.7222 0.456642C169.646 8.83038 292.17 131.354 300.543 284.278C300.846 289.813 301 295.389 301 301H602C435.762 301 301 166.238 301 0ZM16.7222 284.278H283.794C275.459 140.592 160.408 25.5406 16.7222 17.2059V284.278ZM585.278 317.722H318.206C326.541 461.408 441.592 576.459 585.278 584.794V317.722Z" fill="url(#paint0_linear_962_2072)"/>
  <defs>
    <linearGradient id="paint0_linear_962_2072" x1="602" y1="602" x2="0" y2="0" gradientUnits="userSpaceOnUse">
      <stop stop-color="#6B83FF"/>
      <stop offset="1" stop-color="#34A853"/>
    </linearGradient>
  </defs>
</svg>