<svg xmlns="http://www.w3.org/2000/svg" width="102" height="57" viewBox="0 0 102 57" fill="none">
  <path d="M75.989 17.2167L84.478 2.63445C84.6276 2.38484 84.716 2.08125 84.716 1.75743C84.716 0.789324 83.927 0.00674748 82.9509 0.00674748C82.3013 0.00674748 81.7333 0.354185 81.4272 0.873655L81.4238 0.8804L72.8295 15.6448C66.4117 12.7203 58.9057 11.0134 50.9983 11.0134C43.0909 11.0134 35.5849 12.7203 28.8338 15.7797L29.1672 15.6448L20.5728 0.877028C20.2633 0.350811 19.6919 0 19.0423 0C18.0662 0 17.2772 0.782578 17.2772 1.75068C17.2772 2.07451 17.3656 2.37472 17.5187 2.63445L17.5153 2.62771L26.0042 17.21C11.4274 25.1943 1.39442 39.8002 0.0102031 56.8246L0 57H102C100.606 39.8002 90.5726 25.1943 76.2543 17.3381L75.9958 17.21L75.989 17.2167ZM27.5177 42.5931C25.171 42.5931 23.2698 40.7075 23.2698 38.38C23.2698 36.0525 25.171 34.1669 27.5177 34.1669C29.8644 34.1669 31.7655 36.0525 31.7655 38.38C31.7621 40.7042 29.8644 42.5898 27.5177 42.5931ZM74.4653 42.5931C72.1186 42.5931 70.2175 40.7075 70.2175 38.38C70.2175 36.0525 72.1186 34.1669 74.4653 34.1669C76.812 34.1669 78.7132 36.0525 78.7132 38.38C78.7098 40.7042 76.812 42.5898 74.4653 42.5931Z" fill="#ABD700"/>
</svg>