<svg width="300" height="301" viewBox="0 0 300 301" fill="none" xmlns="http://www.w3.org/2000/svg">
<g clip-path="url(#clip0_87_456)">
<mask id="mask0_87_456" style="mask-type:luminance" maskUnits="userSpaceOnUse" x="0" y="0" width="300" height="301">
<path d="M300 0.5H0V300.5H300V0.5Z" fill="white"/>
</mask>
<g mask="url(#mask0_87_456)">
<path d="M140.52 8.23208C146.039 3.73091 153.962 3.73091 159.48 8.23208L171.38 17.9374C175.125 20.9911 180.111 22.0543 184.775 20.7935L199.559 16.7977C206.424 14.9421 213.648 18.1624 216.858 24.5086L223.844 38.323C226.019 42.622 230.124 45.6151 234.882 46.3688L250.076 48.7759C257.076 49.885 262.346 55.7434 262.709 62.8223L263.508 78.4075C263.754 83.1994 266.279 87.5846 270.299 90.2048L283.298 98.6779C289.217 102.537 291.641 110.005 289.115 116.605L283.523 131.22C281.811 135.691 282.338 140.71 284.937 144.729L293.427 157.848C297.263 163.778 296.444 171.579 291.459 176.583L280.464 187.622C277.083 191.016 275.526 195.821 276.276 200.553L278.723 216.002C279.828 222.99 275.9 229.802 269.297 232.346L254.882 237.896C250.395 239.624 247.008 243.396 245.774 248.043L241.782 263.07C239.96 269.934 233.574 274.578 226.484 274.199L211.17 273.38C206.351 273.122 201.702 275.198 198.678 278.958L189.021 290.97C184.56 296.519 176.814 298.167 170.48 294.915L156.851 287.918C152.55 285.711 147.45 285.711 143.15 287.918L129.52 294.915C123.187 298.167 115.44 296.519 110.979 290.97L101.322 278.958C98.2982 275.198 93.6496 273.122 88.8305 273.38L73.5167 274.199C66.4261 274.578 60.0407 269.934 58.2179 263.07L54.2261 248.043C52.9919 243.396 49.6054 239.624 45.1189 237.896L30.7037 232.346C24.1 229.802 20.1716 222.99 21.2783 216.002L23.7244 200.553C24.4736 195.821 22.9172 191.016 19.5361 187.622L8.54059 176.583C3.55678 171.579 2.73772 163.778 6.5738 157.848L15.0623 144.729C17.6629 140.71 18.1886 135.691 16.4777 131.22L10.885 116.605C8.35922 110.005 10.7829 102.537 16.7032 98.6779L29.7022 90.2048C33.7219 87.5846 36.2455 83.1994 36.4913 78.4075L37.2911 62.8223C37.6544 55.7434 42.9233 49.885 49.9243 48.7759L65.1178 46.3688C69.8758 45.6151 73.9822 42.622 76.1563 38.323L83.1425 24.5086C86.3519 18.1624 93.5767 14.942 100.442 16.7977L115.225 20.7935C119.89 22.0543 124.876 20.9911 128.62 17.9374L140.52 8.23208Z" fill="#ABD700"/>
</g>
</g>
<path d="M179.399 137.422L189.386 120.125C189.562 119.829 189.666 119.469 189.666 119.085C189.666 117.936 188.738 117.008 187.589 117.008C186.825 117.008 186.157 117.42 185.797 118.036L185.793 118.044L175.682 135.558C168.131 132.089 159.301 130.064 149.998 130.064C140.695 130.064 131.865 132.089 123.922 135.718L124.314 135.558L114.203 118.04C113.839 117.416 113.167 117 112.403 117C111.254 117 110.326 117.928 110.326 119.077C110.326 119.461 110.43 119.817 110.61 120.125L110.606 120.117L120.593 137.414C103.444 146.885 91.6405 164.21 90.012 184.404L90 184.612H210C208.36 164.21 196.556 146.885 179.711 137.566L179.407 137.414L179.399 137.422ZM122.374 167.523C119.613 167.523 117.376 165.287 117.376 162.526C117.376 159.765 119.613 157.528 122.374 157.528C125.135 157.528 127.371 159.765 127.371 162.526C127.367 165.283 125.135 167.519 122.374 167.523ZM177.606 167.523C174.845 167.523 172.609 165.287 172.609 162.526C172.609 159.765 174.845 157.528 177.606 157.528C180.367 157.528 182.604 159.765 182.604 162.526C182.6 165.283 180.367 167.519 177.606 167.523Z" fill="#F5F5F5"/>
<defs>
<clipPath id="clip0_87_456">
<rect width="300" height="300" fill="white" transform="translate(0 0.5)"/>
</clipPath>
</defs>
</svg>
