<svg width="24" height="24" viewBox="0 0 24 24" fill="none" xmlns="http://www.w3.org/2000/svg">
<g id="arrow_circle_right">
<mask id="mask0_1025_2298" style="mask-type:alpha" maskUnits="userSpaceOnUse" x="0" y="0" width="24" height="24">
<rect id="Bounding box" width="24" height="24" fill="#D9D9D9"/>
</mask>
<g mask="url(#mask0_1025_2298)">
<path id="arrow_circle_right_2" d="M13.4115 12.5L11.6462 14.2654C11.5526 14.359 11.509 14.4705 11.5154 14.6C11.5218 14.7295 11.5718 14.841 11.6654 14.9346C11.759 15.0282 11.8748 15.075 12.0128 15.075C12.1509 15.075 12.2645 15.0282 12.3539 14.9346L14.7231 12.5654C14.8846 12.4038 14.9654 12.2154 14.9654 12C14.9654 11.7846 14.8846 11.5962 14.7231 11.4346L12.3346 9.04615C12.241 8.95257 12.1295 8.90578 12 8.90578C11.8705 8.90578 11.759 8.95257 11.6654 9.04615C11.5718 9.13973 11.525 9.25555 11.525 9.3936C11.525 9.53163 11.5718 9.64531 11.6654 9.73463L13.4115 11.5H9C8.85833 11.5 8.73958 11.548 8.64375 11.644C8.54792 11.7399 8.5 11.8588 8.5 12.0007C8.5 12.1425 8.54792 12.2612 8.64375 12.3567C8.73958 12.4522 8.85833 12.5 9 12.5H13.4115ZM12.0034 21C10.7588 21 9.58872 20.7638 8.4931 20.2915C7.39748 19.8192 6.44444 19.1782 5.63397 18.3685C4.82352 17.5588 4.18192 16.6066 3.70915 15.512C3.23638 14.4174 3 13.2479 3 12.0034C3 10.7588 3.23616 9.58872 3.70848 8.4931C4.18081 7.39748 4.82183 6.44444 5.63153 5.63398C6.44123 4.82353 7.39337 4.18192 8.48795 3.70915C9.58255 3.23638 10.7521 3 11.9966 3C13.2412 3 14.4113 3.23616 15.5069 3.70847C16.6025 4.18081 17.5556 4.82182 18.366 5.63152C19.1765 6.44122 19.8181 7.39337 20.2908 8.48795C20.7636 9.58255 21 10.7521 21 11.9966C21 13.2412 20.7638 14.4113 20.2915 15.5069C19.8192 16.6025 19.1782 17.5556 18.3685 18.366C17.5588 19.1765 16.6066 19.8181 15.512 20.2909C14.4174 20.7636 13.2479 21 12.0034 21ZM12 20C14.2333 20 16.125 19.225 17.675 17.675C19.225 16.125 20 14.2333 20 12C20 9.76667 19.225 7.875 17.675 6.325C16.125 4.775 14.2333 4 12 4C9.76667 4 7.875 4.775 6.325 6.325C4.775 7.875 4 9.76667 4 12C4 14.2333 4.775 16.125 6.325 17.675C7.875 19.225 9.76667 20 12 20Z" fill="#353535"/>
</g>
</g>
</svg>
