<svg xmlns="http://www.w3.org/2000/svg" width="42" height="42" viewBox="0 0 42 42" fill="none">
  <mask id="mask0_1120_2005" style="mask-type:alpha" maskUnits="userSpaceOnUse" x="0" y="0" width="42" height="42">
    <rect width="42" height="42" fill="#D9D9D9"/>
  </mask>
  <g mask="url(#mask0_1120_2005)">
    <path d="M26.5695 21L13.0676 7.49809C12.8096 7.24009 12.6823 6.9299 12.6856 6.56753C12.689 6.20519 12.8197 5.89502 13.0777 5.63701C13.3357 5.379 13.6459 5.25 14.0082 5.25C14.3706 5.25 14.6807 5.379 14.9387 5.63701L28.3027 19.011C28.5854 19.2938 28.7918 19.609 28.9219 19.9567C29.0521 20.3045 29.1171 20.6522 29.1171 21C29.1171 21.3478 29.0521 21.6955 28.9219 22.0433C28.7918 22.391 28.5854 22.7062 28.3027 22.989L14.9287 36.363C14.6707 36.621 14.3622 36.7483 14.0032 36.745C13.6442 36.7416 13.3357 36.6109 13.0777 36.3529C12.8197 36.0949 12.6907 35.7847 12.6907 35.4224C12.6907 35.06 12.8197 34.7499 13.0777 34.4918L26.5695 21Z" fill="#353535"/>
  </g>
</svg>