<svg xmlns="http://www.w3.org/2000/svg" width="29" height="28" viewBox="0 0 29 28" fill="none">
  <mask id="mask0_218_1837" style="mask-type:alpha" maskUnits="userSpaceOnUse" x="0" y="0" width="29" height="28">
    <rect x="0.519531" width="28" height="28" fill="#D9D9D9"/>
  </mask>
  <g mask="url(#mask0_218_1837)">
    <path d="M15.459 14.875L13.9041 16.4299C13.7426 16.5914 13.6637 16.7926 13.6674 17.0334C13.6712 17.2742 13.7538 17.4754 13.9153 17.6369C14.0769 17.7984 14.2805 17.8792 14.5263 17.8792C14.7721 17.8792 14.9745 17.7984 15.1336 17.6369L18.0323 14.7382C18.2432 14.5273 18.3486 14.2812 18.3486 14.0001C18.3486 13.7189 18.2432 13.4728 18.0323 13.2619L15.1224 10.352C14.9608 10.1905 14.7597 10.1097 14.5189 10.1097C14.2781 10.1097 14.0769 10.1905 13.9153 10.352C13.7538 10.5135 13.673 10.7172 13.673 10.963C13.673 11.2088 13.7538 11.4112 13.9153 11.5702L15.459 13.1251H11.0189C10.7709 13.1251 10.5631 13.209 10.3954 13.3767C10.2277 13.5445 10.1439 13.7524 10.1439 14.0004C10.1439 14.2485 10.2277 14.4562 10.3954 14.6238C10.5631 14.7913 10.7709 14.875 11.0189 14.875H15.459ZM14.5208 25.0834C12.9879 25.0834 11.547 24.7925 10.1982 24.2107C8.84935 23.6289 7.67605 22.8394 6.6783 21.8421C5.68053 20.8447 4.89062 19.672 4.30859 18.3237C3.72656 16.9755 3.43555 15.5349 3.43555 14.002C3.43555 12.4691 3.72644 11.0282 4.30821 9.67939C4.88999 8.33055 5.67953 7.15725 6.67684 6.1595C7.67416 5.16173 8.84695 4.37183 10.1952 3.7898C11.5434 3.20776 12.984 2.91675 14.5169 2.91675C16.0498 2.91675 17.4907 3.20764 18.8395 3.78942C20.1884 4.37119 21.3617 5.16073 22.3594 6.15804C23.3572 7.15537 24.1471 8.32815 24.7291 9.67639C25.3111 11.0246 25.6022 12.4652 25.6022 13.9981C25.6022 15.531 25.3113 16.9719 24.7295 18.3207C24.1477 19.6696 23.3582 20.8429 22.3609 21.8406C21.3635 22.8384 20.1908 23.6283 18.8425 24.2103C17.4943 24.7923 16.0537 25.0834 14.5208 25.0834ZM14.5189 23.3334C17.1244 23.3334 19.3314 22.4292 21.1397 20.6209C22.948 18.8126 23.8522 16.6056 23.8522 14.0001C23.8522 11.3945 22.948 9.18755 21.1397 7.37922C19.3314 5.57089 17.1244 4.66672 14.5189 4.66672C11.9133 4.66672 9.70635 5.57089 7.89802 7.37922C6.08968 9.18755 5.18552 11.3945 5.18552 14.0001C5.18552 16.6056 6.08968 18.8126 7.89802 20.6209C9.70635 22.4292 11.9133 23.3334 14.5189 23.3334Z" fill="#EB6B6B"/>
  </g>
</svg>