<svg width="164" height="164" viewBox="0 0 164 164" fill="none" xmlns="http://www.w3.org/2000/svg">
<g id="Frame 8766">
<g id="Mask group">
<mask id="mask0_523_1527" style="mask-type:luminance" maskUnits="userSpaceOnUse" x="0" y="0" width="164" height="164">
<g id="Group">
<path id="Vector" d="M164 82C164 36.7126 127.287 0 82 0C36.7126 0 0 36.7126 0 82C0 127.287 36.7126 164 82 164C127.287 164 164 127.287 164 82Z" fill="white"/>
</g>
</mask>
<g mask="url(#mask0_523_1527)">
<g id="Group_2">
<path id="Vector_2" d="M164 0H0V164H164V0Z" fill="#73B06F"/>
<path id="Vector_3" d="M0.854568 43.3568C-36.7421 76.0391 -40.726 133.011 -8.04371 170.608C24.6386 208.205 81.6109 212.189 119.208 179.506C156.804 146.824 160.788 89.8518 128.106 52.2551C95.4236 14.6584 38.4513 10.6745 0.854568 43.3568Z" fill="#405059"/>
<g id="Group_3">
<path id="Vector_4" d="M35.2988 107.936C34.5901 112.411 36.2806 117.078 39.9985 120.91C43.7164 124.743 49.1571 127.427 55.1238 128.372C61.0904 129.317 67.0943 128.446 71.8145 125.95C76.5348 123.453 79.5848 119.537 80.2935 115.062" fill="#F5F5F5"/>
<path id="Vector_5" d="M32.1127 84.3693C32.5063 81.8844 31.3145 79.6306 29.4508 79.3354C27.587 79.0402 25.7571 80.8154 25.3635 83.3004C24.9699 85.7854 26.1617 88.0391 28.0255 88.3343C29.8892 88.6295 31.7191 86.8543 32.1127 84.3693Z" fill="#F5F5F5"/>
<path id="Vector_6" d="M95.1049 94.3464C95.4985 91.8614 94.3067 89.6076 92.443 89.3124C90.5792 89.0173 88.7493 90.7924 88.3557 93.2774C87.9621 95.7624 89.1539 98.0162 91.0177 98.3114C92.8814 98.6066 94.7113 96.8314 95.1049 94.3464Z" fill="#F5F5F5"/>
</g>
</g>
</g>
</g>
</g>
</svg>
