<svg width="30" height="20" viewBox="0 0 30 20" fill="none" xmlns="http://www.w3.org/2000/svg">
<g id="icons">
<path id="behance-[#163]" fill-rule="evenodd" clip-rule="evenodd" d="M19.4691 3.19882H27.1001V1.01355H19.4691V3.19882ZM23.2306 7.58768C21.5283 7.58768 20.2355 8.64229 20.111 10.591H26.2182C25.8043 8.27827 24.7769 7.58768 23.2306 7.58768ZM23.4691 16.6261C25.0409 16.6261 26.1942 15.6332 26.4297 14.7967H29.7353C28.7904 17.822 26.8392 19.521 23.3356 19.521C18.8646 19.521 16.3555 16.3411 16.3555 12.1215C16.3555 2.18454 30.6937 1.82828 29.9738 13.0494H20.111C20.207 15.328 21.1474 16.6261 23.4691 16.6261ZM8.59393 16.1889C10.3982 16.1889 11.6611 15.4949 11.6611 13.6221C11.6611 11.6796 10.5452 10.837 8.67192 10.837H4.15149V16.1889H8.59393ZM8.35546 7.91577C9.85677 7.91577 10.8931 7.21693 10.8931 5.59354C10.8931 3.88343 9.68729 3.35554 8.039 3.35554H4.15149V7.91577H8.35546ZM8.88489 0.0234375C12.441 0.0234375 14.9126 1.19884 14.9126 4.85609C14.9126 6.6669 14.1852 8.01637 12.348 8.92565C14.6997 9.62426 15.8125 11.4586 15.8125 13.8689C15.8125 17.695 12.7784 19.521 9.14886 19.521H0V0.0234375H8.88489Z" fill="#353535"/>
</g>
</svg>
