<svg width="36" height="36" viewBox="0 0 36 36" fill="none" xmlns="http://www.w3.org/2000/svg">
<g id="priority">
<mask id="mask0_414_796" style="mask-type:alpha" maskUnits="userSpaceOnUse" x="0" y="0" width="36" height="36">
<rect id="Bounding box" width="36" height="36" fill="#D9D9D9"/>
</mask>
<g mask="url(#mask0_414_796)">
<path id="priority_2" d="M13.5 31.5C11 31.5 8.875 30.625 7.125 28.875C5.375 27.125 4.5 25 4.5 22.5V13.5C4.5 11 5.375 8.875 7.125 7.125C8.875 5.375 11 4.5 13.5 4.5H22.5C25 4.5 27.125 5.375 28.875 7.125C30.625 8.875 31.5 11 31.5 13.5V22.5C31.5 25 30.625 27.125 28.875 28.875C27.125 30.625 25 31.5 22.5 31.5H13.5ZM16.5 24L25.5 15L23.4 12.9L16.5 19.8L13.2 16.5L11.1 18.6L16.5 24ZM13.5 28.5H22.5C24.15 28.5 25.5625 27.9125 26.7375 26.7375C27.9125 25.5625 28.5 24.15 28.5 22.5V13.5C28.5 11.85 27.9125 10.4375 26.7375 9.2625C25.5625 8.0875 24.15 7.5 22.5 7.5H13.5C11.85 7.5 10.4375 8.0875 9.2625 9.2625C8.0875 10.4375 7.5 11.85 7.5 13.5V22.5C7.5 24.15 8.0875 25.5625 9.2625 26.7375C10.4375 27.9125 11.85 28.5 13.5 28.5Z" fill="#2F3B00"/>
</g>
</g>
</svg>
