<svg xmlns="http://www.w3.org/2000/svg" width="25" height="25" viewBox="0 0 25 25" fill="none">
  <path d="M12.5 14.5763L2.50449 24.5718C2.2317 24.8446 1.88881 24.9842 1.4758 24.9905C1.06283 24.9968 0.713624 24.8573 0.428194 24.5718C0.142731 24.2864 0 23.9403 0 23.5337C0 23.127 0.142731 22.7809 0.428194 22.4955L10.4237 12.5L0.428194 2.50449C0.155374 2.2317 0.0158113 1.88881 0.00950634 1.4758C0.00316856 1.06283 0.142731 0.713624 0.428194 0.428194C0.713624 0.142731 1.05967 0 1.46634 0C1.87301 0 2.21906 0.142731 2.50449 0.428194L12.5 10.4237L22.4955 0.428194C22.7683 0.155374 23.1112 0.0158113 23.5242 0.00950634C23.9372 0.00316856 24.2864 0.142731 24.5718 0.428194C24.8573 0.713624 25 1.05967 25 1.46634C25 1.87301 24.8573 2.21906 24.5718 2.50449L14.5763 12.5L24.5718 22.4955C24.8446 22.7683 24.9842 23.1112 24.9905 23.5242C24.9968 23.9372 24.8573 24.2864 24.5718 24.5718C24.2864 24.8573 23.9403 25 23.5337 25C23.127 25 22.7809 24.8573 22.4955 24.5718L12.5 14.5763Z" fill="#353535"/>
</svg>