<svg width="397" height="49" viewBox="0 0 397 49" fill="none" xmlns="http://www.w3.org/2000/svg">
<path d="M62.173 18.9637C60.8274 18.1984 59.7132 17.0842 58.9479 15.7386C58.1714 14.3515 57.7637 12.7885 57.7637 11.1989C57.7637 9.60932 58.1714 8.04628 58.9479 6.65923C59.714 5.31328 60.828 4.19804 62.173 3.43025C63.53 2.65302 65.069 2.24979 66.6328 2.26173C67.8474 2.25343 69.0523 2.47957 70.1812 2.92777C71.225 3.33611 72.1587 3.98307 72.9077 4.81688L71.4471 6.27363C70.8919 5.58836 70.1743 5.05278 69.3594 4.71561C68.4955 4.3563 67.5684 4.17354 66.6328 4.17809C65.4574 4.17242 64.3005 4.47169 63.2753 5.04668C62.2338 5.62914 61.3665 6.47892 60.763 7.50835C60.1445 8.63238 59.8201 9.89452 59.8201 11.1775C59.8201 12.4604 60.1445 13.7226 60.763 14.8466C61.3601 15.8824 62.2252 16.7382 63.2675 17.3239C64.2917 17.9019 65.449 18.2026 66.625 18.1964C67.5336 18.2415 68.4412 18.091 69.2866 17.755C70.132 17.419 70.8953 16.9054 71.525 16.2488C71.9571 15.7739 72.2978 15.2233 72.5299 14.6246C72.7895 13.9595 72.942 13.2575 72.9817 12.5446H66.6718V10.6556H74.8942C74.9687 11.0656 75.0078 11.4813 75.0111 11.8981C75.0135 12.9428 74.845 13.9809 74.5125 14.9713C74.185 15.9542 73.6375 16.8494 72.9116 17.5887C71.2991 19.2896 69.2035 20.1413 66.625 20.1439C65.0626 20.1526 63.526 19.7452 62.173 18.9637V18.9637Z" fill="#353535"/>
<path d="M79.4904 19.3141C78.5742 18.7709 77.8261 17.9851 77.3286 17.0433C76.8156 16.0492 76.5479 14.9467 76.5479 13.8279C76.5479 12.7092 76.8156 11.6067 77.3286 10.6126C77.8249 9.66999 78.5733 8.88381 79.4904 8.34177C80.4348 7.78907 81.5123 7.5049 82.6064 7.51992C83.7093 7.50407 84.7957 7.78813 85.7497 8.34177C86.6709 8.88227 87.4235 9.66857 87.9232 10.6126C88.4325 11.6079 88.6981 12.7099 88.6981 13.8279C88.6981 14.946 88.4325 16.048 87.9232 17.0433C87.4225 17.9866 86.6702 18.7726 85.7497 19.3141C84.7957 19.8677 83.7093 20.1518 82.6064 20.136C81.5123 20.151 80.4348 19.8668 79.4904 19.3141V19.3141ZM84.628 17.7561C85.2583 17.3817 85.7753 16.8432 86.1236 16.1981C86.4924 15.468 86.6845 14.6615 86.6845 13.8435C86.6845 13.0256 86.4924 12.2191 86.1236 11.489C85.7753 10.8438 85.2583 10.3054 84.628 9.93095C84.0244 9.57073 83.3346 9.38052 82.6317 9.38052C81.9289 9.38052 81.2391 9.57073 80.6355 9.93095C80.0063 10.3056 79.4907 10.8441 79.1437 11.489C78.775 12.2191 78.5829 13.0256 78.5829 13.8435C78.5829 14.6615 78.775 15.468 79.1437 16.1981C79.4907 16.8429 80.0063 17.3814 80.6355 17.7561C81.2391 18.1163 81.9289 18.3065 82.6317 18.3065C83.3346 18.3065 84.0244 18.1163 84.628 17.7561V17.7561Z" fill="#353535"/>
<path d="M93.0412 19.3141C92.1259 18.7698 91.378 17.9842 90.8794 17.0433C90.3664 16.0492 90.0986 14.9467 90.0986 13.8279C90.0986 12.7092 90.3664 11.6067 90.8794 10.6126C91.3769 9.67083 92.125 8.88493 93.0412 8.34177C93.9856 7.78907 95.0631 7.5049 96.1572 7.51992C97.2601 7.50407 98.3465 7.78813 99.3005 8.34177C100.222 8.88227 100.974 9.66857 101.474 10.6126C101.987 11.6067 102.255 12.7092 102.255 13.8279C102.255 14.9467 101.987 16.0492 101.474 17.0433C100.973 17.9866 100.221 18.7726 99.3005 19.3141C98.3465 19.8677 97.2601 20.1518 96.1572 20.136C95.0631 20.151 93.9856 19.8668 93.0412 19.3141V19.3141ZM98.1787 17.7561C98.8091 17.3817 99.326 16.8432 99.6744 16.1981C100.043 15.468 100.235 14.6615 100.235 13.8435C100.235 13.0256 100.043 12.2191 99.6744 11.489C99.326 10.8438 98.8091 10.3054 98.1787 9.93095C97.5752 9.57073 96.8854 9.38052 96.1825 9.38052C95.4796 9.38052 94.7899 9.57073 94.1863 9.93095C93.5571 10.3056 93.0415 10.8441 92.6945 11.489C92.3258 12.2191 92.1337 13.0256 92.1337 13.8435C92.1337 14.6615 92.3258 15.468 92.6945 16.1981C93.0415 16.8429 93.5571 17.3814 94.1863 17.7561C94.7899 18.1163 95.4796 18.3065 96.1825 18.3065C96.8854 18.3065 97.5752 18.1163 98.1787 17.7561V17.7561Z" fill="#353535"/>
<path d="M106.02 24.2729C105.177 23.6792 104.531 22.8461 104.166 21.8813L106.055 21.1023C106.287 21.7935 106.735 22.3917 107.333 22.8083C107.974 23.2557 108.741 23.4864 109.522 23.4666C110.781 23.4666 111.748 23.1018 112.424 22.3721C113.099 21.6424 113.438 20.6219 113.44 19.3106V18.0408H113.343C112.932 18.6759 112.364 19.1948 111.695 19.5482C110.947 19.9532 110.107 20.1584 109.257 20.1441C108.266 20.1473 107.295 19.8647 106.46 19.3301C105.588 18.7733 104.88 17.995 104.408 17.0748C103.903 16.0698 103.64 14.9607 103.64 13.8361C103.64 12.7114 103.903 11.6024 104.408 10.5973C104.88 9.67714 105.588 8.89889 106.46 8.34212C107.294 7.80583 108.266 7.52303 109.257 7.52804C110.107 7.51375 110.947 7.71902 111.695 8.124C112.363 8.47709 112.93 8.99452 113.343 9.62748H113.44V7.90977H115.388V19.2716C115.418 20.4277 115.15 21.572 114.609 22.5941C114.133 23.4679 113.404 24.1768 112.517 24.6273C111.584 25.0824 110.556 25.3106 109.518 25.2934C108.271 25.3472 107.042 24.9885 106.02 24.2729V24.2729ZM111.516 17.7564C112.123 17.3766 112.615 16.8378 112.938 16.1984C113.311 15.4618 113.496 14.6441 113.475 13.8186C113.494 12.9907 113.309 12.1709 112.938 11.4309C112.619 10.7884 112.127 10.2485 111.516 9.87287C110.929 9.51829 110.254 9.33482 109.569 9.34315C108.881 9.33517 108.206 9.52295 107.621 9.88457C107.014 10.2644 106.522 10.8032 106.199 11.4426C105.845 12.1853 105.662 12.9977 105.662 13.8205C105.662 14.6433 105.845 15.4557 106.199 16.1984C106.522 16.8378 107.014 17.3766 107.621 17.7564C108.205 18.1106 108.874 18.2979 109.557 18.2979C110.24 18.2979 110.909 18.1106 111.493 17.7564H111.516Z" fill="#353535"/>
<path d="M118.137 2.6438H120.167V19.7547H118.137V2.6438Z" fill="#353535"/>
<path d="M124.981 19.326C124.084 18.7841 123.352 18.0068 122.866 17.0785C122.342 16.0754 122.074 14.958 122.087 13.8262C122.075 12.7291 122.32 11.6444 122.804 10.6595C123.262 9.72159 123.969 8.92787 124.848 8.36531C125.76 7.79347 126.818 7.49975 127.894 7.52009C128.954 7.49767 130 7.76717 130.917 8.2991C131.784 8.81487 132.479 9.57501 132.915 10.4842C133.392 11.5009 133.63 12.6136 133.608 13.7366C133.614 13.8979 133.597 14.0592 133.558 14.2157H124.159C124.165 15.0116 124.39 15.7903 124.81 16.467C125.176 17.0512 125.692 17.5261 126.305 17.842C126.877 18.1395 127.511 18.2958 128.155 18.2977C129.654 18.2977 130.809 17.5641 131.622 16.097L133.418 16.9578C132.921 17.8953 132.191 18.6894 131.299 19.2636C130.344 19.8243 129.259 20.1251 128.152 20.136C127.045 20.147 125.954 19.8677 124.989 19.326H124.981ZM131.474 12.5135C131.434 12.0133 131.295 11.5259 131.065 11.0801C130.797 10.5723 130.393 10.1498 129.896 9.86102C129.277 9.50365 128.57 9.32939 127.855 9.35854C126.995 9.33765 126.16 9.6455 125.518 10.2194C124.851 10.8173 124.412 11.6281 124.276 12.5135H131.474Z" fill="#353535"/>
<path d="M141.39 2.64371H146.574C148.171 2.606 149.752 2.98024 151.162 3.73042C152.438 4.42404 153.485 5.47435 154.173 6.75298C154.865 8.13308 155.225 9.6555 155.225 11.1992C155.225 12.7429 154.865 14.2653 154.173 15.6454C153.485 16.924 152.438 17.9743 151.162 18.6679C149.752 19.4181 148.171 19.7924 146.574 19.7546H141.39V2.64371ZM146.574 17.8344C148.599 17.8344 150.202 17.2527 151.38 16.0894C152.559 14.9261 153.149 13.3006 153.149 11.2128C153.149 9.12896 152.557 7.50083 151.38 6.3401C150.204 5.17938 148.599 4.59513 146.574 4.59513H143.419V17.8383L146.574 17.8344Z" fill="#353535"/>
<path d="M159.829 19.326C158.929 18.7874 158.197 18.0093 157.714 17.0785C157.186 16.0767 156.918 14.9584 156.935 13.8262C156.925 12.7293 157.17 11.6453 157.652 10.6595C158.113 9.7201 158.825 8.92622 159.708 8.36531C160.62 7.79347 161.678 7.49975 162.754 7.52009C163.814 7.49767 164.86 7.76717 165.777 8.2991C166.643 8.81487 167.338 9.57501 167.775 10.4842C168.252 11.5009 168.489 12.6136 168.468 13.7366C168.48 13.8945 168.469 14.0535 168.433 14.2079H159.003C159.006 15.005 159.23 15.7857 159.65 16.4631C160.014 17.0478 160.529 17.523 161.141 17.8381C161.709 18.135 162.339 18.2926 162.98 18.2977C164.476 18.2977 165.63 17.5641 166.443 16.097L168.234 16.9578C167.748 17.8986 167.024 18.6961 166.135 19.2714C165.181 19.8322 164.097 20.133 162.99 20.1439C161.884 20.1548 160.794 19.8755 159.829 19.3338V19.326ZM166.314 12.5135C166.281 12.0146 166.148 11.5273 165.925 11.0801C165.657 10.572 165.252 10.1495 164.756 9.86102C164.135 9.50452 163.427 9.33035 162.711 9.35854C161.858 9.34261 161.03 9.65013 160.394 10.2194C159.726 10.8173 159.287 11.6281 159.151 12.5135H166.314Z" fill="#353535"/>
<path d="M168.944 7.90186H171.16L174.794 17.3668H174.841L178.522 7.90186H180.672L175.819 19.7545H173.766L168.944 7.90186Z" fill="#353535"/>
<path d="M184.372 19.3259C183.474 18.7851 182.742 18.0076 182.257 17.0785C181.731 16.0761 181.463 14.9582 181.478 13.8261C181.466 12.729 181.711 11.6444 182.195 10.6595C182.65 9.72091 183.357 8.92682 184.236 8.36527C185.149 7.79311 186.209 7.4994 187.286 7.52005C188.346 7.49803 189.391 7.7675 190.308 8.29906C191.174 8.81506 191.868 9.57524 192.302 10.4842C192.782 11.5002 193.019 12.6134 192.996 13.7365C193.009 13.894 193.002 14.0525 192.972 14.2078H183.546C183.553 15.0044 183.776 15.7841 184.193 16.4631C184.557 17.0488 185.074 17.5242 185.689 17.838C186.26 18.136 186.894 18.2923 187.539 18.2937C189.04 18.2937 190.195 17.5602 191.005 16.0931L192.797 16.9538C192.303 17.892 191.574 18.6864 190.682 19.2597C189.727 19.8204 188.643 20.1212 187.535 20.1321C186.428 20.143 185.338 19.8637 184.372 19.322V19.3259ZM190.861 12.5135C190.828 12.0146 190.696 11.5272 190.472 11.0801C190.203 10.5731 189.798 10.1509 189.303 9.86098C188.683 9.50349 187.974 9.32924 187.258 9.3585C186.405 9.34296 185.577 9.65043 184.941 10.2193C184.275 10.8185 183.836 11.6287 183.698 12.5135H190.861Z" fill="#353535"/>
<path d="M195.068 2.64355H197.097V19.7545H195.068V2.64355Z" fill="#353535"/>
<path d="M201.974 19.3141C201.058 18.7698 200.311 17.9842 199.812 17.0433C199.299 16.0492 199.031 14.9467 199.031 13.8279C199.031 12.7092 199.299 11.6067 199.812 10.6126C200.309 9.67083 201.058 8.88493 201.974 8.34177C202.918 7.78907 203.996 7.5049 205.09 7.51992C206.193 7.50407 207.279 7.78813 208.233 8.34177C209.154 8.88227 209.907 9.66857 210.407 10.6126C210.92 11.6067 211.187 12.7092 211.187 13.8279C211.187 14.9467 210.92 16.0492 210.407 17.0433C209.906 17.9866 209.154 18.7726 208.233 19.3141C207.279 19.8677 206.193 20.1518 205.09 20.136C203.996 20.151 202.918 19.8668 201.974 19.3141V19.3141ZM207.111 17.7561C207.743 17.3828 208.26 16.844 208.607 16.1981C208.976 15.468 209.168 14.6615 209.168 13.8435C209.168 13.0256 208.976 12.2191 208.607 11.489C208.26 10.843 207.743 10.3043 207.111 9.93095C206.508 9.57073 205.818 9.38052 205.115 9.38052C204.412 9.38052 203.722 9.57073 203.119 9.93095C202.49 10.3056 201.974 10.8441 201.627 11.489C201.258 12.2191 201.066 13.0256 201.066 13.8435C201.066 14.6615 201.258 15.468 201.627 16.1981C201.974 16.8429 202.49 17.3814 203.119 17.7561C203.722 18.1163 204.412 18.3065 205.115 18.3065C205.818 18.3065 206.508 18.1163 207.111 17.7561V17.7561Z" fill="#353535"/>
<path d="M213.04 7.90206H214.988V9.64316H215.085C215.499 9.00855 216.066 8.48767 216.733 8.12798C217.494 7.71189 218.35 7.5024 219.218 7.52035C220.218 7.51379 221.198 7.79943 222.038 8.3422C222.909 8.90236 223.618 9.68133 224.094 10.6013C224.596 11.603 224.858 12.708 224.858 13.8284C224.858 14.9488 224.596 16.0538 224.094 17.0554C223.616 17.974 222.907 18.7524 222.038 19.3145C221.198 19.8573 220.218 20.1429 219.218 20.1364C218.347 20.1533 217.486 19.944 216.721 19.5288C216.046 19.1651 215.481 18.6271 215.085 17.9707H214.988L215.085 19.6184V24.9001H213.052L213.04 7.90206ZM220.83 17.7487C221.441 17.37 221.937 16.8312 222.264 16.1907C222.62 15.4569 222.805 14.6519 222.805 13.8362C222.805 13.0205 222.62 12.2154 222.264 11.4816C221.937 10.8412 221.441 10.3023 220.83 9.92359C220.246 9.56082 219.571 9.37046 218.883 9.3744C218.196 9.37067 217.522 9.55667 216.935 9.91189C216.323 10.2889 215.826 10.8282 215.502 11.4699C215.148 12.2106 214.964 13.0211 214.964 13.842C214.964 14.6629 215.148 15.4734 215.502 16.2141C215.825 16.8568 216.322 17.3964 216.935 17.7721C217.522 18.1273 218.196 18.3134 218.883 18.3096C219.576 18.3123 220.255 18.1178 220.842 17.7487H220.83Z" fill="#353535"/>
<path d="M229.586 19.3259C228.688 18.7851 227.956 18.0076 227.471 17.0785C226.945 16.0761 226.677 14.9582 226.692 13.8261C226.68 12.729 226.925 11.6444 227.409 10.6595C227.864 9.72091 228.571 8.92682 229.45 8.36527C230.363 7.79311 231.422 7.4994 232.5 7.52005C233.559 7.49803 234.605 7.7675 235.522 8.29906C236.388 8.81506 237.081 9.57524 237.516 10.4842C237.995 11.5002 238.233 12.6134 238.21 13.7365C238.216 13.8976 238.201 14.0589 238.163 14.2156H228.745C228.751 15.0122 228.975 15.7919 229.391 16.4709C229.756 17.0566 230.273 17.532 230.887 17.8458C231.458 18.1438 232.093 18.3001 232.737 18.3015C234.235 18.3015 235.391 17.568 236.204 16.1008L237.995 16.9616C237.501 17.8998 236.773 18.6942 235.88 19.2675C234.926 19.8282 233.841 20.129 232.734 20.1399C231.627 20.1508 230.536 19.8715 229.57 19.3298L229.586 19.3259ZM236.075 12.5135C236.042 12.0146 235.91 11.5272 235.686 11.0801C235.417 10.5731 235.012 10.1509 234.517 9.86098C233.897 9.50349 233.188 9.32924 232.472 9.3585C231.612 9.338 230.777 9.64579 230.135 10.2193C229.47 10.8185 229.031 11.6287 228.893 12.5135H236.075Z" fill="#353535"/>
<path d="M240.285 7.90144H242.233V9.84897H242.326C242.582 9.15715 243.067 8.57412 243.701 8.19747C244.311 7.77957 245.03 7.54815 245.769 7.53141C246.242 7.52716 246.712 7.60762 247.156 7.769V9.92298C246.637 9.66484 246.061 9.54161 245.481 9.56464C244.924 9.56713 244.381 9.73824 243.923 10.0554C243.431 10.3856 243.029 10.8343 242.755 11.3602C242.466 11.9075 242.317 12.5177 242.322 13.1364V19.758H240.293L240.285 7.90144Z" fill="#353535"/>
<path d="M256.045 19.5991C255.199 19.2192 254.449 18.6535 253.852 17.9441C253.254 17.2347 252.824 16.3999 252.594 15.5015L254.541 14.7225C254.78 15.6915 255.304 16.5667 256.045 17.2348C256.744 17.8723 257.658 18.2216 258.604 18.2125C259.512 18.2488 260.405 17.974 261.136 17.4334C261.47 17.178 261.738 16.8456 261.917 16.4646C262.096 16.0836 262.181 15.665 262.164 15.2444C262.172 14.8719 262.099 14.5022 261.948 14.1615C261.797 13.8208 261.573 13.5176 261.291 13.2735C260.441 12.6138 259.472 12.1233 258.436 11.8285L257.361 11.439C256.27 11.077 255.262 10.4995 254.397 9.74073C254.004 9.36742 253.695 8.91342 253.494 8.40987C253.292 7.90631 253.202 7.36509 253.229 6.82332C253.228 6.02119 253.461 5.23617 253.899 4.5642C254.362 3.8595 255.001 3.28764 255.753 2.9049C256.577 2.48329 257.491 2.27063 258.417 2.2856C259.312 2.26575 260.2 2.45373 261.011 2.83479C261.687 3.15206 262.289 3.60712 262.779 4.17079C263.176 4.62694 263.481 5.15616 263.675 5.72881L261.786 6.54289C261.592 5.9066 261.209 5.34431 260.688 4.93033C260.055 4.43515 259.266 4.18481 258.464 4.22533C257.651 4.20409 256.857 4.4657 256.216 4.9654C255.929 5.17902 255.696 5.45694 255.536 5.77688C255.375 6.09683 255.292 6.44989 255.293 6.80775C255.286 7.12289 255.353 7.43531 255.488 7.72003C255.623 8.00476 255.823 8.2539 256.072 8.44757C256.8 8.96571 257.608 9.3605 258.464 9.61609L259.562 10.0056C260.823 10.418 261.984 11.0893 262.97 11.9765C263.388 12.3968 263.713 12.8998 263.925 13.4531C264.137 14.0065 264.231 14.5981 264.201 15.1899C264.234 16.1829 263.935 17.1586 263.352 17.9632C262.804 18.6981 262.064 19.2681 261.213 19.6108C260.363 19.9594 259.453 20.138 258.534 20.1366C257.675 20.1347 256.827 19.9516 256.045 19.5991Z" fill="#353535"/>
<path d="M269.144 19.8943C268.757 19.7455 268.403 19.5218 268.104 19.236C267.789 18.9338 267.548 18.5634 267.399 18.1532C267.238 17.6794 267.161 17.1811 267.173 16.6809V9.73992H265.069V7.90145H267.173V4.36084H269.179V7.90145H272.096V9.73992H269.179V16.194C269.131 16.7288 269.268 17.2639 269.568 17.7092C269.716 17.8936 269.906 18.0393 270.122 18.1337C270.339 18.228 270.575 18.2681 270.811 18.2506C271.265 18.2616 271.713 18.1441 272.104 17.9117V19.8592C271.868 19.9484 271.624 20.0162 271.375 20.0618C271.07 20.1056 270.761 20.1252 270.452 20.1202C270.006 20.1269 269.562 20.0503 269.144 19.8943Z" fill="#353535"/>
<path d="M275.263 18.882C274.484 18.0368 274.126 16.8683 274.126 15.3765V7.90186H276.155V15.022C276.155 17.2084 277.136 18.3003 279.096 18.2977C279.725 18.3054 280.34 18.1131 280.853 17.7485C281.37 17.384 281.783 16.8896 282.048 16.3151C282.326 15.7326 282.469 15.0948 282.465 14.4494V7.90186H284.475V19.7545H282.559V17.9861H282.461C282.074 18.6264 281.527 19.1541 280.872 19.5169C280.181 19.9252 279.392 20.1391 278.59 20.1362C277.128 20.1362 276.019 19.7181 275.263 18.882Z" fill="#353535"/>
<path d="M289.254 19.326C288.381 18.7687 287.671 17.989 287.198 17.0669C286.696 16.0611 286.435 14.9523 286.435 13.8282C286.435 12.704 286.696 11.5953 287.198 10.5895C287.671 9.66735 288.381 8.88763 289.254 8.33031C290.097 7.79455 291.076 7.51326 292.074 7.52016C292.941 7.50666 293.797 7.71588 294.56 8.12779C295.233 8.47965 295.803 9.00212 296.211 9.64297H296.305L296.211 8.01872V2.64355H298.217V19.7545H296.305V17.9862H296.211C295.811 18.6446 295.24 19.1828 294.56 19.5442C293.797 19.9561 292.941 20.1653 292.074 20.1518C291.075 20.1541 290.095 19.8673 289.254 19.326V19.326ZM294.318 17.768C294.932 17.3923 295.428 16.8527 295.751 16.21C296.105 15.4693 296.289 14.6588 296.289 13.8379C296.289 13.017 296.105 12.2066 295.751 11.4658C295.427 10.8241 294.93 10.2849 294.318 9.90783C293.731 9.55204 293.057 9.36597 292.37 9.37031C291.683 9.36637 291.007 9.55673 290.423 9.9195C289.812 10.2983 289.316 10.8371 288.99 11.4775C288.636 12.212 288.452 13.0168 288.452 13.8321C288.452 14.6473 288.636 15.4521 288.99 16.1866C289.316 16.8271 289.812 17.3659 290.423 17.7447C291.007 18.1074 291.683 18.2978 292.37 18.2939C293.062 18.3023 293.742 18.1174 294.334 17.7602L294.318 17.768Z" fill="#353535"/>
<path d="M303.054 19.326C302.158 18.783 301.426 18.006 300.939 17.0785C300.414 16.0754 300.147 14.958 300.16 13.8262C300.147 12.7291 300.393 11.6444 300.876 10.6595C301.335 9.72159 302.042 8.92787 302.921 8.36531C303.833 7.79347 304.891 7.49975 305.967 7.52009C307.027 7.49767 308.073 7.76717 308.99 8.2991C309.856 8.81487 310.551 9.57501 310.988 10.4842C311.465 11.5009 311.702 12.6136 311.681 13.7366C311.689 13.8979 311.672 14.0596 311.631 14.2157H302.216C302.22 15.0121 302.442 15.7923 302.859 16.4709C303.225 17.0551 303.742 17.53 304.355 17.8459C304.926 18.1429 305.561 18.2991 306.205 18.3016C307.703 18.3016 308.859 17.568 309.671 16.1009L311.467 16.9617C310.97 17.8977 310.242 18.6913 309.352 19.2675C308.397 19.8282 307.311 20.1289 306.203 20.1399C305.096 20.1508 304.004 19.8716 303.038 19.3299L303.054 19.326ZM309.547 12.5135C309.513 12.0146 309.381 11.5273 309.157 11.0801C308.891 10.5715 308.486 10.1488 307.989 9.86102C307.37 9.50365 306.662 9.32939 305.948 9.35854C305.088 9.33765 304.252 9.6455 303.611 10.2194C302.944 10.8173 302.504 11.6281 302.368 12.5135H309.547Z" fill="#353535"/>
<path d="M313.75 7.90198H315.697V9.67033H315.794C316.163 9.02668 316.702 8.49706 317.352 8.13958C318.048 7.73214 318.84 7.51832 319.647 7.52028C321.096 7.52028 322.199 7.94224 322.957 8.78617C323.716 9.63009 324.093 10.7843 324.091 12.2488V19.7546H322.085V12.5605C322.085 10.426 321.089 9.35873 319.097 9.35873C318.48 9.35224 317.876 9.54481 317.376 9.90794C316.871 10.2784 316.468 10.7718 316.207 11.3413C315.93 11.9239 315.787 12.5617 315.791 13.207V19.7546H313.757L313.75 7.90198Z" fill="#353535"/>
<path d="M329.393 19.8943C329.007 19.7437 328.654 19.5202 328.353 19.236C328.038 18.9338 327.797 18.5634 327.648 18.1532C327.487 17.6794 327.41 17.1811 327.422 16.6809V9.73992H325.318V7.90145H327.422V4.36084H329.428V7.90145H332.345V9.73992H329.428V16.194C329.385 16.7311 329.53 17.2664 329.837 17.7092C329.983 17.8944 330.174 18.0406 330.39 18.1351C330.607 18.2295 330.843 18.2692 331.079 18.2506C331.532 18.261 331.979 18.1436 332.368 17.9117V19.8592C332.132 19.9489 331.888 20.0167 331.64 20.0618C331.336 20.1058 331.028 20.1253 330.721 20.1202C330.268 20.1293 329.817 20.0526 329.393 19.8943Z" fill="#353535"/>
<path d="M343.22 18.964C341.881 18.2008 340.776 17.0854 340.026 15.7389C339.267 14.3462 338.869 12.7854 338.869 11.1992C338.869 9.61307 339.267 8.05221 340.026 6.65954C340.777 5.31269 341.882 4.19628 343.22 3.43056C344.586 2.64798 346.137 2.24456 347.711 2.26204C348.919 2.24792 350.115 2.49645 351.217 2.99042C352.266 3.47253 353.196 4.17849 353.943 5.05869L352.51 6.46869C351.937 5.73845 351.204 5.14946 350.368 4.74709C349.523 4.36878 348.605 4.18126 347.68 4.19787C346.493 4.18719 345.323 4.4866 344.287 5.06648C343.255 5.64724 342.4 6.49822 341.814 7.52813C341.211 8.65718 340.896 9.91738 340.896 11.1973C340.896 12.4772 341.211 13.7374 341.814 14.8664C342.397 15.898 343.253 16.7496 344.287 17.3281C345.703 18.1188 347.352 18.3836 348.944 18.0757C350.535 17.7677 351.967 16.9069 352.985 15.6454L354.446 17.0788C353.649 18.0288 352.653 18.792 351.528 19.3146C350.323 19.8721 349.008 20.1529 347.68 20.1364C346.116 20.1488 344.576 19.7442 343.22 18.964V18.964Z" fill="#353535"/>
<path d="M356.459 2.6438H358.488V19.7547H356.459V2.6438Z" fill="#353535"/>
<path d="M362.255 18.882C361.499 18.0368 361.122 16.8683 361.122 15.3765V7.90186H363.151V15.022C363.151 17.2084 364.131 18.3003 366.092 18.2977C366.721 18.3049 367.336 18.1126 367.848 17.7485C368.365 17.3829 368.777 16.8888 369.044 16.3151C369.32 15.7318 369.462 15.0945 369.461 14.4494V7.90186H371.467V19.7545H369.554V17.9861H369.461C369.074 18.6264 368.526 19.1541 367.872 19.5169C367.181 19.9252 366.392 20.1391 365.589 20.1362C364.122 20.1362 363.011 19.7181 362.255 18.882Z" fill="#353535"/>
<path d="M377.886 19.5286C377.21 19.1655 376.643 18.6274 376.246 17.9706H376.153V19.7389H374.205V2.64355H376.234V8.01872L376.141 9.64297H376.234C376.651 9.00916 377.219 8.48856 377.886 8.12779C378.647 7.71171 379.504 7.50221 380.371 7.52016C381.371 7.51361 382.351 7.79925 383.191 8.34201C384.062 8.90217 384.771 9.68114 385.248 10.6011C385.75 11.6028 386.011 12.7078 386.011 13.8282C386.011 14.9486 385.75 16.0536 385.248 17.0552C384.769 17.9738 384.061 18.7523 383.191 19.3144C382.351 19.8571 381.371 20.1428 380.371 20.1362C379.504 20.1511 378.648 19.9418 377.886 19.5286V19.5286ZM382.019 17.7486C382.63 17.3698 383.125 16.831 383.452 16.1905C383.806 15.456 383.989 14.6512 383.989 13.836C383.989 13.0207 383.806 12.2159 383.452 11.4814C383.125 10.841 382.63 10.3022 382.019 9.9234C381.434 9.56063 380.759 9.37027 380.071 9.37421C379.385 9.36987 378.71 9.55591 378.123 9.9117C377.511 10.2887 377.015 10.828 376.69 11.4697C376.336 12.2104 376.153 13.0209 376.153 13.8418C376.153 14.6627 376.336 15.4732 376.69 16.2139C377.014 16.8566 377.51 17.3962 378.123 17.7719C378.71 18.1277 379.385 18.3138 380.071 18.3094C380.76 18.3099 381.435 18.1154 382.019 17.7486V17.7486Z" fill="#353535"/>
<path d="M388.936 19.1817C388.1 18.5937 387.46 17.7689 387.097 16.8135L388.889 16.0345C389.166 16.7258 389.635 17.3232 390.24 17.7561C390.798 18.1459 391.461 18.354 392.141 18.3521C392.81 18.3784 393.47 18.2034 394.038 17.8496C394.259 17.7291 394.444 17.5535 394.577 17.3398C394.709 17.1261 394.784 16.8817 394.794 16.6305C394.796 16.409 394.747 16.1901 394.649 15.9913C394.552 15.7924 394.409 15.6192 394.233 15.4853C393.651 15.0986 392.996 14.8336 392.309 14.7063L390.684 14.3168C389.841 14.1363 389.056 13.7495 388.398 13.1911C388.089 12.9271 387.844 12.5965 387.68 12.2241C387.517 11.8518 387.44 11.4473 387.456 11.0411C387.438 10.3574 387.663 9.68969 388.09 9.15588C388.534 8.61321 389.115 8.20011 389.773 7.9601C390.507 7.68863 391.285 7.55653 392.067 7.5706C393.041 7.55785 394.002 7.80095 394.852 8.2756C395.661 8.71168 396.29 9.41736 396.632 10.2699L394.841 11.0489C394.61 10.5038 394.197 10.0562 393.672 9.78298C393.136 9.51449 392.542 9.3808 391.943 9.39348C391.35 9.38614 390.766 9.54247 390.256 9.84529C390.036 9.95273 389.849 10.1185 389.717 10.3245C389.584 10.5305 389.511 10.7689 389.504 11.0138C389.499 11.2051 389.542 11.3946 389.627 11.5658C389.713 11.7369 389.839 11.8844 389.995 11.9954C390.473 12.2982 391 12.5156 391.553 12.638L393.321 13.0704C394.309 13.2708 395.224 13.7367 395.966 14.4181C396.246 14.6984 396.468 15.0321 396.617 15.3994C396.766 15.7666 396.84 16.1601 396.835 16.5565C396.84 17.226 396.631 17.8797 396.239 18.4222C395.811 19.0041 395.234 19.4591 394.568 19.7387C393.797 20.0652 392.967 20.227 392.13 20.2139C390.981 20.2232 389.861 19.8611 388.936 19.1817V19.1817Z" fill="#353535"/>
<path d="M11.2334 11.4579L18.8949 7.03705C19.7611 6.53707 20.3932 5.71344 20.6522 4.74741C20.9111 3.78137 20.7757 2.75204 20.2757 1.88584C19.7757 1.01964 18.9521 0.387548 17.9861 0.128599C17.02 -0.130351 15.9907 0.00506477 15.1245 0.505052L1.88135 8.15103L11.2334 11.4579Z" fill="#EA4335"/>
<path d="M17.0057 22.8276C17.8356 22.828 18.6425 22.5545 19.3012 22.0496C19.9599 21.5447 20.4336 20.8366 20.6489 20.0351C20.8641 19.2336 20.8089 18.3834 20.4918 17.6164C20.1746 16.8495 19.6133 16.2086 18.8948 15.7931L5.65163 8.15106C5.22299 7.90375 4.74984 7.74328 4.25918 7.67883C3.76852 7.61437 3.26998 7.6472 2.79201 7.77542C2.31404 7.90364 1.866 8.12473 1.47347 8.4261C1.08095 8.72747 0.751637 9.10321 0.504325 9.53185C0.257012 9.96049 0.0965532 10.4337 0.0321 10.9243C-0.0323533 11.415 0.00046111 11.9135 0.12868 12.3915C0.256898 12.8694 0.478013 13.3175 0.779384 13.71C1.08075 14.1025 1.45648 14.4319 1.88512 14.6792L15.1283 22.3212C15.6989 22.6516 16.3463 22.8262 17.0057 22.8276V22.8276Z" fill="#4285F4"/>
<path d="M30.1594 22.8279C30.8202 22.8278 31.4692 22.6531 32.0407 22.3216L45.2839 14.6795L36.0565 11.3025L28.2664 15.7935C27.5476 16.2091 26.9861 16.8503 26.6691 17.6177C26.352 18.385 26.2971 19.2356 26.5128 20.0373C26.7286 20.8391 27.203 21.5472 27.8623 22.0518C28.5217 22.5564 29.3291 22.8292 30.1594 22.8279Z" fill="#FBBC04"/>
<path d="M43.4024 15.1855C44.2323 15.1859 45.0392 14.9124 45.6979 14.4075C46.3566 13.9026 46.8303 13.1945 47.0456 12.393C47.2608 11.5914 47.2056 10.7413 46.8885 9.97431C46.5713 9.20736 46.01 8.56647 45.2915 8.15103L32.0483 0.505052C31.1821 0.00506483 30.1528 -0.130351 29.1868 0.128599C28.2207 0.387548 27.3971 1.01964 26.8971 1.88584C26.3972 2.75204 26.2617 3.78137 26.5207 4.74741C26.7796 5.71344 27.4117 6.53707 28.2779 7.03705L41.5211 14.6791C42.0926 15.0107 42.7416 15.1853 43.4024 15.1855Z" fill="#34A853"/>
<path d="M61.6345 45.1057C60.7298 45.1057 59.948 44.86 59.2891 44.3686C58.6302 43.8772 58.1667 43.1959 57.8986 42.3248L59.3561 41.7217C59.7358 42.9949 60.4953 43.6315 61.6345 43.6315C62.2599 43.6315 62.7625 43.4137 63.1422 42.9781C63.5331 42.5314 63.7285 41.9562 63.7285 41.2526V32.8428H65.2698V41.1186C65.2698 42.3583 64.9403 43.3355 64.2814 44.0503C63.6336 44.7539 62.7513 45.1057 61.6345 45.1057ZM74.8927 41.6379C74.8927 42.6877 74.5074 43.5309 73.7368 44.1675C72.955 44.793 72.0057 45.1057 70.8888 45.1057C69.8949 45.1057 69.0181 44.8153 68.2587 44.2346C67.4992 43.6538 66.9743 42.8608 66.6839 41.8557L68.1582 41.2526C68.2587 41.61 68.3983 41.9339 68.577 42.2242C68.7557 42.5146 68.9623 42.7659 69.1968 42.9781C69.4425 43.1791 69.7106 43.3411 70.001 43.4639C70.2913 43.5756 70.5985 43.6315 70.9224 43.6315C71.626 43.6315 72.2011 43.4528 72.6479 43.0954C73.0946 42.7268 73.318 42.241 73.318 41.6379C73.318 41.1353 73.1337 40.7053 72.7651 40.3479C72.4189 40.0017 71.7712 39.6667 70.8218 39.3428C69.8614 38.9966 69.2638 38.762 69.0293 38.6392C67.7561 37.9914 67.1195 37.0365 67.1195 35.7745C67.1195 34.8922 67.4713 34.1383 68.1749 33.5129C68.8897 32.8875 69.7664 32.5747 70.8051 32.5747C71.7209 32.5747 72.5138 32.8093 73.184 33.2784C73.8541 33.7363 74.3008 34.3114 74.5242 35.0039L73.0834 35.607C72.9494 35.1602 72.6814 34.7917 72.2793 34.5013C71.8884 34.1997 71.4082 34.049 70.8386 34.049C70.2355 34.049 69.7273 34.2165 69.3141 34.5515C68.9009 34.8643 68.6943 35.2719 68.6943 35.7745C68.6943 36.1877 68.8562 36.5451 69.1801 36.8467C69.5375 37.1482 70.3137 37.5056 71.5087 37.9188C72.726 38.3321 73.5916 38.8402 74.1053 39.4433C74.6303 40.0352 74.8927 40.7668 74.8927 41.6379ZM84.1525 41.6379C84.1525 42.6877 83.7671 43.5309 82.9965 44.1675C82.2147 44.793 81.2654 45.1057 80.1486 45.1057C79.1546 45.1057 78.2779 44.8153 77.5184 44.2346C76.759 43.6538 76.2341 42.8608 75.9437 41.8557L77.4179 41.2526C77.5184 41.61 77.658 41.9339 77.8367 42.2242C78.0154 42.5146 78.222 42.7659 78.4566 42.9781C78.7023 43.1791 78.9703 43.3411 79.2607 43.4639C79.5511 43.5756 79.8582 43.6315 80.1821 43.6315C80.8857 43.6315 81.4609 43.4528 81.9076 43.0954C82.3543 42.7268 82.5777 42.241 82.5777 41.6379C82.5777 41.1353 82.3934 40.7053 82.0249 40.3479C81.6787 40.0017 81.0309 39.6667 80.0816 39.3428C79.1211 38.9966 78.5236 38.762 78.289 38.6392C77.0158 37.9914 76.3792 37.0365 76.3792 35.7745C76.3792 34.8922 76.7311 34.1383 77.4347 33.5129C78.1494 32.8875 79.0262 32.5747 80.0648 32.5747C80.9806 32.5747 81.7736 32.8093 82.4437 33.2784C83.1138 33.7363 83.5605 34.3114 83.7839 35.0039L82.3432 35.607C82.2092 35.1602 81.9411 34.7917 81.539 34.5013C81.1482 34.1997 80.6679 34.049 80.0983 34.049C79.4952 34.049 78.9871 34.2165 78.5738 34.5515C78.1606 34.8643 77.954 35.2719 77.954 35.7745C77.954 36.1877 78.1159 36.5451 78.4398 36.8467C78.7972 37.1482 79.5734 37.5056 80.7684 37.9188C81.9858 38.3321 82.8513 38.8402 83.3651 39.4433C83.89 40.0352 84.1525 40.7668 84.1525 41.6379ZM93.5371 34.7358L91.577 40.1469H95.5641L93.6041 34.7358H93.5371ZM89.885 44.8376H88.1762L92.6994 32.8428H94.4417L98.9649 44.8376H97.2561L96.1002 41.5876H91.0577L89.885 44.8376ZM103.611 45.1057C102.393 45.1057 101.383 44.6925 100.579 43.866C99.7856 43.0172 99.3891 41.973 99.3891 40.7333C99.3891 39.4712 99.7856 38.427 100.579 37.6005C101.383 36.7741 102.393 36.3608 103.611 36.3608C104.448 36.3608 105.18 36.573 105.805 36.9974C106.431 37.4107 106.9 37.9858 107.213 38.7229L105.805 39.3093C105.37 38.2818 104.605 37.768 103.51 37.768C102.807 37.768 102.198 38.0528 101.684 38.6224C101.182 39.192 100.93 39.8956 100.93 40.7333C100.93 41.5709 101.182 42.2745 101.684 42.8441C102.198 43.4137 102.807 43.6985 103.51 43.6985C104.638 43.6985 105.431 43.1847 105.889 42.1572L107.263 42.7436C106.961 43.4807 106.487 44.0614 105.839 44.4858C105.202 44.8991 104.46 45.1057 103.611 45.1057ZM109.651 42.3248C109.651 42.7268 109.819 43.0619 110.154 43.3299C110.5 43.598 110.902 43.732 111.36 43.732C112.008 43.732 112.583 43.4919 113.086 43.0116C113.599 42.5314 113.856 41.9674 113.856 41.3196C113.376 40.9399 112.706 40.75 111.846 40.75C111.221 40.75 110.696 40.9008 110.271 41.2023C109.858 41.5039 109.651 41.878 109.651 42.3248ZM111.645 36.3608C112.784 36.3608 113.683 36.668 114.342 37.2822C115.001 37.8853 115.33 38.7174 115.33 39.7784V44.8376H113.856V43.6985H113.789C113.153 44.6366 112.304 45.1057 111.243 45.1057C110.338 45.1057 109.579 44.8376 108.964 44.3016C108.361 43.7655 108.06 43.0954 108.06 42.2913C108.06 41.4425 108.378 40.7668 109.015 40.2642C109.663 39.7616 110.522 39.5103 111.595 39.5103C112.51 39.5103 113.264 39.6778 113.856 40.0129V39.6611C113.856 39.125 113.644 38.6727 113.22 38.3041C112.795 37.9244 112.298 37.7345 111.729 37.7345C110.869 37.7345 110.187 38.0975 109.685 38.8235L108.328 37.9691C109.076 36.8969 110.182 36.3608 111.645 36.3608ZM120.673 43.6985C121.432 43.6985 122.052 43.4248 122.532 42.8776C123.035 42.3303 123.286 41.6156 123.286 40.7333C123.286 39.8733 123.035 39.1641 122.532 38.6057C122.041 38.0473 121.421 37.768 120.673 37.768C119.935 37.768 119.316 38.0473 118.813 38.6057C118.31 39.1641 118.059 39.8733 118.059 40.7333C118.059 41.6044 118.31 42.3136 118.813 42.8608C119.316 43.4193 119.935 43.6985 120.673 43.6985ZM120.421 45.1057C119.349 45.1057 118.428 44.6813 117.657 43.8325C116.898 42.9725 116.518 41.9394 116.518 40.7333C116.518 39.5271 116.898 38.494 117.657 37.634C118.428 36.7852 119.349 36.3608 120.421 36.3608C121.024 36.3608 121.572 36.4893 122.063 36.7461C122.566 37.003 122.951 37.3437 123.219 37.768H123.286L123.219 36.6289V32.8428H124.76V44.8376H123.286V43.6985H123.219C122.951 44.1229 122.566 44.4635 122.063 44.7204C121.572 44.9773 121.024 45.1057 120.421 45.1057ZM130.243 45.1057C129.037 45.1057 128.043 44.6925 127.261 43.866C126.479 43.0395 126.089 41.9953 126.089 40.7333C126.089 39.4824 126.468 38.4437 127.228 37.6173C127.987 36.7796 128.959 36.3608 130.143 36.3608C131.36 36.3608 132.326 36.7573 133.041 37.5503C133.767 38.3321 134.13 39.4321 134.13 40.8505L134.113 41.0181H127.663C127.686 41.8222 127.954 42.4699 128.467 42.9614C128.981 43.4528 129.595 43.6985 130.31 43.6985C131.293 43.6985 132.064 43.2071 132.622 42.2242L133.996 42.8943C133.627 43.5868 133.113 44.1285 132.455 44.5193C131.807 44.9102 131.07 45.1057 130.243 45.1057ZM127.781 39.7449H132.488C132.443 39.1753 132.209 38.7062 131.784 38.3376C131.371 37.9579 130.813 37.768 130.109 37.768C129.528 37.768 129.026 37.9467 128.601 38.3041C128.188 38.6615 127.915 39.1418 127.781 39.7449ZM137.08 44.8376H135.539V36.6289H137.013V37.768H137.08C137.315 37.366 137.672 37.0309 138.153 36.7629C138.644 36.4949 139.13 36.3608 139.61 36.3608C140.213 36.3608 140.744 36.5004 141.202 36.7796C141.66 37.0589 141.995 37.4442 142.207 37.9356C142.888 36.8857 143.832 36.3608 145.038 36.3608C145.987 36.3608 146.719 36.6512 147.233 37.232C147.746 37.8127 148.003 38.6392 148.003 39.7114V44.8376H146.462V39.9459C146.462 39.1753 146.322 38.6224 146.043 38.2874C145.764 37.9412 145.295 37.768 144.636 37.768C144.044 37.768 143.547 38.0193 143.145 38.5219C142.743 39.0245 142.542 39.6164 142.542 40.2977V44.8376H141.001V39.9459C141.001 39.1753 140.861 38.6224 140.582 38.2874C140.303 37.9412 139.833 37.768 139.175 37.768C138.583 37.768 138.086 38.0193 137.684 38.5219C137.281 39.0245 137.08 39.6164 137.08 40.2977V44.8376ZM156.979 36.6289L151.836 48.4562H150.245L152.154 44.3183L148.77 36.6289H150.446L152.892 42.5258H152.925L155.304 36.6289H156.979ZM161.197 40.7333C161.197 39.4712 161.593 38.427 162.386 37.6005C163.191 36.7741 164.201 36.3608 165.419 36.3608C166.636 36.3608 167.641 36.7741 168.434 37.6005C169.238 38.427 169.64 39.4712 169.64 40.7333C169.64 42.0065 169.238 43.0507 168.434 43.866C167.641 44.6925 166.636 45.1057 165.419 45.1057C164.201 45.1057 163.191 44.6925 162.386 43.866C161.593 43.0395 161.197 41.9953 161.197 40.7333ZM162.738 40.7333C162.738 41.6156 162.995 42.3303 163.509 42.8776C164.023 43.4248 164.659 43.6985 165.419 43.6985C166.178 43.6985 166.815 43.4248 167.328 42.8776C167.842 42.3303 168.099 41.6156 168.099 40.7333C168.099 39.8621 167.842 39.1529 167.328 38.6057C166.804 38.0473 166.167 37.768 165.419 37.768C164.67 37.768 164.034 38.0473 163.509 38.6057C162.995 39.1529 162.738 39.8621 162.738 40.7333ZM174.581 32.7088C175.139 32.7088 175.597 32.8037 175.955 32.9936L175.536 34.3505C175.268 34.2165 174.966 34.1495 174.631 34.1495C174.252 34.1495 173.939 34.2835 173.693 34.5515C173.459 34.8084 173.341 35.1546 173.341 35.5902V36.6289H175.486V38.0361H173.341V44.8376H171.8V38.0361H170.259V36.6289H171.8V35.4394C171.8 34.6241 172.057 33.9652 172.571 33.4626C173.096 32.9601 173.766 32.7088 174.581 32.7088ZM184.329 34.317V44.8376H182.787V34.317H179.437V32.8428H187.679V34.317H184.329ZM191.364 45.1057C190.158 45.1057 189.164 44.6925 188.382 43.866C187.6 43.0395 187.209 41.9953 187.209 40.7333C187.209 39.4824 187.589 38.4437 188.349 37.6173C189.108 36.7796 190.08 36.3608 191.263 36.3608C192.481 36.3608 193.447 36.7573 194.162 37.5503C194.888 38.3321 195.251 39.4321 195.251 40.8505L195.234 41.0181H188.784C188.806 41.8222 189.074 42.4699 189.588 42.9614C190.102 43.4528 190.716 43.6985 191.431 43.6985C192.414 43.6985 193.184 43.2071 193.743 42.2242L195.117 42.8943C194.748 43.5868 194.234 44.1285 193.575 44.5193C192.928 44.9102 192.19 45.1057 191.364 45.1057ZM188.901 39.7449H193.609C193.564 39.1753 193.33 38.7062 192.905 38.3376C192.492 37.9579 191.934 37.768 191.23 37.768C190.649 37.768 190.147 37.9467 189.722 38.3041C189.309 38.6615 189.035 39.1418 188.901 39.7449ZM200.494 45.1057C199.277 45.1057 198.266 44.6925 197.462 43.866C196.669 43.0172 196.273 41.973 196.273 40.7333C196.273 39.4712 196.669 38.427 197.462 37.6005C198.266 36.7741 199.277 36.3608 200.494 36.3608C201.332 36.3608 202.064 36.573 202.689 36.9974C203.314 37.4107 203.784 37.9858 204.096 38.7229L202.689 39.3093C202.253 38.2818 201.488 37.768 200.394 37.768C199.69 37.768 199.082 38.0528 198.568 38.6224C198.065 39.192 197.814 39.8956 197.814 40.7333C197.814 41.5709 198.065 42.2745 198.568 42.8441C199.082 43.4137 199.69 43.6985 200.394 43.6985C201.522 43.6985 202.315 43.1847 202.773 42.1572L204.146 42.7436C203.845 43.4807 203.37 44.0614 202.723 44.4858C202.086 44.8991 201.343 45.1057 200.494 45.1057ZM205.494 32.8428H207.036V36.6289L206.969 37.768H207.036C207.27 37.366 207.628 37.0309 208.108 36.7629C208.599 36.4949 209.107 36.3608 209.632 36.3608C210.637 36.3608 211.408 36.6512 211.944 37.232C212.491 37.8016 212.765 38.6168 212.765 39.6778V44.8376H211.224V39.9794C211.224 38.5052 210.57 37.768 209.264 37.768C208.638 37.768 208.108 38.0305 207.672 38.5554C207.248 39.0692 207.036 39.6723 207.036 40.3647V44.8376H205.494V32.8428ZM214.574 36.6289H216.048V37.768H216.115C216.35 37.366 216.707 37.0309 217.188 36.7629C217.679 36.4949 218.187 36.3608 218.712 36.3608C219.717 36.3608 220.488 36.6512 221.024 37.232C221.571 37.8016 221.845 38.6168 221.845 39.6778V44.8376H220.304V39.7784C220.27 38.4382 219.594 37.768 218.277 37.768C217.662 37.768 217.149 38.0193 216.735 38.5219C216.322 39.0133 216.115 39.6053 216.115 40.2977V44.8376H214.574V36.6289ZM225.648 33.7977C225.648 34.0992 225.541 34.3561 225.329 34.5683C225.117 34.7805 224.86 34.8866 224.559 34.8866C224.257 34.8866 224 34.7805 223.788 34.5683C223.576 34.3561 223.47 34.0992 223.47 33.7977C223.47 33.4961 223.576 33.2393 223.788 33.0271C224 32.8149 224.257 32.7088 224.559 32.7088C224.86 32.7088 225.117 32.8149 225.329 33.0271C225.541 33.2393 225.648 33.4961 225.648 33.7977ZM225.329 36.6289V44.8376H223.788V36.6289H225.329ZM231.006 45.1057C229.788 45.1057 228.778 44.6925 227.974 43.866C227.181 43.0172 226.784 41.973 226.784 40.7333C226.784 39.4712 227.181 38.427 227.974 37.6005C228.778 36.7741 229.788 36.3608 231.006 36.3608C231.843 36.3608 232.575 36.573 233.2 36.9974C233.826 37.4107 234.295 37.9858 234.608 38.7229L233.2 39.3093C232.765 38.2818 232 37.768 230.905 37.768C230.202 37.768 229.593 38.0528 229.079 38.6224C228.577 39.192 228.325 39.8956 228.325 40.7333C228.325 41.5709 228.577 42.2745 229.079 42.8441C229.593 43.4137 230.202 43.6985 230.905 43.6985C232.033 43.6985 232.826 43.1847 233.284 42.1572L234.658 42.7436C234.356 43.4807 233.882 44.0614 233.234 44.4858C232.597 44.8991 231.855 45.1057 231.006 45.1057ZM237.046 42.3248C237.046 42.7268 237.214 43.0619 237.549 43.3299C237.895 43.598 238.297 43.732 238.755 43.732C239.403 43.732 239.978 43.4919 240.481 43.0116C240.994 42.5314 241.251 41.9674 241.251 41.3196C240.771 40.9399 240.101 40.75 239.241 40.75C238.616 40.75 238.091 40.9008 237.666 41.2023C237.253 41.5039 237.046 41.878 237.046 42.3248ZM239.04 36.3608C240.179 36.3608 241.078 36.668 241.737 37.2822C242.396 37.8853 242.725 38.7174 242.725 39.7784V44.8376H241.251V43.6985H241.184C240.548 44.6366 239.699 45.1057 238.638 45.1057C237.733 45.1057 236.974 44.8376 236.36 44.3016C235.756 43.7655 235.455 43.0954 235.455 42.2913C235.455 41.4425 235.773 40.7668 236.41 40.2642C237.058 39.7616 237.917 39.5103 238.99 39.5103C239.905 39.5103 240.659 39.6778 241.251 40.0129V39.6611C241.251 39.125 241.039 38.6727 240.615 38.3041C240.19 37.9244 239.693 37.7345 239.124 37.7345C238.264 37.7345 237.582 38.0975 237.08 38.8235L235.723 37.9691C236.471 36.8969 237.577 36.3608 239.04 36.3608ZM246.005 32.8428V44.8376H244.464V32.8428H246.005ZM258.835 32.8428V34.317H253.373V38.1199H258.299V39.5606H253.373V43.3634H258.835V44.8376H251.832V32.8428H258.835ZM264.002 43.6985C264.762 43.6985 265.382 43.4248 265.862 42.8776C266.364 42.3303 266.616 41.6156 266.616 40.7333C266.616 39.8733 266.364 39.1641 265.862 38.6057C265.37 38.0473 264.75 37.768 264.002 37.768C263.265 37.768 262.645 38.0473 262.143 38.6057C261.64 39.1641 261.389 39.8733 261.389 40.7333C261.389 41.6044 261.64 42.3136 262.143 42.8608C262.645 43.4193 263.265 43.6985 264.002 43.6985ZM263.751 45.1057C262.679 45.1057 261.757 44.6813 260.987 43.8325C260.227 42.9725 259.848 41.9394 259.848 40.7333C259.848 39.5271 260.227 38.494 260.987 37.634C261.757 36.7852 262.679 36.3608 263.751 36.3608C264.354 36.3608 264.901 36.4893 265.393 36.7461C265.895 37.003 266.281 37.3437 266.549 37.768H266.616L266.549 36.6289V32.8428H268.09V44.8376H266.616V43.6985H266.549C266.281 44.1229 265.895 44.4635 265.393 44.7204C264.901 44.9773 264.354 45.1057 263.751 45.1057ZM277.173 44.8376H275.698V43.6985H275.631C275.397 44.1005 275.034 44.4356 274.542 44.7036C274.062 44.9717 273.56 45.1057 273.035 45.1057C272.03 45.1057 271.253 44.8209 270.706 44.2513C270.17 43.6705 269.902 42.8497 269.902 41.7887V36.6289H271.443V41.6882C271.477 43.0284 272.152 43.6985 273.47 43.6985C274.085 43.6985 274.598 43.4528 275.012 42.9614C275.425 42.4588 275.631 41.8613 275.631 41.1688V36.6289H277.173V44.8376ZM282.72 45.1057C281.502 45.1057 280.491 44.6925 279.687 43.866C278.894 43.0172 278.498 41.973 278.498 40.7333C278.498 39.4712 278.894 38.427 279.687 37.6005C280.491 36.7741 281.502 36.3608 282.72 36.3608C283.557 36.3608 284.289 36.573 284.914 36.9974C285.54 37.4107 286.009 37.9858 286.321 38.7229L284.914 39.3093C284.479 38.2818 283.714 37.768 282.619 37.768C281.915 37.768 281.307 38.0528 280.793 38.6224C280.29 39.192 280.039 39.8956 280.039 40.7333C280.039 41.5709 280.29 42.2745 280.793 42.8441C281.307 43.4137 281.915 43.6985 282.619 43.6985C283.747 43.6985 284.54 43.1847 284.998 42.1572L286.372 42.7436C286.07 43.4807 285.595 44.0614 284.948 44.4858C284.311 44.8991 283.568 45.1057 282.72 45.1057ZM288.76 42.3248C288.76 42.7268 288.928 43.0619 289.263 43.3299C289.609 43.598 290.011 43.732 290.469 43.732C291.117 43.732 291.692 43.4919 292.194 43.0116C292.708 42.5314 292.965 41.9674 292.965 41.3196C292.485 40.9399 291.815 40.75 290.955 40.75C290.329 40.75 289.804 40.9008 289.38 41.2023C288.967 41.5039 288.76 41.878 288.76 42.3248ZM290.754 36.3608C291.893 36.3608 292.792 36.668 293.451 37.2822C294.11 37.8853 294.439 38.7174 294.439 39.7784V44.8376H292.965V43.6985H292.898C292.261 44.6366 291.413 45.1057 290.352 45.1057C289.447 45.1057 288.688 44.8376 288.073 44.3016C287.47 43.7655 287.169 43.0954 287.169 42.2913C287.169 41.4425 287.487 40.7668 288.124 40.2642C288.771 39.7616 289.631 39.5103 290.704 39.5103C291.619 39.5103 292.373 39.6778 292.965 40.0129V39.6611C292.965 39.125 292.753 38.6727 292.329 38.3041C291.904 37.9244 291.407 37.7345 290.838 37.7345C289.978 37.7345 289.296 38.0975 288.794 38.8235L287.437 37.9691C288.185 36.8969 289.291 36.3608 290.754 36.3608ZM299.264 44.9717C298.594 44.9717 298.036 44.7651 297.589 44.3518C297.153 43.9386 296.93 43.3634 296.919 42.6263V38.0361H295.478V36.6289H296.919V34.116H298.46V36.6289H300.47V38.0361H298.46V42.1237C298.46 42.671 298.566 43.0451 298.778 43.2461C298.99 43.436 299.231 43.5309 299.499 43.5309C299.621 43.5309 299.739 43.5198 299.85 43.4974C299.973 43.4639 300.085 43.4248 300.185 43.3802L300.671 44.7539C300.269 44.8991 299.8 44.9717 299.264 44.9717ZM304.012 33.7977C304.012 34.0992 303.906 34.3561 303.693 34.5683C303.481 34.7805 303.224 34.8866 302.923 34.8866C302.621 34.8866 302.364 34.7805 302.152 34.5683C301.94 34.3561 301.834 34.0992 301.834 33.7977C301.834 33.4961 301.94 33.2393 302.152 33.0271C302.364 32.8149 302.621 32.7088 302.923 32.7088C303.224 32.7088 303.481 32.8149 303.693 33.0271C303.906 33.2393 304.012 33.4961 304.012 33.7977ZM303.693 36.6289V44.8376H302.152V36.6289H303.693ZM305.148 40.7333C305.148 39.4712 305.545 38.427 306.338 37.6005C307.142 36.7741 308.153 36.3608 309.37 36.3608C310.587 36.3608 311.592 36.7741 312.385 37.6005C313.19 38.427 313.592 39.4712 313.592 40.7333C313.592 42.0065 313.19 43.0507 312.385 43.866C311.592 44.6925 310.587 45.1057 309.37 45.1057C308.153 45.1057 307.142 44.6925 306.338 43.866C305.545 43.0395 305.148 41.9953 305.148 40.7333ZM306.69 40.7333C306.69 41.6156 306.946 42.3303 307.46 42.8776C307.974 43.4248 308.611 43.6985 309.37 43.6985C310.129 43.6985 310.766 43.4248 311.28 42.8776C311.794 42.3303 312.05 41.6156 312.05 40.7333C312.05 39.8621 311.794 39.1529 311.28 38.6057C310.755 38.0473 310.118 37.768 309.37 37.768C308.622 37.768 307.985 38.0473 307.46 38.6057C306.946 39.1529 306.69 39.8621 306.69 40.7333ZM314.828 36.6289H316.302V37.768H316.369C316.604 37.366 316.961 37.0309 317.441 36.7629C317.933 36.4949 318.441 36.3608 318.966 36.3608C319.971 36.3608 320.742 36.6512 321.278 37.232C321.825 37.8016 322.099 38.6168 322.099 39.6778V44.8376H320.557V39.7784C320.524 38.4382 319.848 37.768 318.53 37.768C317.916 37.768 317.402 38.0193 316.989 38.5219C316.576 39.0133 316.369 39.6053 316.369 40.2977V44.8376H314.828V36.6289Z" fill="#353535"/>
</svg>
