<svg xmlns="http://www.w3.org/2000/svg" width="26" height="26" viewBox="0 0 26 26" fill="none">
  <path d="M24.2625 26C21.5229 26 18.7146 25.3141 15.8375 23.9422C12.9604 22.5703 10.2875 20.6448 7.81873 18.1656C5.34997 15.6865 3.42967 13.0135 2.05782 10.1469C0.68594 7.2802 0 4.47708 0 1.73749C0 1.24105 0.1625 0.827368 0.4875 0.496436C0.8125 0.165478 1.21875 0 1.70625 0H5.725C6.16667 0 6.5521 0.139059 6.88127 0.417177C7.21044 0.695296 7.43335 1.05207 7.54999 1.48748L8.35624 5.3625C8.43126 5.81666 8.41772 6.21354 8.31561 6.55314C8.21353 6.89271 8.03334 7.17083 7.77502 7.38749L4.20936 10.7125C4.87604 11.9229 5.61303 13.0474 6.42033 14.0859C7.22761 15.1245 8.08853 16.1083 9.00311 17.0375C9.94688 17.9813 10.9625 18.8589 12.05 19.6703C13.1375 20.4818 14.3312 21.2479 15.6312 21.9687L19.1063 18.4312C19.3708 18.1458 19.6682 17.9578 19.9984 17.8672C20.3286 17.7766 20.6937 17.7583 21.0938 17.8125L24.5125 18.5125C24.9542 18.6208 25.3125 18.8432 25.5875 19.1797C25.8625 19.5161 26 19.9021 26 20.3375V24.2938C26 24.7812 25.8345 25.1875 25.5036 25.5125C25.1726 25.8375 24.7589 26 24.2625 26ZM3.44687 9.18751L6.56561 6.31873C6.66977 6.2354 6.73748 6.12082 6.76873 5.975C6.79999 5.82916 6.79479 5.69374 6.75313 5.56875L6.03123 2.12501C5.98957 1.95834 5.91667 1.83334 5.8125 1.75C5.70834 1.66667 5.57292 1.625 5.40625 1.625H2.07188C1.94689 1.625 1.84272 1.66667 1.75939 1.75C1.67605 1.83334 1.63438 1.9375 1.63438 2.06249C1.66564 3.17291 1.83959 4.33229 2.15625 5.54064C2.47291 6.74896 2.90312 7.96459 3.44687 9.18751ZM17.1781 22.7312C18.2761 23.275 19.4464 23.6771 20.6891 23.9375C21.9318 24.1979 23.0146 24.3375 23.9375 24.3562C24.0625 24.3562 24.1667 24.3146 24.25 24.2313C24.3333 24.1479 24.375 24.0438 24.375 23.9187V20.6563C24.375 20.4896 24.3333 20.3542 24.25 20.25C24.1667 20.1458 24.0417 20.0729 23.875 20.0313L20.8687 19.4156C20.7437 19.374 20.6344 19.3688 20.5406 19.4C20.4469 19.4313 20.3479 19.499 20.2438 19.6031L17.1781 22.7312Z" fill="#353535"/>
</svg>