<svg xmlns="http://www.w3.org/2000/svg" width="16" height="16" viewBox="0 0 16 16" fill="none">
  <path d="M7.99998 1C4.14014 1 1 4.14014 1 7.99998C1 11.8598 4.14014 15 7.99998 15C11.8598 15 15 11.8598 15 7.99998C15 4.14014 11.8598 1 7.99998 1ZM7.99998 14.0893C4.64233 14.0893 1.91068 11.3577 1.91068 7.99998C1.91068 4.64228 4.64233 1.91068 7.99998 1.91068C11.3576 1.91068 14.0893 4.64233 14.0893 7.99998C14.0893 11.3576 11.3577 14.0893 7.99998 14.0893Z" fill="#353535" stroke="#353535"/>
  <path d="M10.8556 9.14047C10.6437 9.00503 10.3621 9.06691 10.2266 9.27869C9.78675 9.96641 9.03751 10.377 8.22239 10.377C6.91162 10.377 5.84525 9.31057 5.84525 7.99979C5.84525 6.68901 6.91162 5.6226 8.22239 5.6226C9.01332 5.6226 9.75032 6.01455 10.1939 6.67105C10.3347 6.87934 10.6176 6.93419 10.8261 6.79338C11.0345 6.65263 11.0893 6.36956 10.9485 6.16117C10.3354 5.25367 9.31623 4.71191 8.22239 4.71191C6.40947 4.71191 4.93457 6.18682 4.93457 7.99979C4.93457 9.81276 6.40947 11.2877 8.22239 11.2877C9.34967 11.2877 10.3857 10.7201 10.9938 9.7694C11.1293 9.55756 11.0674 9.27601 10.8556 9.14047Z" fill="#353535" stroke="#353535"/>
</svg>