<svg width="30" height="30" viewBox="0 0 30 30" fill="none" xmlns="http://www.w3.org/2000/svg">
<g id="Page-1">
<g id="Dribbble-Light-Preview">
<g id="icons">
<path id="link_round-[#1110]" fill-rule="evenodd" clip-rule="evenodd" d="M27.358 2.64191C23.8355 -0.880637 18.1241 -0.880637 14.6016 2.64191L10.7483 6.49517L12.8741 8.62102L16.7274 4.76776C19.0772 2.4179 22.8809 2.4179 25.2322 4.76776C27.5761 7.11312 27.5761 10.9273 25.2322 13.2726L21.379 17.1262L23.5048 19.2521L27.358 15.3985C30.8805 11.8759 30.8805 6.16446 27.358 2.64191ZM13.2725 25.2312C12.1375 26.3678 10.6265 26.993 9.02089 26.993C7.41524 26.993 5.90427 26.3678 4.76919 25.2312C2.42386 22.8873 2.42386 19.0717 4.76919 16.7278L8.62246 12.8742L6.49514 10.7469L2.64188 14.6001C-0.880626 18.1227 -0.880626 23.8345 2.64188 27.3585C4.40388 29.1191 6.71164 30 9.02089 30C11.3301 30 13.6379 29.1191 15.3999 27.3585L19.2531 23.5053L17.1258 21.3779L13.2725 25.2312ZM18.3947 9.47978L20.5205 11.6056L11.5827 20.5434L9.45687 18.4175L18.3947 9.47978Z" fill="#353535"/>
</g>
</g>
</g>
</svg>
