<svg width="330" height="331" viewBox="0 0 330 331" fill="none" xmlns="http://www.w3.org/2000/svg">
<g clip-path="url(#clip0_92_936)">
<mask id="mask0_92_936" style="mask-type:luminance" maskUnits="userSpaceOnUse" x="0" y="0" width="330" height="331">
<path d="M330 0.5H0V330.5H330V0.5Z" fill="white"/>
</mask>
<g mask="url(#mask0_92_936)">
<path fill-rule="evenodd" clip-rule="evenodd" d="M83.6786 0.5H1.17858V83C1.17858 125.012 32.5819 159.69 73.1956 164.84C32.0125 169.463 6.96341e-06 204.404 3.60619e-06 246.822L0 329.322H82.5C124.512 329.322 159.19 297.917 164.34 257.304C168.963 298.488 203.904 330.5 246.322 330.5H328.822V248C328.822 205.988 297.417 171.31 256.804 166.16C297.988 161.537 330 126.596 330 84.1786V1.67857L247.5 1.67857C205.488 1.67857 170.81 33.0819 165.66 73.6956C161.037 32.5125 126.096 0.5 83.6786 0.5Z" fill="#6B83FF"/>
</g>
</g>
<path d="M157.713 220.734H172.403C177.999 220.734 181.613 216.971 180.564 212.378L178.174 202.363H151.942L149.552 212.378C148.503 216.695 152.467 220.734 157.713 220.734Z" stroke="#F5F5F5" stroke-width="6" stroke-linecap="round" stroke-linejoin="round"/>
<path d="M178.173 202.308L188.258 193.785C193.912 189.027 194.145 185.706 189.657 180.339L171.878 158.925C168.147 154.443 162.026 154.443 158.296 158.925L140.516 180.339C136.028 185.706 136.028 189.193 141.915 193.785L152 202.308" stroke="#F5F5F5" stroke-width="6" stroke-linecap="round" stroke-linejoin="round"/>
<path d="M165.059 157.764V171.763" stroke="#F5F5F5" stroke-width="6" stroke-linecap="round" stroke-linejoin="round"/>
<path d="M168.031 123.897H162.202C158.996 123.897 156.373 121.407 156.373 118.364V112.83C156.373 109.787 158.996 107.297 162.202 107.297H168.031C171.238 107.297 173.861 109.787 173.861 112.83V118.364C173.861 121.407 171.238 123.897 168.031 123.897Z" stroke="#F5F5F5" stroke-width="6" stroke-linecap="round" stroke-linejoin="round"/>
<path d="M114.11 174.64H119.94C123.146 174.64 125.769 172.15 125.769 169.107V163.573C125.769 160.53 123.146 158.039 119.94 158.039H114.11C110.904 158.039 108.281 160.53 108.281 163.573V169.107C108.281 172.15 110.904 174.64 114.11 174.64Z" stroke="#F5F5F5" stroke-width="6" stroke-linecap="round" stroke-linejoin="round"/>
<path d="M215.89 174.64H210.061C206.855 174.64 204.231 172.15 204.231 169.107V163.573C204.231 160.53 206.855 158.039 210.061 158.039H215.89C219.096 158.039 221.719 160.53 221.719 163.573V169.107C221.719 172.15 219.096 174.64 215.89 174.64Z" stroke="#F5F5F5" stroke-width="6" stroke-linecap="round" stroke-linejoin="round"/>
<path d="M156.372 115.929C134.163 118.419 116.908 136.292 116.908 158.039" stroke="#F5F5F5" stroke-width="6" stroke-linecap="round" stroke-linejoin="round"/>
<path d="M213.091 158.039C213.091 136.348 195.953 118.53 173.86 115.929" stroke="#F5F5F5" stroke-width="6" stroke-linecap="round" stroke-linejoin="round"/>
<defs>
<clipPath id="clip0_92_936">
<rect width="330" height="330" fill="white" transform="translate(0 0.5)"/>
</clipPath>
</defs>
</svg>
