<svg xmlns="http://www.w3.org/2000/svg" width="80" height="80" viewBox="0 0 80 80" fill="none">
  <path d="M35.2462 76.9999H44.8289C48.4794 76.9999 50.8371 74.5453 50.1526 71.5492L48.5935 65.0159H31.4815L29.9224 71.5492C29.2379 74.3648 31.8238 76.9999 35.2462 76.9999Z" stroke="#6B83FF" stroke-width="5" stroke-linecap="round" stroke-linejoin="round"/>
  <path d="M48.5943 64.98L55.1729 59.4206C58.8615 56.3162 59.0136 54.1504 56.0855 50.6489L44.4874 36.6795C42.0537 33.7556 38.0609 33.7556 35.6272 36.6795L24.0291 50.6489C21.101 54.1504 21.101 56.4245 24.9417 59.4206L31.5203 64.98" stroke="#6B83FF" stroke-width="5" stroke-linecap="round" stroke-linejoin="round"/>
  <path d="M40.0381 35.9221V45.0548" stroke="#6B83FF" stroke-width="5" stroke-linecap="round" stroke-linejoin="round"/>
  <path d="M41.9764 13.8293H38.1738C36.0823 13.8293 34.3711 12.2049 34.3711 10.2195V6.60976C34.3711 4.62439 36.0823 3 38.1738 3H41.9764C44.0679 3 45.7791 4.62439 45.7791 6.60976V10.2195C45.7791 12.2049 44.0679 13.8293 41.9764 13.8293Z" stroke="#6B83FF" stroke-width="5" stroke-linecap="round" stroke-linejoin="round"/>
  <path d="M6.80266 46.9309H10.6053C12.6968 46.9309 14.408 45.3066 14.408 43.3212V39.7114C14.408 37.7261 12.6968 36.1013 10.6053 36.1013H6.80266C4.7112 36.1013 3 37.7261 3 39.7114V43.3212C3 45.3066 4.7112 46.9309 6.80266 46.9309Z" stroke="#6B83FF" stroke-width="5" stroke-linecap="round" stroke-linejoin="round"/>
  <path d="M73.1976 46.9309H69.3949C67.3035 46.9309 65.5923 45.3066 65.5923 43.3212V39.7114C65.5923 37.7261 67.3035 36.1013 69.3949 36.1013H73.1976C75.2891 36.1013 77.0003 37.7261 77.0003 39.7114V43.3212C77.0003 45.3066 75.2891 46.9309 73.1976 46.9309Z" stroke="#6B83FF" stroke-width="5" stroke-linecap="round" stroke-linejoin="round"/>
  <path d="M34.3715 8.6311C19.8833 10.2555 8.62744 21.9149 8.62744 36.1011" stroke="#6B83FF" stroke-width="5" stroke-linecap="round" stroke-linejoin="round"/>
  <path d="M71.3717 36.1011C71.3717 21.951 60.1919 10.3277 45.7798 8.6311" stroke="#6B83FF" stroke-width="5" stroke-linecap="round" stroke-linejoin="round"/>
</svg>