<svg xmlns="http://www.w3.org/2000/svg" width="15" height="14" viewBox="0 0 15 14" fill="none">
  <path d="M1.5 3.13333C1.5 2.3866 1.5 2.01323 1.64532 1.72801C1.77316 1.47713 1.97713 1.27316 2.22801 1.14532C2.51323 1 2.8866 1 3.63333 1H4.03333C4.78007 1 5.15344 1 5.43865 1.14532C5.68954 1.27316 5.89351 1.47713 6.02134 1.72801C6.16667 2.01323 6.16667 2.3866 6.16667 3.13333V3.53333C6.16667 4.28007 6.16667 4.65344 6.02134 4.93865C5.89351 5.18954 5.68954 5.39351 5.43865 5.52134C5.15344 5.66667 4.78007 5.66667 4.03333 5.66667H3.63333C2.8866 5.66667 2.51323 5.66667 2.22801 5.52134C1.97713 5.39351 1.77316 5.18954 1.64532 4.93865C1.5 4.65344 1.5 4.28007 1.5 3.53333V3.13333Z" stroke="#000C49" stroke-width="2" stroke-linecap="round" stroke-linejoin="round"/>
  <path d="M1.5 10.4667C1.5 9.71993 1.5 9.34656 1.64532 9.06135C1.77316 8.81046 1.97713 8.60649 2.22801 8.47866C2.51323 8.33333 2.8866 8.33333 3.63333 8.33333H4.03333C4.78007 8.33333 5.15344 8.33333 5.43865 8.47866C5.68954 8.60649 5.89351 8.81046 6.02134 9.06135C6.16667 9.34656 6.16667 9.71993 6.16667 10.4667V10.8667C6.16667 11.6134 6.16667 11.9868 6.02134 12.272C5.89351 12.5229 5.68954 12.7268 5.43865 12.8547C5.15344 13 4.78007 13 4.03333 13H3.63333C2.8866 13 2.51323 13 2.22801 12.8547C1.97713 12.7268 1.77316 12.5229 1.64532 12.272C1.5 11.9868 1.5 11.6134 1.5 10.8667V10.4667Z" stroke="#000C49" stroke-width="2" stroke-linecap="round" stroke-linejoin="round"/>
  <path d="M8.83333 3.13333C8.83333 2.3866 8.83333 2.01323 8.97866 1.72801C9.10649 1.47713 9.31046 1.27316 9.56135 1.14532C9.84656 1 10.2199 1 10.9667 1H11.3667C12.1134 1 12.4868 1 12.772 1.14532C13.0229 1.27316 13.2268 1.47713 13.3547 1.72801C13.5 2.01323 13.5 2.3866 13.5 3.13333V3.53333C13.5 4.28007 13.5 4.65344 13.3547 4.93865C13.2268 5.18954 13.0229 5.39351 12.772 5.52134C12.4868 5.66667 12.1134 5.66667 11.3667 5.66667H10.9667C10.2199 5.66667 9.84656 5.66667 9.56135 5.52134C9.31046 5.39351 9.10649 5.18954 8.97866 4.93865C8.83333 4.65344 8.83333 4.28007 8.83333 3.53333V3.13333Z" stroke="#000C49" stroke-width="2" stroke-linecap="round" stroke-linejoin="round"/>
  <path d="M8.83333 10.4667C8.83333 9.71993 8.83333 9.34656 8.97866 9.06135C9.10649 8.81046 9.31046 8.60649 9.56135 8.47866C9.84656 8.33333 10.2199 8.33333 10.9667 8.33333H11.3667C12.1134 8.33333 12.4868 8.33333 12.772 8.47866C13.0229 8.60649 13.2268 8.81046 13.3547 9.06135C13.5 9.34656 13.5 9.71993 13.5 10.4667V10.8667C13.5 11.6134 13.5 11.9868 13.3547 12.272C13.2268 12.5229 13.0229 12.7268 12.772 12.8547C12.4868 13 12.1134 13 11.3667 13H10.9667C10.2199 13 9.84656 13 9.56135 12.8547C9.31046 12.7268 9.10649 12.5229 8.97866 12.272C8.83333 11.9868 8.83333 11.6134 8.83333 10.8667V10.4667Z" stroke="#000C49" stroke-width="2" stroke-linecap="round" stroke-linejoin="round"/>
</svg>