<svg width="121" height="34" viewBox="0 0 121 34" fill="none" xmlns="http://www.w3.org/2000/svg">
<path d="M23.5 13.1333C23.5 12.3866 23.5 12.0132 23.6453 11.728C23.7732 11.4771 23.9771 11.2732 24.228 11.1453C24.5132 11 24.8866 11 25.6333 11H26.0333C26.7801 11 27.1534 11 27.4387 11.1453C27.6895 11.2732 27.8935 11.4771 28.0213 11.728C28.1667 12.0132 28.1667 12.3866 28.1667 13.1333V13.5333C28.1667 14.2801 28.1667 14.6534 28.0213 14.9387C27.8935 15.1895 27.6895 15.3935 27.4387 15.5213C27.1534 15.6667 26.7801 15.6667 26.0333 15.6667H25.6333C24.8866 15.6667 24.5132 15.6667 24.228 15.5213C23.9771 15.3935 23.7732 15.1895 23.6453 14.9387C23.5 14.6534 23.5 14.2801 23.5 13.5333V13.1333Z" stroke="#000C49" stroke-width="2" stroke-linecap="round" stroke-linejoin="round"/>
<path d="M23.5 20.4667C23.5 19.7199 23.5 19.3466 23.6453 19.0613C23.7732 18.8105 23.9771 18.6065 24.228 18.4787C24.5132 18.3333 24.8866 18.3333 25.6333 18.3333H26.0333C26.7801 18.3333 27.1534 18.3333 27.4387 18.4787C27.6895 18.6065 27.8935 18.8105 28.0213 19.0613C28.1667 19.3466 28.1667 19.7199 28.1667 20.4667V20.8667C28.1667 21.6134 28.1667 21.9868 28.0213 22.272C27.8935 22.5229 27.6895 22.7268 27.4387 22.8547C27.1534 23 26.7801 23 26.0333 23H25.6333C24.8866 23 24.5132 23 24.228 22.8547C23.9771 22.7268 23.7732 22.5229 23.6453 22.272C23.5 21.9868 23.5 21.6134 23.5 20.8667V20.4667Z" stroke="#000C49" stroke-width="2" stroke-linecap="round" stroke-linejoin="round"/>
<path d="M30.8333 13.1333C30.8333 12.3866 30.8333 12.0132 30.9787 11.728C31.1065 11.4771 31.3105 11.2732 31.5613 11.1453C31.8466 11 32.2199 11 32.9667 11H33.3667C34.1134 11 34.4868 11 34.772 11.1453C35.0229 11.2732 35.2268 11.4771 35.3547 11.728C35.5 12.0132 35.5 12.3866 35.5 13.1333V13.5333C35.5 14.2801 35.5 14.6534 35.3547 14.9387C35.2268 15.1895 35.0229 15.3935 34.772 15.5213C34.4868 15.6667 34.1134 15.6667 33.3667 15.6667H32.9667C32.2199 15.6667 31.8466 15.6667 31.5613 15.5213C31.3105 15.3935 31.1065 15.1895 30.9787 14.9387C30.8333 14.6534 30.8333 14.2801 30.8333 13.5333V13.1333Z" stroke="#000C49" stroke-width="2" stroke-linecap="round" stroke-linejoin="round"/>
<path d="M30.8333 20.4667C30.8333 19.7199 30.8333 19.3466 30.9787 19.0613C31.1065 18.8105 31.3105 18.6065 31.5613 18.4787C31.8466 18.3333 32.2199 18.3333 32.9667 18.3333H33.3667C34.1134 18.3333 34.4868 18.3333 34.772 18.4787C35.0229 18.6065 35.2268 18.8105 35.3547 19.0613C35.5 19.3466 35.5 19.7199 35.5 20.4667V20.8667C35.5 21.6134 35.5 21.9868 35.3547 22.272C35.2268 22.5229 35.0229 22.7268 34.772 22.8547C34.4868 23 34.1134 23 33.3667 23H32.9667C32.2199 23 31.8466 23 31.5613 22.8547C31.3105 22.7268 31.1065 22.5229 30.9787 22.272C30.8333 21.9868 30.8333 21.6134 30.8333 20.8667V20.4667Z" stroke="#000C49" stroke-width="2" stroke-linecap="round" stroke-linejoin="round"/>
<path d="M44.508 21.5V11.476H47.574C49.1047 11.476 50.332 11.938 51.256 12.862C52.1893 13.786 52.656 14.9947 52.656 16.488C52.656 17.9907 52.1893 19.204 51.256 20.128C50.332 21.0427 49.1047 21.5 47.574 21.5H44.508ZM45.796 12.708V20.268H47.574C48.7407 20.268 49.66 19.9367 50.332 19.274C51.004 18.602 51.34 17.6733 51.34 16.488C51.34 15.312 51.004 14.388 50.332 13.716C49.66 13.044 48.7407 12.708 47.574 12.708H45.796ZM53.3666 18.07C53.3666 17.0153 53.6979 16.1427 54.3606 15.452C55.0326 14.7613 55.8773 14.416 56.8946 14.416C57.9119 14.416 58.7519 14.7613 59.4146 15.452C60.0866 16.1427 60.4226 17.0153 60.4226 18.07C60.4226 19.134 60.0866 20.0067 59.4146 20.688C58.7519 21.3787 57.9119 21.724 56.8946 21.724C55.8773 21.724 55.0326 21.3787 54.3606 20.688C53.6979 19.9973 53.3666 19.1247 53.3666 18.07ZM54.6546 18.07C54.6546 18.8073 54.8693 19.4047 55.2986 19.862C55.7279 20.3193 56.2599 20.548 56.8946 20.548C57.5293 20.548 58.0613 20.3193 58.4906 19.862C58.9199 19.4047 59.1346 18.8073 59.1346 18.07C59.1346 17.342 58.9199 16.7493 58.4906 16.292C58.0519 15.8253 57.5199 15.592 56.8946 15.592C56.2693 15.592 55.7373 15.8253 55.2986 16.292C54.8693 16.7493 54.6546 17.342 54.6546 18.07ZM62.7439 21.5H61.4559V14.64H62.6879V15.592H62.7439C62.9399 15.256 63.2385 14.976 63.6399 14.752C64.0505 14.528 64.4565 14.416 64.8579 14.416C65.3619 14.416 65.8052 14.5327 66.1879 14.766C66.5705 14.9993 66.8505 15.3213 67.0279 15.732C67.5972 14.8547 68.3859 14.416 69.3939 14.416C70.1872 14.416 70.7985 14.6587 71.2279 15.144C71.6572 15.6293 71.8719 16.32 71.8719 17.216V21.5H70.5839V17.412C70.5839 16.768 70.4672 16.306 70.2339 16.026C70.0005 15.7367 69.6085 15.592 69.0579 15.592C68.5632 15.592 68.1479 15.802 67.8119 16.222C67.4759 16.642 67.3079 17.1367 67.3079 17.706V21.5H66.0199V17.412C66.0199 16.768 65.9032 16.306 65.6699 16.026C65.4365 15.7367 65.0445 15.592 64.4939 15.592C63.9992 15.592 63.5839 15.802 63.2479 16.222C62.9119 16.642 62.7439 17.1367 62.7439 17.706V21.5ZM74.2474 19.4C74.2474 19.736 74.3874 20.016 74.6674 20.24C74.9567 20.464 75.2927 20.576 75.6754 20.576C76.2167 20.576 76.6974 20.3753 77.1174 19.974C77.5467 19.5727 77.7614 19.1013 77.7614 18.56C77.3601 18.2427 76.8001 18.084 76.0814 18.084C75.5587 18.084 75.1201 18.21 74.7654 18.462C74.4201 18.714 74.2474 19.0267 74.2474 19.4ZM75.9134 14.416C76.8654 14.416 77.6167 14.6727 78.1674 15.186C78.7181 15.69 78.9934 16.3853 78.9934 17.272V21.5H77.7614V20.548H77.7054C77.1734 21.332 76.4641 21.724 75.5774 21.724C74.8214 21.724 74.1867 21.5 73.6734 21.052C73.1694 20.604 72.9174 20.044 72.9174 19.372C72.9174 18.6627 73.1834 18.098 73.7154 17.678C74.2567 17.258 74.9754 17.048 75.8714 17.048C76.6367 17.048 77.2667 17.188 77.7614 17.468V17.174C77.7614 16.726 77.5841 16.348 77.2294 16.04C76.8747 15.7227 76.4594 15.564 75.9834 15.564C75.2647 15.564 74.6954 15.8673 74.2754 16.474L73.1414 15.76C73.7667 14.864 74.6907 14.416 75.9134 14.416ZM82.1121 12.274C82.1121 12.526 82.0234 12.7407 81.8461 12.918C81.6688 13.0953 81.4541 13.184 81.2021 13.184C80.9501 13.184 80.7354 13.0953 80.5581 12.918C80.3808 12.7407 80.2921 12.526 80.2921 12.274C80.2921 12.022 80.3808 11.8073 80.5581 11.63C80.7354 11.4527 80.9501 11.364 81.2021 11.364C81.4541 11.364 81.6688 11.4527 81.8461 11.63C82.0234 11.8073 82.1121 12.022 82.1121 12.274ZM81.8461 14.64V21.5H80.5581V14.64H81.8461ZM83.5223 14.64H84.7543V15.592H84.8103C85.0063 15.256 85.3049 14.976 85.7063 14.752C86.1169 14.528 86.5416 14.416 86.9803 14.416C87.8203 14.416 88.4643 14.6587 88.9123 15.144C89.3696 15.62 89.5983 16.3013 89.5983 17.188V21.5H88.3103V17.272C88.2823 16.152 87.7176 15.592 86.6163 15.592C86.1029 15.592 85.6736 15.802 85.3283 16.222C84.9829 16.6327 84.8103 17.1273 84.8103 17.706V21.5H83.5223V14.64ZM96.2918 19.596C96.2918 20.1933 96.0305 20.6973 95.5078 21.108C94.9851 21.5187 94.3271 21.724 93.5338 21.724C92.8431 21.724 92.2365 21.5467 91.7138 21.192C91.1911 20.828 90.8178 20.352 90.5938 19.764L91.7418 19.274C91.9098 19.6847 92.1525 20.0067 92.4698 20.24C92.7965 20.464 93.1511 20.576 93.5338 20.576C93.9445 20.576 94.2851 20.4873 94.5558 20.31C94.8358 20.1327 94.9758 19.9227 94.9758 19.68C94.9758 19.2413 94.6398 18.9193 93.9678 18.714L92.7918 18.42C91.4571 18.084 90.7898 17.44 90.7898 16.488C90.7898 15.8627 91.0418 15.3633 91.5458 14.99C92.0591 14.6073 92.7125 14.416 93.5058 14.416C94.1125 14.416 94.6585 14.5607 95.1438 14.85C95.6385 15.1393 95.9838 15.5267 96.1798 16.012L95.0318 16.488C94.9011 16.1987 94.6865 15.9747 94.3878 15.816C94.0985 15.648 93.7718 15.564 93.4078 15.564C93.0718 15.564 92.7685 15.648 92.4978 15.816C92.2365 15.984 92.1058 16.1893 92.1058 16.432C92.1058 16.824 92.4745 17.104 93.2118 17.272L94.2478 17.538C95.6105 17.874 96.2918 18.56 96.2918 19.596Z" fill="#000C49"/>
</svg>
