<svg width="14" height="14" viewBox="0 0 14 14" fill="none" xmlns="http://www.w3.org/2000/svg">
<g id="Vector">
<path d="M1 3.13333C1 2.3866 1 2.01323 1.14532 1.72801C1.27316 1.47713 1.47713 1.27316 1.72801 1.14532C2.01323 1 2.3866 1 3.13333 1H3.53333C4.28007 1 4.65344 1 4.93865 1.14532C5.18954 1.27316 5.39351 1.47713 5.52134 1.72801C5.66667 2.01323 5.66667 2.3866 5.66667 3.13333V3.53333C5.66667 4.28007 5.66667 4.65344 5.52134 4.93865C5.39351 5.18954 5.18954 5.39351 4.93865 5.52134C4.65344 5.66667 4.28007 5.66667 3.53333 5.66667H3.13333C2.3866 5.66667 2.01323 5.66667 1.72801 5.52134C1.47713 5.39351 1.27316 5.18954 1.14532 4.93865C1 4.65344 1 4.28007 1 3.53333V3.13333Z" stroke="#111B52" stroke-width="1.3" stroke-linecap="round" stroke-linejoin="round"/>
<path d="M1 10.4667C1 9.71993 1 9.34656 1.14532 9.06135C1.27316 8.81046 1.47713 8.60649 1.72801 8.47866C2.01323 8.33333 2.3866 8.33333 3.13333 8.33333H3.53333C4.28007 8.33333 4.65344 8.33333 4.93865 8.47866C5.18954 8.60649 5.39351 8.81046 5.52134 9.06135C5.66667 9.34656 5.66667 9.71993 5.66667 10.4667V10.8667C5.66667 11.6134 5.66667 11.9868 5.52134 12.272C5.39351 12.5229 5.18954 12.7268 4.93865 12.8547C4.65344 13 4.28007 13 3.53333 13H3.13333C2.3866 13 2.01323 13 1.72801 12.8547C1.47713 12.7268 1.27316 12.5229 1.14532 12.272C1 11.9868 1 11.6134 1 10.8667V10.4667Z" stroke="#111B52" stroke-width="1.3" stroke-linecap="round" stroke-linejoin="round"/>
<path d="M8.33333 3.13333C8.33333 2.3866 8.33333 2.01323 8.47866 1.72801C8.60649 1.47713 8.81046 1.27316 9.06135 1.14532C9.34656 1 9.71993 1 10.4667 1H10.8667C11.6134 1 11.9868 1 12.272 1.14532C12.5229 1.27316 12.7268 1.47713 12.8547 1.72801C13 2.01323 13 2.3866 13 3.13333V3.53333C13 4.28007 13 4.65344 12.8547 4.93865C12.7268 5.18954 12.5229 5.39351 12.272 5.52134C11.9868 5.66667 11.6134 5.66667 10.8667 5.66667H10.4667C9.71993 5.66667 9.34656 5.66667 9.06135 5.52134C8.81046 5.39351 8.60649 5.18954 8.47866 4.93865C8.33333 4.65344 8.33333 4.28007 8.33333 3.53333V3.13333Z" stroke="#111B52" stroke-width="1.3" stroke-linecap="round" stroke-linejoin="round"/>
<path d="M8.33333 10.4667C8.33333 9.71993 8.33333 9.34656 8.47866 9.06135C8.60649 8.81046 8.81046 8.60649 9.06135 8.47866C9.34656 8.33333 9.71993 8.33333 10.4667 8.33333H10.8667C11.6134 8.33333 11.9868 8.33333 12.272 8.47866C12.5229 8.60649 12.7268 8.81046 12.8547 9.06135C13 9.34656 13 9.71993 13 10.4667V10.8667C13 11.6134 13 11.9868 12.8547 12.272C12.7268 12.5229 12.5229 12.7268 12.272 12.8547C11.9868 13 11.6134 13 10.8667 13H10.4667C9.71993 13 9.34656 13 9.06135 12.8547C8.81046 12.7268 8.60649 12.5229 8.47866 12.272C8.33333 11.9868 8.33333 11.6134 8.33333 10.8667V10.4667Z" stroke="#111B52" stroke-width="1.3" stroke-linecap="round" stroke-linejoin="round"/>
</g>
</svg>
