<svg width="30" height="30" viewBox="0 0 30 30" fill="none" xmlns="http://www.w3.org/2000/svg">
<path id="icon" d="M17.6608 18.66C18.7931 22.014 19.5758 25.529 19.9655 29.1618C18.4114 29.7066 16.7402 30.0031 14.9999 30.0031C11.9086 30.0031 9.03568 29.068 6.64855 27.4654C8.94581 23.2093 12.9071 19.9835 17.6608 18.66ZM29.3601 19.3548C28.2848 22.9067 25.9277 25.9016 22.8271 27.8017C22.4012 24.4585 21.6608 21.2135 20.6367 18.0972C23.5911 17.7933 26.6128 18.2216 29.3601 19.3548ZM15.2165 12.728C15.7157 13.7458 16.1811 14.7831 16.611 15.8386C11.3697 17.3668 6.97575 20.8832 4.30022 25.5164C1.22935 22.3919 -0.334322 17.9889 0.0600387 13.6319C5.07406 14.6946 10.3649 14.3851 15.2165 12.728ZM26.5815 5.46603C29.0771 8.49375 30.2906 12.4544 29.9409 16.3575C26.6568 15.1131 23.0663 14.7195 19.5893 15.2017C19.1061 13.9799 18.5783 12.7806 18.008 11.6056C21.2408 10.1016 24.1445 8.00923 26.5815 5.46603ZM7.89747 1.78454C10.1311 4.31887 12.1095 7.08353 13.7925 10.0384C9.55872 11.3957 4.97511 11.6163 0.628747 10.6847C1.78058 6.84475 4.42941 3.65209 7.89747 1.78454ZM14.9999 0C18.5827 0 21.8722 1.256 24.452 3.3517C22.2327 5.67748 19.5782 7.58431 16.619 8.9415C14.9579 5.96663 13.0156 3.17005 10.8283 0.58764C12.1526 0.205026 13.5524 0 14.9999 0Z" fill="#353535"/>
</svg>
