<svg xmlns="http://www.w3.org/2000/svg" width="14" height="14" viewBox="0 0 14 14" fill="none">
  <path d="M0.636364 13.3636H1.54545L11.5227 3.38636L10.6136 2.47727L0.636364 12.4545V13.3636ZM0.681818 14C0.488636 14 0.326705 13.9347 0.196023 13.804C0.0653409 13.6733 0 13.5114 0 13.3182V12.75C0 12.5615 0.0378788 12.3817 0.113636 12.2109C0.189394 12.04 0.287879 11.8939 0.409091 11.7727L11.9773 0.181818C12.0438 0.123848 12.1172 0.0790525 12.1976 0.0474313C12.278 0.01581 12.3612 0 12.4472 0C12.5332 0 12.6166 0.0113636 12.6972 0.0340909C12.7779 0.0568182 12.8561 0.106061 12.9318 0.181818L13.8182 1.06818C13.8939 1.14394 13.9432 1.2228 13.9659 1.30477C13.9886 1.38674 14 1.4687 14 1.55066C14 1.6381 13.9855 1.72201 13.9565 1.80239C13.9275 1.88276 13.8814 1.95621 13.8182 2.02273L2.22727 13.5909C2.10606 13.7121 1.96002 13.8106 1.78914 13.8864C1.61826 13.9621 1.43855 14 1.25 14H0.681818ZM11.0602 2.9398L10.6136 2.47727L11.5227 3.38636L11.0602 2.9398Z" fill="#BA75DA"/>
</svg>