<svg width="29" height="29" viewBox="0 0 29 29" fill="none" xmlns="http://www.w3.org/2000/svg">
<path id="error" d="M14.5 21.75C14.9108 21.75 15.2552 21.611 15.5331 21.3331C15.811 21.0552 15.95 20.7108 15.95 20.3C15.95 19.8892 15.811 19.5448 15.5331 19.2669C15.2552 18.989 14.9108 18.85 14.5 18.85C14.0892 18.85 13.7448 18.989 13.4669 19.2669C13.189 19.5448 13.05 19.8892 13.05 20.3C13.05 20.7108 13.189 21.0552 13.4669 21.3331C13.7448 21.611 14.0892 21.75 14.5 21.75ZM13.05 15.95H15.95V7.25H13.05V15.95ZM14.5 29C12.4942 29 10.6092 28.6194 8.845 27.8581C7.08083 27.0969 5.54625 26.0638 4.24125 24.7588C2.93625 23.4538 1.90313 21.9192 1.14188 20.155C0.380625 18.3908 0 16.5058 0 14.5C0 12.4942 0.380625 10.6092 1.14188 8.845C1.90313 7.08083 2.93625 5.54625 4.24125 4.24125C5.54625 2.93625 7.08083 1.90313 8.845 1.14188C10.6092 0.380625 12.4942 0 14.5 0C16.5058 0 18.3908 0.380625 20.155 1.14188C21.9192 1.90313 23.4538 2.93625 24.7588 4.24125C26.0638 5.54625 27.0969 7.08083 27.8581 8.845C28.6194 10.6092 29 12.4942 29 14.5C29 16.5058 28.6194 18.3908 27.8581 20.155C27.0969 21.9192 26.0638 23.4538 24.7588 24.7588C23.4538 26.0638 21.9192 27.0969 20.155 27.8581C18.3908 28.6194 16.5058 29 14.5 29ZM14.5 26.1C17.7383 26.1 20.4813 24.9763 22.7288 22.7288C24.9763 20.4813 26.1 17.7383 26.1 14.5C26.1 11.2617 24.9763 8.51875 22.7288 6.27125C20.4813 4.02375 17.7383 2.9 14.5 2.9C11.2617 2.9 8.51875 4.02375 6.27125 6.27125C4.02375 8.51875 2.9 11.2617 2.9 14.5C2.9 17.7383 4.02375 20.4813 6.27125 22.7288C8.51875 24.9763 11.2617 26.1 14.5 26.1Z" fill="#EB6B6B"/>
</svg>
