<svg width="29" height="28" viewBox="0 0 29 28" fill="none" xmlns="http://www.w3.org/2000/svg">
<g id="Vector">
<path fill-rule="evenodd" clip-rule="evenodd" d="M16.9866 7.03366H4.67768C3.71477 7.03366 2.93335 7.81472 2.93335 8.77721V23.9226C2.93335 24.8851 3.71477 25.6661 4.67768 25.6661H19.8648C20.8277 25.6661 21.6091 24.8851 21.6091 23.9226V11.7002H23.9429V24.503C23.9429 26.4326 22.3754 27.9994 20.4443 28H4.09818C2.16711 28 0.599609 26.4326 0.599609 24.503V8.1968C0.599609 6.26659 2.16711 4.69978 4.09818 4.69978H16.9866V7.03366Z" fill="#353535"/>
<path fill-rule="evenodd" clip-rule="evenodd" d="M28.5996 10.1031H26.2623V3.98934L9.98391 20.2599L8.33121 18.608L24.6102 2.33621H18.4919V0H28.5984L28.5996 0.000583558V10.1031Z" fill="#353535"/>
</g>
</svg>
