<svg width="265" height="421" viewBox="0 0 265 421" fill="none" xmlns="http://www.w3.org/2000/svg">
<path d="M102.84 53.7762C75.1793 62.5525 76.7655 42.3691 49.0634 40.7396C21.3613 39.11 -2.28171 154.504 0.17593 215.105C4.08693 311.576 86.5438 343.299 127.283 347.101C153.9 349.817 213.977 341.886 241.354 288.436C275.575 221.623 269.057 195.55 244.613 101.034C220.17 6.51833 176.171 0 164.764 0C145.916 0 123.887 47.0983 102.84 53.7762Z" fill="#F7BD2E"/>
<line x1="134.5" y1="293.325" x2="134.5" y2="420.433" stroke="#353535" stroke-width="9"/>
<path d="M129.478 286.919C107.316 281.705 113.182 249.439 118.071 244.55C122.96 239.661 140.885 239.662 147.404 249.439C153.922 259.216 151.641 292.134 129.478 286.919Z" fill="#EB6B6B"/>
</svg>
