<svg xmlns="http://www.w3.org/2000/svg" width="38" height="38" viewBox="0 0 38 38" fill="none">
  <path d="M20.583 19C20.583 24.2467 16.3297 28.5 11.083 28.5C5.8363 28.5 1.58301 24.2467 1.58301 19C1.58301 13.7533 5.8363 9.5 11.083 9.5C16.3297 9.5 20.583 13.7533 20.583 19Z" fill="#353535"/>
  <path d="M36.4167 18.9999C36.4167 23.3721 35.7078 26.9166 34.8333 26.9166C33.9589 26.9166 33.25 23.3721 33.25 18.9999C33.25 14.6277 33.9589 11.0833 34.8333 11.0833C35.7078 11.0833 36.4167 14.6277 36.4167 18.9999Z" fill="#353535"/>
  <path d="M26.916 28.5C29.5394 28.5 31.666 24.2467 31.666 19C31.666 13.7533 29.5394 9.5 26.916 9.5C24.2926 9.5 22.166 13.7533 22.166 19C22.166 24.2467 24.2926 28.5 26.916 28.5Z" fill="#353535"/>
</svg>