<svg xmlns="http://www.w3.org/2000/svg" width="38" height="38" viewBox="0 0 38 38" fill="none">
  <path fill-rule="evenodd" clip-rule="evenodd" d="M38 38H30.4V24.7019C30.4 21.0539 28.7907 19.0186 25.9046 19.0186C22.7639 19.0186 20.9 21.1394 20.9 24.7019V38H13.3V13.3H20.9V16.0776C20.9 16.0776 23.2845 11.8936 28.6577 11.8936C34.0328 11.8936 38 15.1736 38 21.9604V38ZM4.6398 9.34971C2.0767 9.34971 0 7.25603 0 4.67393C0 2.09373 2.0767 0 4.6398 0C7.201 0 9.27769 2.09373 9.27769 4.67393C9.27959 7.25603 7.201 9.34971 4.6398 9.34971ZM0 38H9.5V13.3H0V38Z" fill="#353535"/>
</svg>