<svg xmlns="http://www.w3.org/2000/svg" width="38" height="38" viewBox="0 0 38 38" fill="none">
  <g clip-path="url(#clip0_137_317)">
    <path fill-rule="evenodd" clip-rule="evenodd" d="M15.178 23.9136V13.2511C18.9632 15.0322 21.8948 16.7528 25.3621 18.6079C22.5023 20.1938 18.9632 21.9733 15.178 23.9136ZM36.2729 7.94819C35.62 7.08795 34.5071 6.41832 33.3224 6.19663C29.84 5.53533 8.11487 5.53345 4.63439 6.19663C3.68431 6.37473 2.83829 6.80524 2.11153 7.47412C-0.950689 10.3163 0.00886574 25.5582 0.74698 28.0271C1.05736 29.0958 1.45861 29.8665 1.96394 30.3725C2.61499 31.0413 3.50639 31.5019 4.53028 31.7084C7.39756 32.3015 22.1693 32.6331 33.2618 31.7975C34.2838 31.6193 35.1884 31.144 35.9019 30.4467C38.7333 27.6158 38.5402 11.518 36.2729 7.94819Z" fill="#353535"/>
  </g>
  <defs>
    <clipPath id="clip0_137_317">
      <rect width="38" height="38" fill="white"/>
    </clipPath>
  </defs>
</svg>