<svg
                  xmlns="http://www.w3.org/2000/svg"
                  width="26"
                  height="26"
                  viewBox="0 0 26 26"
                  fill="none">
                  <path
                    d="M13 26C11.2017 26 9.51167 25.6589 7.93 24.9766C6.34833 24.2944 4.9725 23.3685 3.8025 22.1989C2.6325 21.0293 1.70625 19.654 1.02375 18.073C0.34125 16.4919 0 14.8025 0 13.0048C0 11.2072 0.341118 9.51704 1.02335 7.93448C1.70561 6.35192 2.63153 4.97531 3.80109 3.80463C4.97066 2.63398 6.34597 1.70721 7.92704 1.02433C9.50813 0.341444 11.1975 0 12.9952 0C14.7928 0 16.483 0.341249 18.0655 1.02375C19.6481 1.70625 21.0247 2.6325 22.1954 3.8025C23.366 4.9725 24.2928 6.34833 24.9757 7.93C25.6586 9.51167 26 11.2017 26 13V14.4278C26 15.6445 25.5821 16.6736 24.7464 17.5153C23.9107 18.357 22.8841 18.7778 21.6667 18.7778C20.8056 18.7778 20.0204 18.5417 19.3111 18.0695C18.6019 17.5972 18.0778 16.9685 17.7389 16.1833C17.1889 16.9741 16.5023 17.6042 15.6792 18.0736C14.856 18.5431 13.963 18.7778 13 18.7778C11.3907 18.7778 10.0255 18.2171 8.90417 17.0958C7.78287 15.9745 7.22222 14.6093 7.22222 13C7.22222 11.3907 7.78287 10.0255 8.90417 8.90417C10.0255 7.78287 11.3907 7.22222 13 7.22222C14.6093 7.22222 15.9745 7.78287 17.0958 8.90417C18.2171 10.0255 18.7778 11.3907 18.7778 13V14.4278C18.7778 15.2204 19.0611 15.9028 19.6278 16.475C20.1945 17.0472 20.8741 17.3333 21.6667 17.3333C22.4593 17.3333 23.1389 17.0472 23.7056 16.475C24.2722 15.9028 24.5556 15.2204 24.5556 14.4278V13C24.5556 9.77407 23.4361 7.04167 21.1972 4.80278C18.9583 2.56389 16.2259 1.44444 13 1.44444C9.77407 1.44444 7.04167 2.56389 4.80278 4.80278C2.56389 7.04167 1.44444 9.77407 1.44444 13C1.44444 16.2259 2.56389 18.9583 4.80278 21.1972C7.04167 23.4361 9.77407 24.5556 13 24.5556H19.5C19.7046 24.5556 19.8762 24.6249 20.0146 24.7635C20.153 24.9021 20.2222 25.0739 20.2222 25.2788C20.2222 25.4837 20.153 25.6551 20.0146 25.793C19.8762 25.931 19.7046 26 19.5 26H13ZM13 17.3333C14.2037 17.3333 15.2269 16.912 16.0694 16.0694C16.912 15.2269 17.3333 14.2037 17.3333 13C17.3333 11.7963 16.912 10.7731 16.0694 9.93056C15.2269 9.08796 14.2037 8.66667 13 8.66667C11.7963 8.66667 10.7731 9.08796 9.93056 9.93056C9.08796 10.7731 8.66667 11.7963 8.66667 13C8.66667 14.2037 9.08796 15.2269 9.93056 16.0694C10.7731 16.912 11.7963 17.3333 13 17.3333Z"
                    fill="#353535"
                  />
                </svg>