<svg width="552" height="184" viewBox="0 0 552 184" fill="none" xmlns="http://www.w3.org/2000/svg">
<path d="M29.6168 125.081C29.6168 128.973 28.4623 132.074 26.1531 134.383C23.5586 137.133 20.1467 138.508 15.9176 138.508C11.8701 138.508 8.44528 137.107 5.64316 134.305C2.84104 131.503 1.43998 128.052 1.43998 123.953C1.43998 119.853 2.84104 116.403 5.64316 113.6C8.44528 110.798 11.8701 109.397 15.9176 109.397C17.9673 109.397 19.9002 109.761 21.7164 110.487C23.5326 111.213 25.0245 112.238 26.192 113.562L23.6234 116.13C22.7672 115.092 21.6516 114.288 20.2764 113.717C18.9273 113.12 17.4743 112.822 15.9176 112.822C12.882 112.822 10.3134 113.873 8.21177 115.974C6.13612 118.102 5.0983 120.761 5.0983 123.953C5.0983 127.144 6.13612 129.803 8.21177 131.931C10.3134 134.033 12.882 135.083 15.9176 135.083C18.6938 135.083 21.0029 134.305 22.8451 132.748C24.6872 131.192 25.751 129.051 26.0364 126.327H15.9176V122.98H29.4223C29.552 123.706 29.6168 124.407 29.6168 125.081ZM32.0647 128.351C32.0647 125.419 32.9858 122.993 34.8279 121.073C36.696 119.153 39.0441 118.193 41.8722 118.193C44.7002 118.193 47.0353 119.153 48.8775 121.073C50.7455 122.993 51.6796 125.419 51.6796 128.351C51.6796 131.308 50.7455 133.734 48.8775 135.628C47.0353 137.548 44.7002 138.508 41.8722 138.508C39.0441 138.508 36.696 137.548 34.8279 135.628C32.9858 133.708 32.0647 131.282 32.0647 128.351ZM35.6452 128.351C35.6452 130.4 36.242 132.061 37.4355 133.332C38.629 134.603 40.1079 135.239 41.8722 135.239C43.6365 135.239 45.1154 134.603 46.3089 133.332C47.5023 132.061 48.0991 130.4 48.0991 128.351C48.0991 126.327 47.5023 124.679 46.3089 123.408C45.0894 122.111 43.6105 121.462 41.8722 121.462C40.1338 121.462 38.6549 122.111 37.4355 123.408C36.242 124.679 35.6452 126.327 35.6452 128.351ZM53.8423 128.351C53.8423 125.419 54.7634 122.993 56.6055 121.073C58.4736 119.153 60.8216 118.193 63.6497 118.193C66.4778 118.193 68.8129 119.153 70.655 121.073C72.5231 122.993 73.4571 125.419 73.4571 128.351C73.4571 131.308 72.5231 133.734 70.655 135.628C68.8129 137.548 66.4778 138.508 63.6497 138.508C60.8216 138.508 58.4736 137.548 56.6055 135.628C54.7634 133.708 53.8423 131.282 53.8423 128.351ZM57.4228 128.351C57.4228 130.4 58.0195 132.061 59.213 133.332C60.4065 134.603 61.8854 135.239 63.6497 135.239C65.414 135.239 66.8929 134.603 68.0864 133.332C69.2799 132.061 69.8766 130.4 69.8766 128.351C69.8766 126.327 69.2799 124.679 68.0864 123.408C66.867 122.111 65.3881 121.462 63.6497 121.462C61.9114 121.462 60.4325 122.111 59.213 123.408C58.0195 124.679 57.4228 126.327 57.4228 128.351ZM85.2716 135.239C87.0359 135.239 88.4758 134.603 89.5915 133.332C90.759 132.061 91.3428 130.4 91.3428 128.351C91.3428 126.353 90.759 124.705 89.5915 123.408C88.4499 122.111 87.0099 121.462 85.2716 121.462C83.5592 121.462 82.1192 122.111 80.9516 123.408C79.7841 124.705 79.2003 126.353 79.2003 128.351C79.2003 130.374 79.7841 132.022 80.9516 133.293C82.1192 134.59 83.5592 135.239 85.2716 135.239ZM85.1548 146.915C84.091 146.915 83.0921 146.772 82.1581 146.486C81.2241 146.227 80.3679 145.851 79.5895 145.358C78.8371 144.865 78.1884 144.281 77.6436 143.606C77.0987 142.932 76.6836 142.179 76.3982 141.349L79.7841 139.948C80.1733 141.064 80.8478 141.959 81.8078 142.634C82.7678 143.308 83.8835 143.645 85.1548 143.645C87.1007 143.645 88.6185 143.062 89.7083 141.894C90.798 140.727 91.3428 139.118 91.3428 137.068V135.239H91.1871C90.5126 136.251 89.5915 137.055 88.4239 137.652C87.2823 138.223 86.037 138.508 84.6878 138.508C82.197 138.508 80.0565 137.535 78.2663 135.589C76.502 133.592 75.6198 131.179 75.6198 128.351C75.6198 125.522 76.502 123.122 78.2663 121.151C80.0565 119.179 82.197 118.193 84.6878 118.193C86.037 118.193 87.2823 118.491 88.4239 119.088C89.5915 119.659 90.5126 120.45 91.1871 121.462H91.3428V118.816H94.7676V137.068C94.7676 140.13 93.8985 142.53 92.1601 144.268C90.3958 146.032 88.0607 146.915 85.1548 146.915ZM102.714 110.02V137.885H99.1332V110.02H102.714ZM115.448 138.508C112.646 138.508 110.337 137.548 108.521 135.628C106.705 133.708 105.797 131.282 105.797 128.351C105.797 125.445 106.679 123.032 108.443 121.112C110.207 119.166 112.465 118.193 115.215 118.193C118.043 118.193 120.287 119.114 121.948 120.956C123.634 122.772 124.478 125.328 124.478 128.623L124.439 129.012H109.455C109.507 130.88 110.13 132.385 111.323 133.527C112.517 134.668 113.944 135.239 115.604 135.239C117.887 135.239 119.678 134.097 120.975 131.814L124.166 133.371C123.31 134.98 122.116 136.238 120.586 137.146C119.081 138.054 117.368 138.508 115.448 138.508ZM109.727 126.054H120.664C120.56 124.731 120.015 123.641 119.029 122.785C118.069 121.903 116.772 121.462 115.137 121.462C113.788 121.462 112.62 121.877 111.634 122.707C110.674 123.538 110.039 124.653 109.727 126.054ZM136.926 137.885V110.02H145.449C149.704 110.02 153.116 111.304 155.685 113.873C158.279 116.442 159.576 119.801 159.576 123.953C159.576 128.13 158.279 131.503 155.685 134.072C153.116 136.614 149.704 137.885 145.449 137.885H136.926ZM140.506 113.445V134.461H145.449C148.692 134.461 151.248 133.54 153.116 131.697C154.984 129.829 155.918 127.248 155.918 123.953C155.918 120.684 154.984 118.115 153.116 116.247C151.248 114.379 148.692 113.445 145.449 113.445H140.506ZM171.204 138.508C168.401 138.508 166.092 137.548 164.276 135.628C162.46 133.708 161.552 131.282 161.552 128.351C161.552 125.445 162.434 123.032 164.198 121.112C165.963 119.166 168.22 118.193 170.97 118.193C173.798 118.193 176.042 119.114 177.703 120.956C179.389 122.772 180.233 125.328 180.233 128.623L180.194 129.012H165.21C165.262 130.88 165.885 132.385 167.078 133.527C168.272 134.668 169.699 135.239 171.359 135.239C173.642 135.239 175.433 134.097 176.73 131.814L179.921 133.371C179.065 134.98 177.872 136.238 176.341 137.146C174.836 138.054 173.123 138.508 171.204 138.508ZM165.483 126.054H176.419C176.315 124.731 175.77 123.641 174.784 122.785C173.824 121.903 172.527 121.462 170.892 121.462C169.543 121.462 168.375 121.877 167.39 122.707C166.43 123.538 165.794 124.653 165.483 126.054ZM192.389 137.885H188.809L181.103 118.816H184.995L190.599 133.604H190.677L196.359 118.816H200.173L192.389 137.885ZM210.502 138.508C207.7 138.508 205.391 137.548 203.574 135.628C201.758 133.708 200.85 131.282 200.85 128.351C200.85 125.445 201.732 123.032 203.497 121.112C205.261 119.166 207.518 118.193 210.268 118.193C213.096 118.193 215.341 119.114 217.001 120.956C218.688 122.772 219.531 125.328 219.531 128.623L219.492 129.012H204.508C204.56 130.88 205.183 132.385 206.377 133.527C207.57 134.668 208.997 135.239 210.658 135.239C212.941 135.239 214.731 134.097 216.028 131.814L219.22 133.371C218.363 134.98 217.17 136.238 215.639 137.146C214.134 138.054 212.422 138.508 210.502 138.508ZM204.781 126.054H215.717C215.613 124.731 215.068 123.641 214.082 122.785C213.122 121.903 211.825 121.462 210.191 121.462C208.841 121.462 207.674 121.877 206.688 122.707C205.728 123.538 205.092 124.653 204.781 126.054ZM226.386 110.02V137.885H222.805V110.02H226.386ZM229.469 128.351C229.469 125.419 230.39 122.993 232.232 121.073C234.1 119.153 236.448 118.193 239.276 118.193C242.104 118.193 244.439 119.153 246.282 121.073C248.15 122.993 249.084 125.419 249.084 128.351C249.084 131.308 248.15 133.734 246.282 135.628C244.439 137.548 242.104 138.508 239.276 138.508C236.448 138.508 234.1 137.548 232.232 135.628C230.39 133.708 229.469 131.282 229.469 128.351ZM233.049 128.351C233.049 130.4 233.646 132.061 234.84 133.332C236.033 134.603 237.512 135.239 239.276 135.239C241.041 135.239 242.519 134.603 243.713 133.332C244.906 132.061 245.503 130.4 245.503 128.351C245.503 126.327 244.906 124.679 243.713 123.408C242.493 122.111 241.015 121.462 239.276 121.462C237.538 121.462 236.059 122.111 234.84 123.408C233.646 124.679 233.049 126.327 233.049 128.351ZM261.486 135.239C263.199 135.239 264.639 134.59 265.806 133.293C266.974 132.022 267.558 130.374 267.558 128.351C267.558 126.353 266.974 124.705 265.806 123.408C264.639 122.111 263.199 121.462 261.486 121.462C259.748 121.462 258.295 122.111 257.128 123.408C255.986 124.705 255.415 126.353 255.415 128.351C255.415 130.374 255.986 132.035 257.128 133.332C258.295 134.603 259.748 135.239 261.486 135.239ZM262.07 138.508C260.669 138.508 259.385 138.21 258.217 137.613C257.076 137.016 256.194 136.225 255.571 135.239H255.415L255.571 137.885V146.292H251.99V118.816H255.415V121.462H255.571C256.194 120.476 257.076 119.685 258.217 119.088C259.385 118.491 260.669 118.193 262.07 118.193C264.587 118.193 266.714 119.179 268.453 121.151C270.243 123.148 271.138 125.548 271.138 128.351C271.138 131.179 270.243 133.579 268.453 135.55C266.714 137.522 264.587 138.508 262.07 138.508ZM282.98 138.508C280.178 138.508 277.868 137.548 276.052 135.628C274.236 133.708 273.328 131.282 273.328 128.351C273.328 125.445 274.21 123.032 275.974 121.112C277.739 119.166 279.996 118.193 282.746 118.193C285.574 118.193 287.819 119.114 289.479 120.956C291.165 122.772 292.009 125.328 292.009 128.623L291.97 129.012H276.986C277.038 130.88 277.661 132.385 278.854 133.527C280.048 134.668 281.475 135.239 283.135 135.239C285.419 135.239 287.209 134.097 288.506 131.814L291.697 133.371C290.841 134.98 289.648 136.238 288.117 137.146C286.612 138.054 284.9 138.508 282.98 138.508ZM277.259 126.054H288.195C288.091 124.731 287.546 123.641 286.56 122.785C285.6 121.903 284.303 121.462 282.668 121.462C281.319 121.462 280.152 121.877 279.166 122.707C278.206 123.538 277.57 124.653 277.259 126.054ZM298.864 137.885H295.283V118.816H298.708V121.929H298.864C299.227 120.917 299.966 120.061 301.082 119.36C302.223 118.634 303.339 118.271 304.429 118.271C305.467 118.271 306.349 118.426 307.075 118.738L305.986 122.201C305.545 122.02 304.844 121.929 303.884 121.929C302.535 121.929 301.354 122.474 300.342 123.564C299.357 124.653 298.864 125.925 298.864 127.378V137.885ZM334.619 130.452C334.619 132.891 333.724 134.85 331.934 136.329C330.118 137.782 327.912 138.508 325.318 138.508C323.008 138.508 320.972 137.834 319.207 136.484C317.443 135.135 316.224 133.293 315.549 130.958L318.974 129.557C319.207 130.387 319.532 131.14 319.947 131.814C320.362 132.489 320.842 133.073 321.387 133.566C321.958 134.033 322.58 134.409 323.255 134.694C323.93 134.954 324.643 135.083 325.395 135.083C327.03 135.083 328.366 134.668 329.404 133.838C330.442 132.982 330.961 131.853 330.961 130.452C330.961 129.285 330.533 128.286 329.677 127.455C328.872 126.651 327.367 125.873 325.162 125.12C322.931 124.316 321.543 123.771 320.998 123.486C318.04 121.981 316.561 119.763 316.561 116.831C316.561 114.781 317.378 113.03 319.013 111.577C320.673 110.124 322.71 109.397 325.123 109.397C327.251 109.397 329.093 109.942 330.649 111.032C332.206 112.096 333.244 113.432 333.763 115.04L330.416 116.442C330.105 115.404 329.482 114.547 328.548 113.873C327.64 113.172 326.524 112.822 325.201 112.822C323.8 112.822 322.619 113.211 321.659 113.99C320.699 114.716 320.219 115.663 320.219 116.831C320.219 117.791 320.596 118.621 321.348 119.321C322.178 120.022 323.981 120.852 326.758 121.812C329.586 122.772 331.596 123.953 332.79 125.354C334.009 126.729 334.619 128.428 334.619 130.452ZM344.868 138.197C343.311 138.197 342.014 137.717 340.976 136.757C339.964 135.797 339.445 134.461 339.419 132.748V122.085H336.072V118.816H339.419V112.978H343V118.816H347.67V122.085H343V131.581C343 132.852 343.246 133.721 343.739 134.188C344.232 134.629 344.79 134.85 345.413 134.85C345.698 134.85 345.971 134.824 346.23 134.772C346.516 134.694 346.775 134.603 347.009 134.5L348.137 137.691C347.203 138.028 346.113 138.197 344.868 138.197ZM367.811 137.885H364.386V135.239H364.231C363.686 136.173 362.842 136.951 361.701 137.574C360.585 138.197 359.418 138.508 358.198 138.508C355.863 138.508 354.06 137.847 352.789 136.523C351.543 135.174 350.92 133.267 350.92 130.802V118.816H354.501V130.569C354.579 133.682 356.148 135.239 359.21 135.239C360.637 135.239 361.831 134.668 362.791 133.527C363.751 132.359 364.231 130.971 364.231 129.362V118.816H367.811V137.885ZM380.542 135.239C382.306 135.239 383.746 134.603 384.861 133.332C386.029 132.061 386.613 130.4 386.613 128.351C386.613 126.353 386.029 124.705 384.861 123.408C383.72 122.111 382.28 121.462 380.542 121.462C378.829 121.462 377.389 122.111 376.222 123.408C375.054 124.705 374.47 126.353 374.47 128.351C374.47 130.374 375.054 132.022 376.222 133.293C377.389 134.59 378.829 135.239 380.542 135.239ZM379.958 138.508C377.467 138.508 375.326 137.522 373.536 135.55C371.772 133.553 370.89 131.153 370.89 128.351C370.89 125.548 371.772 123.148 373.536 121.151C375.326 119.179 377.467 118.193 379.958 118.193C381.359 118.193 382.63 118.491 383.772 119.088C384.939 119.685 385.834 120.476 386.457 121.462H386.613L386.457 118.816V110.02H390.038V137.885H386.613V135.239H386.457C385.834 136.225 384.939 137.016 383.772 137.613C382.63 138.21 381.359 138.508 379.958 138.508ZM402.775 138.508C399.973 138.508 397.664 137.548 395.848 135.628C394.031 133.708 393.123 131.282 393.123 128.351C393.123 125.445 394.006 123.032 395.77 121.112C397.534 119.166 399.791 118.193 402.542 118.193C405.37 118.193 407.614 119.114 409.275 120.956C410.961 122.772 411.804 125.328 411.804 128.623L411.765 129.012H396.782C396.834 130.88 397.456 132.385 398.65 133.527C399.843 134.668 401.27 135.239 402.931 135.239C405.214 135.239 407.004 134.097 408.302 131.814L411.493 133.371C410.637 134.98 409.443 136.238 407.912 137.146C406.408 138.054 404.695 138.508 402.775 138.508ZM397.054 126.054H407.99C407.886 124.731 407.342 123.641 406.356 122.785C405.396 121.903 404.098 121.462 402.464 121.462C401.115 121.462 399.947 121.877 398.961 122.707C398.001 123.538 397.366 124.653 397.054 126.054ZM415.079 118.816H418.503V121.462H418.659C419.204 120.528 420.034 119.75 421.15 119.127C422.291 118.504 423.472 118.193 424.691 118.193C427.026 118.193 428.817 118.867 430.062 120.217C431.333 121.54 431.969 123.434 431.969 125.899V137.885H428.389V126.132C428.311 123.019 426.741 121.462 423.679 121.462C422.252 121.462 421.059 122.046 420.099 123.213C419.139 124.355 418.659 125.73 418.659 127.339V137.885H415.079V118.816ZM442.734 138.197C441.177 138.197 439.88 137.717 438.842 136.757C437.83 135.797 437.311 134.461 437.285 132.748V122.085H433.938V118.816H437.285V112.978H440.866V118.816H445.536V122.085H440.866V131.581C440.866 132.852 441.112 133.721 441.605 134.188C442.098 134.629 442.656 134.85 443.279 134.85C443.564 134.85 443.837 134.824 444.096 134.772C444.381 134.694 444.641 134.603 444.874 134.5L446.003 137.691C445.069 138.028 443.979 138.197 442.734 138.197ZM470.471 138.508C466.346 138.508 462.895 137.12 460.119 134.344C457.369 131.568 455.994 128.104 455.994 123.953C455.994 119.801 457.369 116.351 460.119 113.6C462.869 110.798 466.32 109.397 470.471 109.397C474.675 109.397 478.086 110.915 480.707 113.951L478.138 116.442C476.141 114.029 473.585 112.822 470.471 112.822C467.384 112.822 464.802 113.86 462.727 115.936C460.677 117.985 459.652 120.658 459.652 123.953C459.652 127.248 460.677 129.92 462.727 131.97C464.802 134.046 467.384 135.083 470.471 135.083C473.715 135.083 476.53 133.721 478.917 130.997L481.524 133.527C480.201 135.109 478.579 136.342 476.659 137.224C474.74 138.08 472.677 138.508 470.471 138.508ZM488.286 110.02V137.885H484.706V110.02H488.286ZM509.384 137.885H505.959V135.239H505.804C505.259 136.173 504.415 136.951 503.274 137.574C502.158 138.197 500.991 138.508 499.771 138.508C497.436 138.508 495.633 137.847 494.362 136.523C493.116 135.174 492.493 133.267 492.493 130.802V118.816H496.074V130.569C496.152 133.682 497.721 135.239 500.783 135.239C502.21 135.239 503.404 134.668 504.364 133.527C505.324 132.359 505.804 130.971 505.804 129.362V118.816H509.384V137.885ZM523.822 138.508C522.421 138.508 521.137 138.21 519.969 137.613C518.828 137.016 517.946 136.225 517.323 135.239H517.167V137.885H513.743V110.02H517.323V118.816L517.167 121.462H517.323C517.946 120.476 518.828 119.685 519.969 119.088C521.137 118.491 522.421 118.193 523.822 118.193C526.339 118.193 528.467 119.179 530.205 121.151C531.995 123.148 532.89 125.548 532.89 128.351C532.89 131.179 531.995 133.579 530.205 135.55C528.467 137.522 526.339 138.508 523.822 138.508ZM523.239 135.239C524.951 135.239 526.391 134.59 527.559 133.293C528.726 132.022 529.31 130.374 529.31 128.351C529.31 126.353 528.726 124.705 527.559 123.408C526.391 122.111 524.951 121.462 523.239 121.462C521.5 121.462 520.047 122.111 518.88 123.408C517.738 124.705 517.167 126.353 517.167 128.351C517.167 130.374 517.738 132.035 518.88 133.332C520.047 134.603 521.5 135.239 523.239 135.239ZM550.571 132.593C550.571 134.253 549.844 135.654 548.391 136.796C546.938 137.937 545.109 138.508 542.904 138.508C540.984 138.508 539.297 138.015 537.844 137.029C536.391 136.017 535.353 134.694 534.731 133.06L537.922 131.697C538.389 132.839 539.064 133.734 539.946 134.383C540.854 135.006 541.84 135.317 542.904 135.317C544.045 135.317 544.992 135.07 545.745 134.577C546.523 134.084 546.912 133.501 546.912 132.826C546.912 131.607 545.978 130.712 544.11 130.141L540.841 129.323C537.131 128.389 535.276 126.599 535.276 123.953C535.276 122.214 535.976 120.826 537.377 119.788C538.804 118.725 540.62 118.193 542.826 118.193C544.512 118.193 546.03 118.595 547.379 119.399C548.754 120.204 549.714 121.28 550.259 122.63L547.068 123.953C546.705 123.148 546.108 122.526 545.278 122.085C544.473 121.618 543.565 121.384 542.553 121.384C541.619 121.384 540.776 121.618 540.024 122.085C539.297 122.552 538.934 123.122 538.934 123.797C538.934 124.887 539.959 125.665 542.009 126.132L544.888 126.872C548.677 127.806 550.571 129.713 550.571 132.593Z" fill="#353535"/>
<path d="M235.826 37.3125L260.801 22.9105C263.621 21.2825 265.679 18.6009 266.521 15.4556C267.364 12.3103 266.923 8.95906 265.295 6.13904C263.667 3.31903 260.985 1.26128 257.84 0.418442C254.695 -0.424391 251.344 0.0167392 248.524 1.6448L205.413 26.5365L235.826 37.3125Z" fill="#EA4335"/>
<path d="M254.468 74.6284C257.166 74.6226 259.787 73.7285 261.926 72.0843C264.066 70.4401 265.604 68.1372 266.304 65.5314C267.004 62.9256 266.827 60.1618 265.799 57.6669C264.772 55.172 262.951 53.0849 260.619 51.7278L217.509 26.8362C216.112 26.03 214.571 25.5068 212.972 25.2964C211.374 25.086 209.749 25.1925 208.192 25.6098C206.635 26.0271 205.175 26.7471 203.896 27.7287C202.616 28.7102 201.543 29.9341 200.737 31.3304C199.931 32.7267 199.408 34.2682 199.197 35.8667C198.987 37.4653 199.093 39.0896 199.511 40.647C199.928 42.2043 200.648 43.6643 201.63 44.9434C202.611 46.2225 203.835 47.2958 205.231 48.1019L248.342 72.9936C250.205 74.0663 252.318 74.6301 254.468 74.6284Z" fill="#4285F4"/>
<path d="M297.512 74.3419C299.664 74.3397 301.776 73.7715 303.638 72.6943L346.749 47.8026L316.698 36.7976L291.361 51.4285C289.029 52.7856 287.209 54.8727 286.181 57.3676C285.153 59.8625 284.976 62.6263 285.676 65.2321C286.376 67.8379 287.914 70.1408 290.054 71.785C292.193 73.4292 294.814 74.3233 297.512 74.3291V74.3419Z" fill="#FBBC04"/>
<path d="M340.606 49.4745C343.306 49.4725 345.93 48.5802 348.072 46.936C350.214 45.2917 351.754 42.9871 352.454 40.3791C353.154 37.7711 352.975 35.0051 351.944 32.5094C350.912 30.0137 349.087 27.9275 346.751 26.5739L303.641 1.68225C300.835 0.202638 297.567 -0.134094 294.519 0.742579C291.471 1.61925 288.881 3.64132 287.29 6.3852C285.7 9.12909 285.233 12.3819 285.988 15.4622C286.742 18.5426 288.659 21.2115 291.338 22.9098L334.455 47.8015C336.321 48.8936 338.443 49.4709 340.606 49.4745Z" fill="#0F9D58"/>
<path d="M65.6822 177.32C64.2048 177.32 62.928 176.919 61.8518 176.116C60.7757 175.313 60.0187 174.201 59.581 172.778L61.9613 171.793C62.5814 173.872 63.8217 174.912 65.6822 174.912C66.7036 174.912 67.5244 174.556 68.1446 173.845C68.783 173.116 69.1022 172.176 69.1022 171.027V157.292H71.6193V170.808C71.6193 172.833 71.0812 174.429 70.0051 175.596C68.9471 176.745 67.5062 177.32 65.6822 177.32ZM87.3352 171.656C87.3352 173.371 86.7059 174.748 85.4473 175.788C84.1706 176.809 82.6202 177.32 80.7962 177.32C79.1728 177.32 77.741 176.846 76.5007 175.897C75.2604 174.949 74.4031 173.654 73.9288 172.012L76.3365 171.027C76.5007 171.611 76.7287 172.14 77.0205 172.614C77.3124 173.088 77.6498 173.499 78.0328 173.845C78.4341 174.173 78.8719 174.438 79.3461 174.639C79.8203 174.821 80.3219 174.912 80.8509 174.912C82 174.912 82.9394 174.62 83.669 174.037C84.3986 173.435 84.7634 172.641 84.7634 171.656C84.7634 170.836 84.4624 170.133 83.8605 169.55C83.295 168.984 82.2371 168.437 80.6867 167.908C79.1181 167.343 78.1423 166.96 77.7592 166.759C75.6799 165.701 74.6402 164.142 74.6402 162.08C74.6402 160.639 75.2148 159.408 76.3639 158.387C77.5312 157.365 78.9631 156.855 80.6594 156.855C82.155 156.855 83.4501 157.238 84.5445 158.004C85.6389 158.752 86.3685 159.691 86.7333 160.822L84.3803 161.807C84.1614 161.077 83.7237 160.475 83.067 160.001C82.4286 159.509 81.6443 159.262 80.7141 159.262C79.7291 159.262 78.8992 159.536 78.2243 160.083C77.5495 160.594 77.212 161.26 77.212 162.08C77.212 162.755 77.4765 163.339 78.0055 163.831C78.5891 164.324 79.8568 164.908 81.8085 165.582C83.7966 166.257 85.2102 167.087 86.0493 168.072C86.9065 169.039 87.3352 170.234 87.3352 171.656ZM102.458 171.656C102.458 173.371 101.829 174.748 100.57 175.788C99.2933 176.809 97.7429 177.32 95.9189 177.32C94.2956 177.32 92.8637 176.846 91.6234 175.897C90.3831 174.949 89.5258 173.654 89.0516 172.012L91.4593 171.027C91.6234 171.611 91.8514 172.14 92.1432 172.614C92.4351 173.088 92.7725 173.499 93.1556 173.845C93.5568 174.173 93.9946 174.438 94.4688 174.639C94.9431 174.821 95.4447 174.912 95.9736 174.912C97.1227 174.912 98.0621 174.62 98.7917 174.037C99.5213 173.435 99.8861 172.641 99.8861 171.656C99.8861 170.836 99.5851 170.133 98.9832 169.55C98.4178 168.984 97.3599 168.437 95.8095 167.908C94.2408 167.343 93.265 166.96 92.882 166.759C90.8026 165.701 89.7629 164.142 89.7629 162.08C89.7629 160.639 90.3375 159.408 91.4866 158.387C92.654 157.365 94.0858 156.855 95.7821 156.855C97.2778 156.855 98.5728 157.238 99.6672 158.004C100.762 158.752 101.491 159.691 101.856 160.822L99.5031 161.807C99.2842 161.077 98.8464 160.475 98.1898 160.001C97.5514 159.509 96.7671 159.262 95.8368 159.262C94.8519 159.262 94.022 159.536 93.3471 160.083C92.6722 160.594 92.3348 161.26 92.3348 162.08C92.3348 162.755 92.5992 163.339 93.1282 163.831C93.7119 164.324 94.9796 164.908 96.9312 165.582C98.9194 166.257 100.333 167.087 101.172 168.072C102.029 169.039 102.458 170.234 102.458 171.656ZM117.785 160.384L114.583 169.221H121.095L117.894 160.384H117.785ZM111.82 176.882H109.029L116.417 157.292H119.262L126.649 176.882H123.858L121.971 171.574H113.735L111.82 176.882ZM134.237 177.32C132.248 177.32 130.598 176.645 129.284 175.295C127.989 173.909 127.342 172.204 127.342 170.179C127.342 168.118 127.989 166.412 129.284 165.063C130.598 163.713 132.248 163.038 134.237 163.038C135.605 163.038 136.799 163.385 137.821 164.078C138.842 164.753 139.608 165.692 140.119 166.896L137.821 167.853C137.109 166.175 135.86 165.336 134.072 165.336C132.923 165.336 131.929 165.801 131.09 166.732C130.269 167.662 129.859 168.811 129.859 170.179C129.859 171.547 130.269 172.696 131.09 173.626C131.929 174.556 132.923 175.022 134.072 175.022C135.915 175.022 137.21 174.183 137.958 172.505L140.201 173.462C139.709 174.666 138.933 175.614 137.875 176.308C136.836 176.982 135.623 177.32 134.237 177.32ZM144.102 172.778C144.102 173.435 144.376 173.982 144.923 174.42C145.488 174.857 146.145 175.076 146.893 175.076C147.951 175.076 148.89 174.684 149.711 173.9C150.55 173.116 150.969 172.194 150.969 171.137C150.185 170.516 149.091 170.206 147.686 170.206C146.665 170.206 145.807 170.453 145.114 170.945C144.439 171.437 144.102 172.049 144.102 172.778ZM147.358 163.038C149.218 163.038 150.687 163.54 151.763 164.543C152.839 165.528 153.377 166.887 153.377 168.619V176.882H150.969V175.022H150.86C149.82 176.554 148.434 177.32 146.701 177.32C145.224 177.32 143.983 176.882 142.98 176.007C141.995 175.131 141.503 174.037 141.503 172.723C141.503 171.337 142.023 170.234 143.062 169.413C144.12 168.592 145.525 168.182 147.276 168.182C148.771 168.182 150.003 168.455 150.969 169.002V168.428C150.969 167.552 150.623 166.814 149.93 166.212C149.237 165.592 148.425 165.281 147.495 165.281C146.09 165.281 144.977 165.874 144.157 167.06L141.941 165.665C143.163 163.914 144.968 163.038 147.358 163.038ZM162.102 175.022C163.342 175.022 164.354 174.575 165.138 173.681C165.959 172.787 166.37 171.62 166.37 170.179C166.37 168.774 165.959 167.616 165.138 166.704C164.336 165.792 163.324 165.336 162.102 165.336C160.898 165.336 159.885 165.792 159.065 166.704C158.244 167.616 157.833 168.774 157.833 170.179C157.833 171.602 158.244 172.76 159.065 173.654C159.885 174.566 160.898 175.022 162.102 175.022ZM161.691 177.32C159.94 177.32 158.435 176.627 157.177 175.24C155.936 173.836 155.316 172.149 155.316 170.179C155.316 168.209 155.936 166.522 157.177 165.117C158.435 163.731 159.94 163.038 161.691 163.038C162.676 163.038 163.57 163.248 164.372 163.667C165.193 164.087 165.822 164.643 166.26 165.336H166.37L166.26 163.476V157.292H168.777V176.882H166.37V175.022H166.26C165.822 175.715 165.193 176.271 164.372 176.691C163.57 177.11 162.676 177.32 161.691 177.32ZM177.732 177.32C175.762 177.32 174.139 176.645 172.862 175.295C171.585 173.945 170.947 172.24 170.947 170.179C170.947 168.136 171.567 166.44 172.807 165.09C174.047 163.722 175.634 163.038 177.568 163.038C179.556 163.038 181.134 163.686 182.301 164.981C183.487 166.257 184.079 168.054 184.079 170.37L184.052 170.644H173.519C173.555 171.957 173.993 173.015 174.832 173.818C175.671 174.62 176.674 175.022 177.841 175.022C179.446 175.022 180.705 174.219 181.617 172.614L183.861 173.708C183.259 174.839 182.42 175.724 181.343 176.362C180.286 177.001 179.082 177.32 177.732 177.32ZM173.71 168.565H181.398C181.325 167.634 180.942 166.868 180.249 166.266C179.574 165.646 178.662 165.336 177.513 165.336C176.565 165.336 175.744 165.628 175.051 166.212C174.376 166.795 173.929 167.58 173.71 168.565ZM188.898 176.882H186.381V163.476H188.789V165.336H188.898C189.281 164.68 189.865 164.132 190.649 163.695C191.452 163.257 192.245 163.038 193.03 163.038C194.015 163.038 194.881 163.266 195.629 163.722C196.377 164.178 196.924 164.807 197.271 165.61C198.383 163.895 199.924 163.038 201.894 163.038C203.445 163.038 204.639 163.512 205.478 164.461C206.318 165.409 206.737 166.759 206.737 168.51V176.882H204.22V168.893C204.22 167.634 203.992 166.732 203.536 166.184C203.08 165.619 202.314 165.336 201.238 165.336C200.271 165.336 199.459 165.747 198.803 166.567C198.146 167.388 197.818 168.355 197.818 169.468V176.882H195.301V168.893C195.301 167.634 195.073 166.732 194.617 166.184C194.161 165.619 193.395 165.336 192.318 165.336C191.352 165.336 190.54 165.747 189.883 166.567C189.227 167.388 188.898 168.355 188.898 169.468V176.882ZM221.396 163.476L212.997 182.792H210.398L213.517 176.034L207.99 163.476H210.726L214.721 173.106H214.775L218.66 163.476H221.396ZM228.285 170.179C228.285 168.118 228.932 166.412 230.227 165.063C231.541 163.713 233.191 163.038 235.18 163.038C237.168 163.038 238.809 163.713 240.104 165.063C241.418 166.412 242.074 168.118 242.074 170.179C242.074 172.258 241.418 173.964 240.104 175.295C238.809 176.645 237.168 177.32 235.18 177.32C233.191 177.32 231.541 176.645 230.227 175.295C228.932 173.945 228.285 172.24 228.285 170.179ZM230.802 170.179C230.802 171.62 231.221 172.787 232.061 173.681C232.9 174.575 233.939 175.022 235.18 175.022C236.42 175.022 237.46 174.575 238.299 173.681C239.138 172.787 239.557 171.62 239.557 170.179C239.557 168.756 239.138 167.598 238.299 166.704C237.441 165.792 236.402 165.336 235.18 165.336C233.957 165.336 232.918 165.792 232.061 166.704C231.221 167.598 230.802 168.756 230.802 170.179ZM250.143 157.074C251.055 157.074 251.803 157.229 252.387 157.539L251.703 159.755C251.265 159.536 250.773 159.426 250.225 159.426C249.605 159.426 249.094 159.645 248.693 160.083C248.31 160.503 248.119 161.068 248.119 161.779V163.476H251.621V165.774H248.119V176.882H245.601V165.774H243.084V163.476H245.601V161.533C245.601 160.202 246.021 159.126 246.86 158.305C247.717 157.484 248.812 157.074 250.143 157.074ZM266.063 159.7V176.882H263.545V159.7H258.074V157.292H271.535V159.7H266.063ZM277.553 177.32C275.583 177.32 273.959 176.645 272.683 175.295C271.406 173.945 270.767 172.24 270.767 170.179C270.767 168.136 271.388 166.44 272.628 165.09C273.868 163.722 275.455 163.038 277.389 163.038C279.377 163.038 280.954 163.686 282.122 164.981C283.307 166.257 283.9 168.054 283.9 170.37L283.873 170.644H273.339C273.376 171.957 273.813 173.015 274.653 173.818C275.492 174.62 276.495 175.022 277.662 175.022C279.267 175.022 280.526 174.219 281.438 172.614L283.681 173.708C283.079 174.839 282.24 175.724 281.164 176.362C280.106 177.001 278.902 177.32 277.553 177.32ZM273.531 168.565H281.219C281.146 167.634 280.763 166.868 280.07 166.266C279.395 165.646 278.483 165.336 277.334 165.336C276.385 165.336 275.565 165.628 274.871 166.212C274.197 166.795 273.75 167.58 273.531 168.565ZM292.464 177.32C290.476 177.32 288.825 176.645 287.512 175.295C286.217 173.909 285.57 172.204 285.57 170.179C285.57 168.118 286.217 166.412 287.512 165.063C288.825 163.713 290.476 163.038 292.464 163.038C293.832 163.038 295.027 163.385 296.048 164.078C297.07 164.753 297.836 165.692 298.347 166.896L296.048 167.853C295.337 166.175 294.088 165.336 292.3 165.336C291.151 165.336 290.157 165.801 289.318 166.732C288.497 167.662 288.087 168.811 288.087 170.179C288.087 171.547 288.497 172.696 289.318 173.626C290.157 174.556 291.151 175.022 292.3 175.022C294.142 175.022 295.437 174.183 296.185 172.505L298.429 173.462C297.936 174.666 297.161 175.614 296.103 176.308C295.063 176.982 293.85 177.32 292.464 177.32ZM300.63 157.292H303.147V163.476L303.038 165.336H303.147C303.53 164.68 304.114 164.132 304.898 163.695C305.701 163.257 306.531 163.038 307.388 163.038C309.03 163.038 310.288 163.512 311.164 164.461C312.057 165.391 312.504 166.722 312.504 168.455V176.882H309.987V168.948C309.987 166.54 308.92 165.336 306.786 165.336C305.765 165.336 304.898 165.765 304.187 166.622C303.494 167.461 303.147 168.446 303.147 169.577V176.882H300.63V157.292ZM315.459 163.476H317.867V165.336H317.976C318.359 164.68 318.943 164.132 319.727 163.695C320.53 163.257 321.36 163.038 322.217 163.038C323.858 163.038 325.117 163.512 325.992 164.461C326.886 165.391 327.333 166.722 327.333 168.455V176.882H324.816V168.619C324.761 166.431 323.658 165.336 321.505 165.336C320.502 165.336 319.663 165.747 318.988 166.567C318.313 167.37 317.976 168.337 317.976 169.468V176.882H315.459V163.476ZM333.544 158.852C333.544 159.344 333.37 159.764 333.024 160.11C332.677 160.457 332.258 160.63 331.765 160.63C331.273 160.63 330.853 160.457 330.507 160.11C330.16 159.764 329.987 159.344 329.987 158.852C329.987 158.359 330.16 157.94 330.507 157.593C330.853 157.247 331.273 157.074 331.765 157.074C332.258 157.074 332.677 157.247 333.024 157.593C333.37 157.94 333.544 158.359 333.544 158.852ZM333.024 163.476V176.882H330.507V163.476H333.024ZM342.294 177.32C340.306 177.32 338.656 176.645 337.342 175.295C336.047 173.909 335.4 172.204 335.4 170.179C335.4 168.118 336.047 166.412 337.342 165.063C338.656 163.713 340.306 163.038 342.294 163.038C343.662 163.038 344.857 163.385 345.879 164.078C346.9 164.753 347.666 165.692 348.177 166.896L345.879 167.853C345.167 166.175 343.918 165.336 342.13 165.336C340.981 165.336 339.987 165.801 339.148 166.732C338.327 167.662 337.917 168.811 337.917 170.179C337.917 171.547 338.327 172.696 339.148 173.626C339.987 174.556 340.981 175.022 342.13 175.022C343.972 175.022 345.268 174.183 346.015 172.505L348.259 173.462C347.766 174.666 346.991 175.614 345.933 176.308C344.894 176.982 343.681 177.32 342.294 177.32ZM352.16 172.778C352.16 173.435 352.433 173.982 352.981 174.42C353.546 174.857 354.203 175.076 354.951 175.076C356.008 175.076 356.948 174.684 357.769 173.9C358.608 173.116 359.027 172.194 359.027 171.137C358.243 170.516 357.148 170.206 355.744 170.206C354.723 170.206 353.865 170.453 353.172 170.945C352.497 171.437 352.16 172.049 352.16 172.778ZM355.416 163.038C357.276 163.038 358.744 163.54 359.821 164.543C360.897 165.528 361.435 166.887 361.435 168.619V176.882H359.027V175.022H358.918C357.878 176.554 356.492 177.32 354.759 177.32C353.282 177.32 352.041 176.882 351.038 176.007C350.053 175.131 349.561 174.037 349.561 172.723C349.561 171.337 350.08 170.234 351.12 169.413C352.178 168.592 353.583 168.182 355.334 168.182C356.829 168.182 358.06 168.455 359.027 169.002V168.428C359.027 167.552 358.681 166.814 357.987 166.212C357.294 165.592 356.483 165.281 355.552 165.281C354.148 165.281 353.035 165.874 352.215 167.06L349.998 165.665C351.22 163.914 353.026 163.038 355.416 163.038ZM366.791 157.292V176.882H364.274V157.292H366.791ZM387.744 157.292V159.7H378.825V165.911H386.868V168.264H378.825V174.474H387.744V176.882H376.307V157.292H387.744ZM396.183 175.022C397.424 175.022 398.436 174.575 399.22 173.681C400.041 172.787 400.451 171.62 400.451 170.179C400.451 168.774 400.041 167.616 399.22 166.704C398.418 165.792 397.405 165.336 396.183 165.336C394.979 165.336 393.967 165.792 393.146 166.704C392.326 167.616 391.915 168.774 391.915 170.179C391.915 171.602 392.326 172.76 393.146 173.654C393.967 174.566 394.979 175.022 396.183 175.022ZM395.773 177.32C394.022 177.32 392.517 176.627 391.259 175.24C390.018 173.836 389.398 172.149 389.398 170.179C389.398 168.209 390.018 166.522 391.259 165.117C392.517 163.731 394.022 163.038 395.773 163.038C396.758 163.038 397.652 163.248 398.454 163.667C399.275 164.087 399.904 164.643 400.342 165.336H400.451L400.342 163.476V157.292H402.859V176.882H400.451V175.022H400.342C399.904 175.715 399.275 176.271 398.454 176.691C397.652 177.11 396.758 177.32 395.773 177.32ZM417.693 176.882H415.285V175.022H415.176C414.793 175.678 414.2 176.225 413.397 176.663C412.613 177.101 411.792 177.32 410.935 177.32C409.293 177.32 408.026 176.855 407.132 175.924C406.256 174.976 405.819 173.635 405.819 171.903V163.476H408.336V171.738C408.391 173.927 409.494 175.022 411.646 175.022C412.65 175.022 413.489 174.62 414.163 173.818C414.838 172.997 415.176 172.021 415.176 170.89V163.476H417.693V176.882ZM426.752 177.32C424.764 177.32 423.113 176.645 421.8 175.295C420.505 173.909 419.857 172.204 419.857 170.179C419.857 168.118 420.505 166.412 421.8 165.063C423.113 163.713 424.764 163.038 426.752 163.038C428.12 163.038 429.315 163.385 430.336 164.078C431.358 164.753 432.124 165.692 432.634 166.896L430.336 167.853C429.625 166.175 428.375 165.336 426.588 165.336C425.439 165.336 424.445 165.801 423.606 166.732C422.785 167.662 422.374 168.811 422.374 170.179C422.374 171.547 422.785 172.696 423.606 173.626C424.445 174.556 425.439 175.022 426.588 175.022C428.43 175.022 429.725 174.183 430.473 172.505L432.716 173.462C432.224 174.666 431.449 175.614 430.391 176.308C429.351 176.982 428.138 177.32 426.752 177.32ZM436.617 172.778C436.617 173.435 436.891 173.982 437.438 174.42C438.004 174.857 438.66 175.076 439.408 175.076C440.466 175.076 441.405 174.684 442.226 173.9C443.065 173.116 443.485 172.194 443.485 171.137C442.7 170.516 441.606 170.206 440.201 170.206C439.18 170.206 438.323 170.453 437.63 170.945C436.955 171.437 436.617 172.049 436.617 172.778ZM439.873 163.038C441.734 163.038 443.202 163.54 444.278 164.543C445.354 165.528 445.892 166.887 445.892 168.619V176.882H443.485V175.022H443.375C442.336 176.554 440.949 177.32 439.217 177.32C437.739 177.32 436.499 176.882 435.496 176.007C434.511 175.131 434.018 174.037 434.018 172.723C434.018 171.337 434.538 170.234 435.578 169.413C436.636 168.592 438.04 168.182 439.791 168.182C441.287 168.182 442.518 168.455 443.485 169.002V168.428C443.485 167.552 443.138 166.814 442.445 166.212C441.752 165.592 440.94 165.281 440.01 165.281C438.605 165.281 437.493 165.874 436.672 167.06L434.456 165.665C435.678 163.914 437.484 163.038 439.873 163.038ZM453.772 177.101C452.678 177.101 451.766 176.764 451.036 176.089C450.325 175.414 449.96 174.474 449.942 173.271V165.774H447.589V163.476H449.942V159.372H452.459V163.476H455.742V165.774H452.459V172.45C452.459 173.344 452.632 173.955 452.979 174.283C453.325 174.593 453.717 174.748 454.155 174.748C454.356 174.748 454.547 174.73 454.73 174.693C454.93 174.639 455.113 174.575 455.277 174.502L456.07 176.745C455.414 176.982 454.647 177.101 453.772 177.101ZM461.526 158.852C461.526 159.344 461.352 159.764 461.006 160.11C460.659 160.457 460.24 160.63 459.747 160.63C459.255 160.63 458.835 160.457 458.489 160.11C458.142 159.764 457.969 159.344 457.969 158.852C457.969 158.359 458.142 157.94 458.489 157.593C458.835 157.247 459.255 157.074 459.747 157.074C460.24 157.074 460.659 157.247 461.006 157.593C461.352 157.94 461.526 158.359 461.526 158.852ZM461.006 163.476V176.882H458.489V163.476H461.006ZM463.382 170.179C463.382 168.118 464.029 166.412 465.324 165.063C466.638 163.713 468.288 163.038 470.277 163.038C472.265 163.038 473.906 163.713 475.201 165.063C476.515 166.412 477.171 168.118 477.171 170.179C477.171 172.258 476.515 173.964 475.201 175.295C473.906 176.645 472.265 177.32 470.277 177.32C468.288 177.32 466.638 176.645 465.324 175.295C464.029 173.945 463.382 172.24 463.382 170.179ZM465.899 170.179C465.899 171.62 466.319 172.787 467.158 173.681C467.997 174.575 469.036 175.022 470.277 175.022C471.517 175.022 472.557 174.575 473.396 173.681C474.235 172.787 474.654 171.62 474.654 170.179C474.654 168.756 474.235 167.598 473.396 166.704C472.538 165.792 471.499 165.336 470.277 165.336C469.055 165.336 468.015 165.792 467.158 166.704C466.319 167.598 465.899 168.756 465.899 170.179ZM479.191 163.476H481.598V165.336H481.708C482.091 164.68 482.674 164.132 483.459 163.695C484.261 163.257 485.091 163.038 485.948 163.038C487.59 163.038 488.849 163.512 489.724 164.461C490.618 165.391 491.065 166.722 491.065 168.455V176.882H488.548V168.619C488.493 166.431 487.389 165.336 485.237 165.336C484.234 165.336 483.395 165.747 482.72 166.567C482.045 167.37 481.708 168.337 481.708 169.468V176.882H479.191V163.476Z" fill="#353535"/>
</svg>
