<svg width="116" height="40" viewBox="0 0 116 40" fill="none" xmlns="http://www.w3.org/2000/svg">
<path d="M12.5203 20.1665L17.1036 17.5235C17.6211 17.2247 17.9987 16.7326 18.1534 16.1553C18.3081 15.5781 18.2271 14.9631 17.9283 14.4456C17.6296 13.9281 17.1374 13.5504 16.5602 13.3958C15.983 13.2411 15.368 13.322 14.8505 13.6208L6.93896 18.1889L12.5203 20.1665Z" fill="#EA4335"/>
<path d="M15.9407 27.0146C16.4358 27.0135 16.9169 26.8494 17.3095 26.5477C17.7021 26.246 17.9844 25.8233 18.1129 25.3451C18.2413 24.8669 18.2087 24.3597 18.0202 23.9018C17.8316 23.444 17.4975 23.061 17.0695 22.8119L9.15803 18.2439C8.90178 18.0959 8.6189 17.9999 8.32554 17.9613C8.03218 17.9227 7.73409 17.9422 7.44828 18.0188C7.16248 18.0954 6.89455 18.2275 6.65981 18.4077C6.42507 18.5878 6.22811 18.8124 6.08017 19.0686C5.93223 19.3249 5.83621 19.6078 5.79759 19.9011C5.75898 20.1945 5.77852 20.4926 5.85511 20.7784C5.93169 21.0642 6.06382 21.3321 6.24395 21.5669C6.42408 21.8016 6.64869 21.9986 6.90494 22.1465L14.8164 26.7146C15.1584 26.9114 15.5461 27.0149 15.9407 27.0146Z" fill="#4285F4"/>
<path d="M23.8407 26.9619C24.2355 26.9615 24.6232 26.8572 24.9649 26.6595L32.8764 22.0915L27.3616 20.0719L22.7118 22.7569C22.2838 23.0059 21.9497 23.389 21.7612 23.8468C21.5726 24.3047 21.54 24.8119 21.6685 25.2901C21.7969 25.7683 22.0793 26.1909 22.4719 26.4927C22.8645 26.7944 23.3455 26.9585 23.8407 26.9596V26.9619Z" fill="#FBBC04"/>
<path d="M31.7487 22.3985C32.2443 22.3981 32.7259 22.2344 33.119 21.9326C33.512 21.6309 33.7947 21.208 33.9231 20.7294C34.0515 20.2507 34.0186 19.7431 33.8294 19.2851C33.6402 18.8271 33.3052 18.4443 32.8764 18.1959L24.9649 13.6278C24.4501 13.3563 23.8502 13.2945 23.2909 13.4554C22.7316 13.6162 22.2562 13.9873 21.9644 14.4909C21.6725 14.9944 21.5869 15.5914 21.7253 16.1567C21.8638 16.722 22.2156 17.2118 22.7072 17.5234L30.6198 22.0915C30.9623 22.2919 31.3519 22.3979 31.7487 22.3985Z" fill="#0F9D58"/>
<path d="M54.176 20.236C54.176 21.836 53.7013 23.1107 52.752 24.06C51.6853 25.1907 50.2827 25.756 48.544 25.756C46.88 25.756 45.472 25.18 44.32 24.028C43.168 22.876 42.592 21.4573 42.592 19.772C42.592 18.0867 43.168 16.668 44.32 15.516C45.472 14.364 46.88 13.788 48.544 13.788C49.3867 13.788 50.1813 13.9373 50.928 14.236C51.6747 14.5347 52.288 14.956 52.768 15.5L51.712 16.556C51.36 16.1293 50.9013 15.7987 50.336 15.564C49.7813 15.3187 49.184 15.196 48.544 15.196C47.296 15.196 46.24 15.628 45.376 16.492C44.5227 17.3667 44.096 18.46 44.096 19.772C44.096 21.084 44.5227 22.1773 45.376 23.052C46.24 23.916 47.296 24.348 48.544 24.348C49.6853 24.348 50.6347 24.028 51.392 23.388C52.1493 22.748 52.5867 21.868 52.704 20.748H48.544V19.372H54.096C54.1493 19.6707 54.176 19.9587 54.176 20.236ZM55.9645 25.5V14.044H59.4685C61.2178 14.044 62.6205 14.572 63.6765 15.628C64.7432 16.684 65.2765 18.0653 65.2765 19.772C65.2765 21.4893 64.7432 22.876 63.6765 23.932C62.6205 24.9773 61.2178 25.5 59.4685 25.5H55.9645ZM57.4365 15.452V24.092H59.4685C60.8018 24.092 61.8525 23.7133 62.6205 22.956C63.3885 22.188 63.7725 21.1267 63.7725 19.772C63.7725 18.428 63.3885 17.372 62.6205 16.604C61.8525 15.836 60.8018 15.452 59.4685 15.452H57.4365ZM74.099 22.444C74.099 23.4467 73.731 24.252 72.995 24.86C72.2483 25.4573 71.3417 25.756 70.275 25.756C69.3257 25.756 68.4883 25.4787 67.763 24.924C67.0377 24.3693 66.5363 23.612 66.259 22.652L67.667 22.076C67.763 22.4173 67.8963 22.7267 68.067 23.004C68.2377 23.2813 68.435 23.5213 68.659 23.724C68.8937 23.916 69.1497 24.0707 69.427 24.188C69.7043 24.2947 69.9977 24.348 70.307 24.348C70.979 24.348 71.5283 24.1773 71.955 23.836C72.3817 23.484 72.595 23.02 72.595 22.444C72.595 21.964 72.419 21.5533 72.067 21.212C71.7363 20.8813 71.1177 20.5613 70.211 20.252C69.2937 19.9213 68.723 19.6973 68.499 19.58C67.283 18.9613 66.675 18.0493 66.675 16.844C66.675 16.0013 67.011 15.2813 67.683 14.684C68.3657 14.0867 69.203 13.788 70.195 13.788C71.0697 13.788 71.827 14.012 72.467 14.46C73.107 14.8973 73.5337 15.4467 73.747 16.108L72.371 16.684C72.243 16.2573 71.987 15.9053 71.603 15.628C71.2297 15.34 70.771 15.196 70.227 15.196C69.651 15.196 69.1657 15.356 68.771 15.676C68.3763 15.9747 68.179 16.364 68.179 16.844C68.179 17.2387 68.3337 17.58 68.643 17.868C68.9843 18.156 69.7257 18.4973 70.867 18.892C72.0297 19.2867 72.8563 19.772 73.347 20.348C73.8483 20.9133 74.099 21.612 74.099 22.444ZM81.2628 25.756C79.5668 25.756 78.1481 25.1853 77.0068 24.044C75.8761 22.9027 75.3108 21.4787 75.3108 19.772C75.3108 18.0653 75.8761 16.6467 77.0068 15.516C78.1374 14.364 79.5561 13.788 81.2628 13.788C82.9908 13.788 84.3934 14.412 85.4708 15.66L84.4148 16.684C83.5934 15.692 82.5428 15.196 81.2628 15.196C79.9934 15.196 78.9321 15.6227 78.0788 16.476C77.2361 17.3187 76.8148 18.4173 76.8148 19.772C76.8148 21.1267 77.2361 22.2253 78.0788 23.068C78.9321 23.9213 79.9934 24.348 81.2628 24.348C82.5961 24.348 83.7534 23.788 84.7348 22.668L85.8068 23.708C85.2628 24.3587 84.5961 24.8653 83.8068 25.228C83.0174 25.58 82.1694 25.756 81.2628 25.756ZM92.8895 25.756C92.0255 25.756 91.2788 25.5213 90.6495 25.052C90.0202 24.5827 89.5775 23.932 89.3215 23.1L90.7135 22.524C91.0762 23.74 91.8015 24.348 92.8895 24.348C93.4868 24.348 93.9668 24.14 94.3295 23.724C94.7028 23.2973 94.8895 22.748 94.8895 22.076V14.044H96.3615V21.948C96.3615 23.132 96.0468 24.0653 95.4175 24.748C94.7988 25.42 93.9562 25.756 92.8895 25.756ZM105.552 22.444C105.552 23.4467 105.184 24.252 104.448 24.86C103.701 25.4573 102.795 25.756 101.728 25.756C100.779 25.756 99.9415 25.4787 99.2161 24.924C98.4908 24.3693 97.9895 23.612 97.7121 22.652L99.1201 22.076C99.2161 22.4173 99.3495 22.7267 99.5201 23.004C99.6908 23.2813 99.8881 23.5213 100.112 23.724C100.347 23.916 100.603 24.0707 100.88 24.188C101.157 24.2947 101.451 24.348 101.76 24.348C102.432 24.348 102.981 24.1773 103.408 23.836C103.835 23.484 104.048 23.02 104.048 22.444C104.048 21.964 103.872 21.5533 103.52 21.212C103.189 20.8813 102.571 20.5613 101.664 20.252C100.747 19.9213 100.176 19.6973 99.9521 19.58C98.7361 18.9613 98.1281 18.0493 98.1281 16.844C98.1281 16.0013 98.4641 15.2813 99.1361 14.684C99.8188 14.0867 100.656 13.788 101.648 13.788C102.523 13.788 103.28 14.012 103.92 14.46C104.56 14.8973 104.987 15.4467 105.2 16.108L103.824 16.684C103.696 16.2573 103.44 15.9053 103.056 15.628C102.683 15.34 102.224 15.196 101.68 15.196C101.104 15.196 100.619 15.356 100.224 15.676C99.8295 15.9747 99.6321 16.364 99.6321 16.844C99.6321 17.2387 99.7868 17.58 100.096 17.868C100.437 18.156 101.179 18.4973 102.32 18.892C103.483 19.2867 104.309 19.772 104.8 20.348C105.301 20.9133 105.552 21.612 105.552 22.444ZM114.396 22.444C114.396 23.4467 114.028 24.252 113.292 24.86C112.545 25.4573 111.639 25.756 110.572 25.756C109.623 25.756 108.785 25.4787 108.06 24.924C107.335 24.3693 106.833 23.612 106.556 22.652L107.964 22.076C108.06 22.4173 108.193 22.7267 108.364 23.004C108.535 23.2813 108.732 23.5213 108.956 23.724C109.191 23.916 109.447 24.0707 109.724 24.188C110.001 24.2947 110.295 24.348 110.604 24.348C111.276 24.348 111.825 24.1773 112.252 23.836C112.679 23.484 112.892 23.02 112.892 22.444C112.892 21.964 112.716 21.5533 112.364 21.212C112.033 20.8813 111.415 20.5613 110.508 20.252C109.591 19.9213 109.02 19.6973 108.796 19.58C107.58 18.9613 106.972 18.0493 106.972 16.844C106.972 16.0013 107.308 15.2813 107.98 14.684C108.663 14.0867 109.5 13.788 110.492 13.788C111.367 13.788 112.124 14.012 112.764 14.46C113.404 14.8973 113.831 15.4467 114.044 16.108L112.668 16.684C112.54 16.2573 112.284 15.9053 111.9 15.628C111.527 15.34 111.068 15.196 110.524 15.196C109.948 15.196 109.463 15.356 109.068 15.676C108.673 15.9747 108.476 16.364 108.476 16.844C108.476 17.2387 108.631 17.58 108.94 17.868C109.281 18.156 110.023 18.4973 111.164 18.892C112.327 19.2867 113.153 19.772 113.644 20.348C114.145 20.9133 114.396 21.612 114.396 22.444Z" fill="#353535"/>
</svg>
