<svg xmlns="http://www.w3.org/2000/svg" width="30" height="31" viewBox="0 0 30 31" fill="none">
  <path fill-rule="evenodd" clip-rule="evenodd" d="M15 0.101562C23.2845 0.101562 30 6.98646 30 15.481C30 22.2745 25.707 28.0375 19.7505 30.073C18.99 30.2245 18.72 29.7442 18.72 29.3347C18.72 28.8277 18.738 27.1718 18.738 25.1138C18.738 23.6798 18.258 22.7438 17.7195 22.2668C21.06 21.8858 24.57 20.5852 24.57 14.6782C24.57 12.9982 23.988 11.6273 23.025 10.5503C23.181 10.1618 23.6955 8.59749 22.878 6.47949C22.878 6.47949 21.621 6.0674 18.7575 8.0564C17.559 7.7159 16.275 7.54457 15 7.53857C13.725 7.54457 12.4425 7.7159 11.2455 8.0564C8.379 6.0674 7.119 6.47949 7.119 6.47949C6.3045 8.59749 6.819 10.1618 6.9735 10.5503C6.015 11.6273 5.4285 12.9982 5.4285 14.6782C5.4285 20.5702 8.931 21.8908 12.2625 22.2793C11.8335 22.6633 11.445 23.3407 11.31 24.3352C10.455 24.7282 8.283 25.4084 6.945 23.0579C6.945 23.0579 6.1515 21.5802 4.6455 21.4722C4.6455 21.4722 3.183 21.4527 4.5435 22.4067C4.5435 22.4067 5.526 22.8792 6.2085 24.6567C6.2085 24.6567 7.089 27.4017 11.262 26.4717C11.2695 27.7572 11.283 28.9687 11.283 29.3347C11.283 29.7412 11.007 30.217 10.2585 30.0745C4.2975 28.042 0 22.276 0 15.481C0 6.98646 6.717 0.101562 15 0.101562Z" fill="#353535"/>
</svg>