<svg xmlns="http://www.w3.org/2000/svg" width="30" height="30" viewBox="0 0 30 30" fill="none">
  <path d="M0 0V30H30V0H0ZM12.4375 10.0025H14.6938C14.77 10.0025 14.8325 10.065 14.8325 10.1412V19.85C14.8325 19.9263 14.77 19.9888 14.695 19.9888H12.4375C12.4009 19.9888 12.3658 19.9743 12.3398 19.9486C12.3138 19.9228 12.2991 19.8878 12.2987 19.8512V16.2638H9.8675V19.8512C9.8675 19.9262 9.805 19.9888 9.73 19.9888H7.47C7.45194 19.9888 7.43406 19.9852 7.41738 19.9783C7.4007 19.9714 7.38554 19.9612 7.37277 19.9485C7.36 19.9357 7.34988 19.9206 7.34297 19.9039C7.33606 19.8872 7.3325 19.8693 7.3325 19.8512V10.14C7.3325 10.065 7.395 10.0025 7.47 10.0025H9.7275C9.80375 10.0025 9.865 10.065 9.865 10.14V13.7262H12.3V10.1388C12.3 10.0638 12.3625 10.0025 12.4375 10.0025ZM16.1863 10.0025H23.4087C23.485 10.0025 23.5475 10.065 23.5475 10.14V19.8487C23.5478 19.867 23.5445 19.8852 23.5378 19.9021C23.531 19.9191 23.5209 19.9346 23.5081 19.9476C23.4953 19.9606 23.4801 19.971 23.4632 19.9781C23.4464 19.9851 23.4283 19.9888 23.41 19.9888H16.185C16.1485 19.9888 16.1136 19.9743 16.0878 19.9485C16.062 19.9227 16.0475 19.8877 16.0475 19.8512V10.1388C16.0475 10.0638 16.11 10.0013 16.185 10.0013L16.1863 10.0025Z" fill="#353535"/>
</svg>