<svg width="482" height="44" viewBox="0 0 482 44" fill="none" xmlns="http://www.w3.org/2000/svg">
<path d="M13.883 42.9569H4.47266V0.958116H21.086C31.5419 0.958116 37.467 5.89581 37.467 14.5793C37.467 20.0278 35.0853 23.8872 30.3221 26.2709L37.8736 42.9569H27.5919L21.1441 28.2573H13.883V42.9569ZM13.883 9.13085V20.1981H21.0279C25.1522 20.1981 27.5338 18.1549 27.5338 14.5793C27.5338 11.0605 25.2684 9.13085 21.086 9.13085H13.883ZM71.767 42.9569H44.4653V0.958116H71.767V9.47138H53.8755V17.7009H69.7339V25.7601H53.8755V34.4436H71.767V42.9569ZM98.0541 43.6379C85.1588 43.6379 77.0841 35.2949 77.0841 22.0142C77.0841 8.90383 85.6233 0.277052 98.4609 0.277052C109.207 0.277052 116.933 6.2931 118.269 15.7144H108.336C107.058 11.5146 103.398 9.13085 98.2287 9.13085C91.2581 9.13085 87.0173 13.955 87.0173 21.9575C87.0173 29.8464 91.3158 34.7841 98.2287 34.7841C103.514 34.7841 107.406 32.2302 108.568 28.087H118.327C116.817 37.4516 108.801 43.6379 98.0541 43.6379ZM134.031 42.9569H124.621V0.958116H141.234C151.69 0.958116 157.615 5.89581 157.615 14.5793C157.615 20.0278 155.233 23.8872 150.47 26.2709L158.021 42.9569H147.74L141.292 28.2573H134.031V42.9569ZM134.031 9.13085V20.1981H141.176C145.3 20.1981 147.682 18.1549 147.682 14.5793C147.682 11.0605 145.417 9.13085 141.234 9.13085H134.031ZM164.323 27.179V0.958116H173.733V26.5547C173.733 31.8329 176.696 34.7274 181.982 34.7274C187.326 34.7274 190.347 31.7194 190.347 26.5547V0.958116H199.757V27.179C199.757 37.1678 192.786 43.6379 181.982 43.6379C171.236 43.6379 164.323 37.2246 164.323 27.179ZM217.817 0.958116V42.9569H208.407V0.958116H217.817ZM223.475 9.47138V0.958116H257.283V9.47138H245.084V42.9569H235.674V9.47138H223.475ZM272.041 42.9569H262.921V0.958116H272.041L284.82 32.2869L297.658 0.958116H306.894V42.9569H297.775V34.1598C297.775 25.079 297.775 23.0926 298.239 19.9711L289.119 42.9569H280.522L271.46 19.9711C271.983 23.0926 272.041 26.6114 272.041 31.2086V42.9569ZM343.149 42.9569H315.848V0.958116H343.149V9.47138H325.258V17.7009H341.116V25.7601H325.258V34.4436H343.149V42.9569ZM360.142 42.9569H350.848V0.958116H360.142L378.266 27.6898V0.958116H387.56V42.9569H378.266L360.142 16.282V42.9569ZM393.203 9.47138V0.958116H427.01V9.47138H414.811V42.9569H405.401V9.47138H393.203ZM430.267 13.1605C430.267 5.55528 436.831 0.163544 446.067 0.163544C455.303 0.163544 461.112 5.15799 461.112 13.1037H451.76C451.76 10.1524 449.494 8.33628 445.951 8.33628C442.117 8.33628 439.678 10.0389 439.678 12.8199C439.678 15.3739 441.013 16.6225 444.034 17.2468L450.482 18.5522C458.15 20.0846 461.809 23.6601 461.809 30.3005C461.809 38.4165 455.303 43.6947 445.428 43.6947C435.844 43.6947 429.628 38.6435 429.628 30.7545H438.98C438.98 33.8193 441.304 35.5219 445.486 35.5219C449.727 35.5219 452.399 33.8761 452.399 31.2086C452.399 28.8816 451.295 27.6898 448.449 27.1222L441.885 25.8168C434.217 24.2845 430.267 20.0278 430.267 13.1605Z" fill="#353535"/>
<path d="M13.8848 28.2385L13.8848 0.939331H21.0878C31.5437 0.939331 37.4688 5.87703 37.4688 14.5605C37.4688 20.009 35.0871 23.8684 30.3239 26.2521C30.3239 26.2521 29.9314 26.6729 26.2123 27.5381C22.4932 28.4032 21.1459 28.2385 21.1459 28.2385H13.8848Z" fill="#BA75DA"/>
<path d="M134.064 28.2385V0.939331H141.267C151.723 0.939331 157.648 5.87703 157.648 14.5605C157.648 20.009 155.266 23.8684 150.503 26.2521C150.503 26.2521 150.111 26.6729 146.392 27.5381C142.672 28.4032 141.325 28.2385 141.325 28.2385H134.064Z" fill="#EB6B6B"/>
<path d="M71.8002 42.9381H53.9092V0.939331H71.8002V9.45259H53.9092V17.6821V25.7413V34.4248H71.8002V42.9381Z" fill="#6B83FF"/>
<path d="M343.222 42.9381H325.331V0.939331H343.222V9.45259H325.331V17.6821V25.7413V34.4248H343.222V42.9381Z" fill="#EB6B6B"/>
<path d="M98.0052 43.7124C85.1098 43.7124 78.6422 34.8539 77.7061 28.0314H87.1328C87.1328 28.0314 90.8463 28.0314 97.7587 28.0314C103.045 28.0314 108.568 28.0314 108.568 28.0314H118.328C116.885 37.573 108.752 43.7124 98.0052 43.7124Z" fill="#ABD700"/>
<path d="M164.348 27.1677V26.5434H173.758C173.758 26.5434 176.721 26.5434 182.007 26.5434C187.351 26.5434 190.407 26.5434 190.407 26.5434H199.782V27.1677C199.782 37.1566 192.812 43.6267 182.007 43.6267C171.261 43.6267 164.348 37.2133 164.348 27.1677Z" fill="#6B83FF"/>
<path d="M223.464 9.45259V0.939331H257.271V9.45259H245.072H235.662H223.464Z" fill="#ABD700"/>
<path d="M393.16 9.45259V0.939331H426.968V9.45259H414.769H405.359H393.16Z" fill="#BA75DA"/>
<path d="M271.986 42.9381H262.866V0.939331H271.986L284.765 32.2681L286.845 37.401L289.064 42.9381H280.466H276.219C277.282 42.9381 272.854 42.9381 271.986 42.9381Z" fill="#BA75DA"/>
<path d="M355.6 8.85044L350.833 0.939331H360.128L378.251 27.671L382.342 34.4594L387.493 42.9865H378.284L360.128 16.2632L355.6 8.85044Z" fill="#ABD700"/>
<path d="M430.28 13.1452C430.28 5.54005 436.844 0.148315 446.08 0.148315C455.317 0.148315 461.125 5.14277 461.125 13.0885H451.773L445.949 13.1452C442.115 13.1452 439.69 13.1452 439.69 13.1452H430.28Z" fill="#6B83FF"/>
<path d="M481 43.149H478.798C478.083 42.4213 477.417 41.7492 476.8 41.1325C476.541 40.8735 476.276 40.6083 476.005 40.337C475.734 40.0657 475.481 39.8128 475.246 39.5785C475.012 39.3442 474.802 39.1345 474.617 38.9495C474.42 38.7645 474.266 38.6227 474.155 38.524C473.921 38.3267 473.711 38.154 473.526 38.006C473.341 37.8457 473.162 37.7223 472.989 37.636C472.804 37.5373 472.626 37.4633 472.453 37.414C472.268 37.3647 472.071 37.34 471.861 37.34C471.454 37.34 471.102 37.5003 470.807 37.821C470.498 38.1417 470.344 38.5795 470.344 39.1345C470.344 39.6895 470.504 40.1212 470.825 40.4295C471.133 40.7378 471.485 40.9475 471.879 41.0585L470.973 43.26C470.64 43.1613 470.301 43.001 469.955 42.779C469.598 42.557 469.283 42.2733 469.012 41.928C468.728 41.5827 468.5 41.1757 468.327 40.707C468.142 40.226 468.05 39.6895 468.05 39.0975C468.05 38.4562 468.149 37.8765 468.346 37.3585C468.531 36.8405 468.79 36.4027 469.123 36.045C469.456 35.6873 469.851 35.4098 470.307 35.2125C470.751 35.0152 471.232 34.9165 471.75 34.9165C472.539 34.9165 473.267 35.1138 473.933 35.5085C474.587 35.8908 475.197 36.3595 475.764 36.9145L477.355 38.5055C477.775 38.9248 478.243 39.3997 478.761 39.93L478.872 39.856V34.7315H481V43.149ZM481.296 27.7954C481.296 28.6094 481.13 29.3433 480.796 29.9969C480.451 30.6506 479.982 31.2118 479.39 31.6804C478.798 32.1368 478.102 32.4883 477.3 32.7349C476.486 32.9816 475.61 33.1049 474.673 33.1049C473.736 33.1049 472.866 32.9816 472.064 32.7349C471.25 32.4883 470.547 32.1368 469.955 31.6804C469.363 31.2118 468.901 30.6506 468.568 29.9969C468.223 29.3433 468.05 28.6094 468.05 27.7954C468.05 26.9814 468.223 26.2476 468.568 25.5939C468.901 24.9403 469.363 24.3853 469.955 23.9289C470.547 23.4603 471.25 23.1026 472.064 22.8559C472.866 22.6093 473.736 22.4859 474.673 22.4859C475.61 22.4859 476.486 22.6093 477.3 22.8559C478.102 23.1026 478.798 23.4603 479.39 23.9289C479.982 24.3853 480.451 24.9403 480.796 25.5939C481.13 26.2476 481.296 26.9814 481.296 27.7954ZM479.002 27.7954C479.002 27.3514 478.897 26.9506 478.688 26.5929C478.465 26.2353 478.163 25.9331 477.781 25.6864C477.386 25.4274 476.924 25.2363 476.393 25.1129C475.863 24.9773 475.29 24.9094 474.673 24.9094C474.044 24.9094 473.47 24.9773 472.952 25.1129C472.422 25.2363 471.966 25.4274 471.583 25.6864C471.189 25.9331 470.887 26.2353 470.677 26.5929C470.455 26.9506 470.344 27.3514 470.344 27.7954C470.344 28.2518 470.455 28.6588 470.677 29.0164C470.887 29.3741 471.189 29.6763 471.583 29.9229C471.966 30.1696 472.422 30.3608 472.952 30.4964C473.47 30.6198 474.044 30.6814 474.673 30.6814C475.29 30.6814 475.863 30.6198 476.393 30.4964C476.924 30.3608 477.386 30.1696 477.781 29.9229C478.163 29.6763 478.465 29.3741 478.688 29.0164C478.897 28.6588 479.002 28.2518 479.002 27.7954ZM481 20.9996H478.798C478.083 20.2719 477.417 19.5998 476.8 18.9831C476.541 18.7241 476.276 18.4589 476.005 18.1876C475.734 17.9163 475.481 17.6634 475.246 17.4291C475.012 17.1948 474.802 16.9851 474.617 16.8001C474.42 16.6151 474.266 16.4733 474.155 16.3746C473.921 16.1773 473.711 16.0046 473.526 15.8566C473.341 15.6963 473.162 15.5729 472.989 15.4866C472.804 15.3879 472.626 15.3139 472.453 15.2646C472.268 15.2153 472.071 15.1906 471.861 15.1906C471.454 15.1906 471.102 15.3509 470.807 15.6716C470.498 15.9923 470.344 16.4301 470.344 16.9851C470.344 17.5401 470.504 17.9718 470.825 18.2801C471.133 18.5884 471.485 18.7981 471.879 18.9091L470.973 21.1106C470.64 21.0119 470.301 20.8516 469.955 20.6296C469.598 20.4076 469.283 20.1239 469.012 19.7786C468.728 19.4333 468.5 19.0263 468.327 18.5576C468.142 18.0766 468.05 17.5401 468.05 16.9481C468.05 16.3068 468.149 15.7271 468.346 15.2091C468.531 14.6911 468.79 14.2533 469.123 13.8956C469.456 13.5379 469.851 13.2604 470.307 13.0631C470.751 12.8658 471.232 12.7671 471.75 12.7671C472.539 12.7671 473.267 12.9644 473.933 13.3591C474.587 13.7414 475.197 14.2101 475.764 14.7651L477.355 16.3561C477.775 16.7754 478.243 17.2503 478.761 17.7806L478.872 17.7066V12.5821H481V20.9996ZM481 5.18353H478.669V11.0295H476.708L468.346 5.40553V2.77853H476.412V1.18753H478.669V2.77853H481V5.18353ZM471.953 5.18353V5.33153L476.412 8.34703V5.18353H471.953Z" fill="#353535"/>
</svg>
