<svg width="325" height="30" viewBox="0 0 325 30" fill="none" xmlns="http://www.w3.org/2000/svg">
<g clip-path="url(#clip0_76_497)">
<path d="M9.35572 29.2971H3.01465V0.996657H14.2094C21.255 0.996657 25.2475 4.32387 25.2475 10.1752C25.2475 13.8466 23.6427 16.4472 20.433 18.0534L25.5215 29.2971H18.5933L14.2485 19.3919H9.35572V29.2971ZM9.35572 6.50377V13.9613H14.1702C16.9493 13.9613 18.5542 12.5845 18.5542 10.1752C18.5542 7.80406 17.0276 6.50377 14.2094 6.50377H9.35572ZM48.3603 29.2971H29.9633V0.996657H48.3603V6.73323H36.3042V12.2786H46.9903V17.7092H36.3042V23.5605H48.3603V29.2971ZM66.0736 29.756C57.3842 29.756 51.9431 24.1342 51.9431 15.1851C51.9431 6.35079 57.6972 0.537729 66.3477 0.537729C73.5891 0.537729 78.7949 4.59158 79.6954 10.94H73.0019C72.1407 8.11001 69.6748 6.50377 66.1912 6.50377C61.4941 6.50377 58.6365 9.75449 58.6365 15.1469C58.6365 20.4628 61.533 23.79 66.1912 23.79C69.7529 23.79 72.3756 22.069 73.1584 19.2772H79.7342C78.7168 25.5874 73.3149 29.756 66.0736 29.756ZM90.3163 29.2971H83.9751V0.996657H95.1699C102.216 0.996657 106.208 4.32387 106.208 10.1752C106.208 13.8466 104.603 16.4472 101.393 18.0534L106.482 29.2971H99.554L95.2091 19.3919H90.3163V29.2971ZM90.3163 6.50377V13.9613H95.1307C97.9099 13.9613 99.5148 12.5845 99.5148 10.1752C99.5148 7.80406 97.9883 6.50377 95.1699 6.50377H90.3163ZM110.728 18.6653V0.996657H117.069V18.2446C117.069 21.8013 119.066 23.7517 122.628 23.7517C126.228 23.7517 128.264 21.7248 128.264 18.2446V0.996657H134.605V18.6653C134.605 25.3962 129.908 29.756 122.628 29.756C115.386 29.756 110.728 25.4344 110.728 18.6653ZM146.774 0.996657V29.2971H140.434V0.996657H146.774ZM150.587 6.73323V0.996657H173.368V6.73323H165.148V29.2971H158.807V6.73323H150.587ZM183.313 29.2971H177.168V0.996657H183.313L191.924 22.1072L200.575 0.996657H206.798V29.2971H200.653V23.3693C200.653 17.2503 200.653 15.9117 200.966 13.8083L194.821 29.2971H189.028L182.922 13.8083C183.274 15.9117 183.313 18.2829 183.313 21.3806V29.2971ZM231.229 29.2971H212.832V0.996657H231.229V6.73323H219.173V12.2786H229.859V17.7092H219.173V23.5605H231.229V29.2971ZM242.679 29.2971H236.416V0.996657H242.679L254.892 19.0095V0.996657H261.154V29.2971H254.892L242.679 11.3225V29.2971ZM264.957 6.73323V0.996657H287.737V6.73323H279.517V29.2971H273.176V6.73323H264.957ZM289.932 9.21908C289.932 4.09441 294.355 0.461243 300.579 0.461243C306.802 0.461243 310.717 3.8267 310.717 9.18083H304.415C304.415 7.19215 302.888 5.96835 300.5 5.96835C297.917 5.96835 296.273 7.11567 296.273 8.98961C296.273 10.7106 297.173 11.5519 299.209 11.9726L303.554 12.8522C308.72 13.8848 311.187 16.2942 311.187 20.7687C311.187 26.2376 306.802 29.7942 300.148 29.7942C293.69 29.7942 289.502 26.3905 289.502 21.0747H295.803C295.803 23.1398 297.369 24.2871 300.187 24.2871C303.045 24.2871 304.845 23.1781 304.845 21.3806C304.845 19.8126 304.102 19.0095 302.184 18.6271L297.76 17.7474C292.594 16.7149 289.932 13.8466 289.932 9.21908Z" fill="#353535"/>
<path d="M9.35648 19.3793L9.35645 0.984009H14.2101C21.2558 0.984009 25.2483 4.31122 25.2483 10.1625C25.2483 13.8339 23.6435 16.4345 20.4338 18.0407C20.4338 18.0407 20.1693 18.3243 17.6632 18.9073C15.1572 19.4903 14.2493 19.3793 14.2493 19.3793H9.35648Z" fill="#BA75DA"/>
<path d="M90.3389 19.3793V0.984009H95.1925C102.238 0.984009 106.231 4.31122 106.231 10.1625C106.231 13.8339 104.626 16.4345 101.416 18.0407C101.416 18.0407 101.152 18.3243 98.6457 18.9073C96.1396 19.4903 95.2317 19.3793 95.2317 19.3793H90.3389Z" fill="#EB6B6B"/>
<path d="M48.3819 29.2844H36.3262V0.984009H48.3819V6.72058H36.3262V12.2659V17.6966V23.5479H48.3819V29.2844Z" fill="#6B83FF"/>
<path d="M231.276 29.2844H219.221V0.984009H231.276V6.72058H219.221V12.2659V17.6966V23.5479H231.276V29.2844Z" fill="#EB6B6B"/>
<path d="M66.0407 29.8062C57.3513 29.8062 52.9931 23.837 52.3623 19.2397H58.7144C58.7144 19.2397 61.2167 19.2397 65.8746 19.2397C69.4366 19.2397 73.1586 19.2397 73.1586 19.2397H79.7347C78.763 25.6692 73.282 29.8062 66.0407 29.8062Z" fill="#ABD700"/>
<path d="M110.744 18.6577V18.237H117.085C117.085 18.237 119.081 18.237 122.643 18.237C126.245 18.237 128.303 18.237 128.303 18.237H134.621V18.6577C134.621 25.3886 129.924 29.7484 122.643 29.7484C115.402 29.7484 110.744 25.4269 110.744 18.6577Z" fill="#6B83FF"/>
<path d="M150.579 6.72058V0.984009H173.36V6.72058H165.14H158.799H150.579Z" fill="#ABD700"/>
<path d="M264.928 6.72058V0.984009H287.709V6.72058H279.489H273.148H264.928Z" fill="#BA75DA"/>
<path d="M183.275 29.2844H177.13V0.984009H183.275L191.887 22.0946L193.288 25.5533L194.783 29.2844H188.99H186.128C186.844 29.2844 183.86 29.2844 183.275 29.2844Z" fill="#BA75DA"/>
<path d="M239.618 6.31482L236.406 0.984009H242.669L254.881 18.9968L257.638 23.5712L261.109 29.3171H254.903L242.669 11.3098L239.618 6.31482Z" fill="#ABD700"/>
<path d="M289.941 9.20882C289.941 4.08415 294.364 0.450989 300.588 0.450989C306.812 0.450989 310.726 3.81645 310.726 9.17058H304.424L300.499 9.20882C297.916 9.20882 296.282 9.20882 296.282 9.20882H289.941Z" fill="#6B83FF"/>
</g>
<path d="M324.356 29.4266H322.873C322.391 28.9362 321.942 28.4833 321.527 28.0678C321.352 27.8932 321.173 27.7146 320.991 27.5317C320.808 27.3489 320.637 27.1785 320.48 27.0206C320.322 26.8627 320.18 26.7214 320.056 26.5968C319.923 26.4721 319.819 26.3765 319.744 26.3101C319.586 26.1771 319.445 26.0607 319.32 25.961C319.196 25.853 319.075 25.7699 318.959 25.7117C318.834 25.6452 318.713 25.5953 318.597 25.5621C318.472 25.5288 318.34 25.5122 318.198 25.5122C317.924 25.5122 317.687 25.6203 317.488 25.8363C317.28 26.0524 317.176 26.3475 317.176 26.7214C317.176 27.0954 317.284 27.3863 317.5 27.5941C317.708 27.8018 317.945 27.9431 318.211 28.0179L317.6 29.5014C317.375 29.4349 317.147 29.3268 316.914 29.1772C316.673 29.0276 316.461 28.8365 316.278 28.6038C316.087 28.3711 315.934 28.0969 315.817 27.781C315.693 27.4569 315.63 27.0954 315.63 26.6965C315.63 26.2643 315.697 25.8737 315.83 25.5247C315.954 25.1756 316.129 24.8806 316.353 24.6396C316.578 24.3986 316.844 24.2116 317.151 24.0786C317.45 23.9457 317.774 23.8792 318.123 23.8792C318.655 23.8792 319.146 24.0121 319.594 24.2781C320.035 24.5357 320.446 24.8515 320.829 25.2255L321.901 26.2976C322.183 26.5802 322.499 26.9001 322.848 27.2575L322.923 27.2076V23.7545H324.356V29.4266ZM324.556 19.0807C324.556 19.6292 324.444 20.1237 324.219 20.5642C323.987 21.0047 323.671 21.3828 323.272 21.6986C322.873 22.0061 322.403 22.2429 321.863 22.4092C321.315 22.5754 320.725 22.6585 320.093 22.6585C319.461 22.6585 318.876 22.5754 318.335 22.4092C317.787 22.2429 317.313 22.0061 316.914 21.6986C316.515 21.3828 316.204 21.0047 315.979 20.5642C315.747 20.1237 315.63 19.6292 315.63 19.0807C315.63 18.5322 315.747 18.0377 315.979 17.5973C316.204 17.1568 316.515 16.7828 316.914 16.4753C317.313 16.1595 317.787 15.9185 318.335 15.7523C318.876 15.5861 319.461 15.503 320.093 15.503C320.725 15.503 321.315 15.5861 321.863 15.7523C322.403 15.9185 322.873 16.1595 323.272 16.4753C323.671 16.7828 323.987 17.1568 324.219 17.5973C324.444 18.0377 324.556 18.5322 324.556 19.0807ZM323.01 19.0807C323.01 18.7815 322.939 18.5114 322.798 18.2704C322.649 18.0294 322.445 17.8258 322.187 17.6596C321.921 17.4851 321.61 17.3563 321.252 17.2732C320.895 17.1817 320.509 17.136 320.093 17.136C319.669 17.136 319.283 17.1817 318.934 17.2732C318.576 17.3563 318.269 17.4851 318.011 17.6596C317.745 17.8258 317.542 18.0294 317.4 18.2704C317.251 18.5114 317.176 18.7815 317.176 19.0807C317.176 19.3882 317.251 19.6625 317.4 19.9035C317.542 20.1445 317.745 20.3481 318.011 20.5143C318.269 20.6805 318.576 20.8093 318.934 20.9008C319.283 20.9839 319.669 21.0254 320.093 21.0254C320.509 21.0254 320.895 20.9839 321.252 20.9008C321.61 20.8093 321.921 20.6805 322.187 20.5143C322.445 20.3481 322.649 20.1445 322.798 19.9035C322.939 19.6625 323.01 19.3882 323.01 19.0807ZM324.356 14.5014H322.873C322.391 14.0111 321.942 13.5581 321.527 13.1426C321.352 12.9681 321.173 12.7894 320.991 12.6066C320.808 12.4237 320.637 12.2534 320.48 12.0955C320.322 11.9376 320.18 11.7963 320.056 11.6716C319.923 11.547 319.819 11.4514 319.744 11.3849C319.586 11.2519 319.445 11.1356 319.32 11.0358C319.196 10.9278 319.075 10.8447 318.959 10.7865C318.834 10.72 318.713 10.6702 318.597 10.6369C318.472 10.6037 318.34 10.5871 318.198 10.5871C317.924 10.5871 317.687 10.6951 317.488 10.9112C317.28 11.1273 317.176 11.4223 317.176 11.7963C317.176 12.1703 317.284 12.4611 317.5 12.6689C317.708 12.8767 317.945 13.0179 318.211 13.0927L317.6 14.5762C317.375 14.5097 317.147 14.4017 316.914 14.2521C316.673 14.1025 316.461 13.9113 316.278 13.6786C316.087 13.4459 315.934 13.1717 315.817 12.8559C315.693 12.5318 315.63 12.1703 315.63 11.7713C315.63 11.3392 315.697 10.9486 315.83 10.5995C315.954 10.2505 316.129 9.95546 316.353 9.71445C316.578 9.47344 316.844 9.28645 317.151 9.15347C317.45 9.0205 317.774 8.95402 318.123 8.95402C318.655 8.95402 319.146 9.08699 319.594 9.35293C320.035 9.61056 320.446 9.92637 320.829 10.3004L321.901 11.3724C322.183 11.655 322.499 11.975 322.848 12.3323L322.923 12.2825V8.82936H324.356V14.5014ZM324.356 3.84392H322.786V7.78318H321.464L315.83 3.99351V2.22333H321.265V1.15125H322.786V2.22333H324.356V3.84392ZM318.261 3.84392V3.94364L321.265 5.97561V3.84392H318.261Z" fill="#353535"/>
<defs>
<clipPath id="clip0_76_497">
<rect width="312.662" height="29.6489" fill="white" transform="translate(0 0.351044)"/>
</clipPath>
</defs>
</svg>
