<svg width="1440" height="461" viewBox="0 0 1440 461" fill="none" xmlns="http://www.w3.org/2000/svg">
<path d="M380.103 43.3986L550.059 0L720.015 43.3986L889.972 0L1059.93 43.3986V460.027L889.972 416.628L720.015 460.027L550.059 416.628L380.103 460.027V43.3986Z" fill="white"/>
<path d="M0 43.3863L95.0256 -0.00976562L190.051 43.3863L285.077 -0.00976562L380.102 43.3863V459.99L285.077 416.594L190.051 459.99L95.0256 416.594L0 459.99V43.3863Z" fill="white"/>
<path d="M1059.94 43.3961L1154.95 0L1249.97 43.3961L1344.98 0L1440 43.3961V460L1344.98 416.603L1249.97 460L1154.95 416.603L1059.94 460V43.3961Z" fill="white"/>
</svg>
