<svg xmlns="http://www.w3.org/2000/svg" width="24" height="25" viewBox="0 0 24 25" fill="none">
  <mask id="mask0_34_84" style="mask-type:alpha" maskUnits="userSpaceOnUse" x="0" y="0" width="24" height="25">
    <rect y="0.5" width="24" height="24" fill="#D9D9D9"/>
  </mask>
  <g mask="url(#mask0_34_84)">
    <path d="M8 20.5H16V17.5C16 16.4 15.6083 15.4583 14.825 14.675C14.0417 13.8917 13.1 13.5 12 13.5C10.9 13.5 9.95833 13.8917 9.175 14.675C8.39167 15.4583 8 16.4 8 17.5V20.5ZM5 22.5C4.71667 22.5 4.47917 22.4042 4.2875 22.2125C4.09583 22.0208 4 21.7833 4 21.5C4 21.2167 4.09583 20.9792 4.2875 20.7875C4.47917 20.5958 4.71667 20.5 5 20.5H6V17.5C6 16.4833 6.2375 15.5292 6.7125 14.6375C7.1875 13.7458 7.85 13.0333 8.7 12.5C7.85 11.9667 7.1875 11.2542 6.7125 10.3625C6.2375 9.47083 6 8.51667 6 7.5V4.5H5C4.71667 4.5 4.47917 4.40417 4.2875 4.2125C4.09583 4.02083 4 3.78333 4 3.5C4 3.21667 4.09583 2.97917 4.2875 2.7875C4.47917 2.59583 4.71667 2.5 5 2.5H19C19.2833 2.5 19.5208 2.59583 19.7125 2.7875C19.9042 2.97917 20 3.21667 20 3.5C20 3.78333 19.9042 4.02083 19.7125 4.2125C19.5208 4.40417 19.2833 4.5 19 4.5H18V7.5C18 8.51667 17.7625 9.47083 17.2875 10.3625C16.8125 11.2542 16.15 11.9667 15.3 12.5C16.15 13.0333 16.8125 13.7458 17.2875 14.6375C17.7625 15.5292 18 16.4833 18 17.5V20.5H19C19.2833 20.5 19.5208 20.5958 19.7125 20.7875C19.9042 20.9792 20 21.2167 20 21.5C20 21.7833 19.9042 22.0208 19.7125 22.2125C19.5208 22.4042 19.2833 22.5 19 22.5H5Z" fill="#353535"/>
  </g>
</svg>