<svg xmlns="http://www.w3.org/2000/svg" width="14" height="17" viewBox="0 0 14 17" fill="none">
  <path d="M7 7.65C7.9625 7.65 8.78646 7.31708 9.47188 6.65125C10.1573 5.98542 10.5 5.185 10.5 4.25V1.7H3.5V4.25C3.5 5.185 3.84271 5.98542 4.52813 6.65125C5.21354 7.31708 6.0375 7.65 7 7.65ZM0.875 17C0.627083 17 0.419271 16.9185 0.251563 16.7556C0.0838542 16.5927 0 16.3908 0 16.15C0 15.9092 0.0838542 15.7073 0.251563 15.5444C0.419271 15.3815 0.627083 15.3 0.875 15.3H1.75V12.75C1.75 11.8858 1.95781 11.0748 2.37344 10.3169C2.78906 9.55896 3.36875 8.95333 4.1125 8.5C3.36875 8.04667 2.78906 7.44104 2.37344 6.68313C1.95781 5.92521 1.75 5.11417 1.75 4.25V1.7H0.875C0.627083 1.7 0.419271 1.61854 0.251563 1.45563C0.0838542 1.29271 0 1.09083 0 0.85C0 0.609167 0.0838542 0.407292 0.251563 0.244375C0.419271 0.0814583 0.627083 0 0.875 0H13.125C13.3729 0 13.5807 0.0814583 13.7484 0.244375C13.9161 0.407292 14 0.609167 14 0.85C14 1.09083 13.9161 1.29271 13.7484 1.45563C13.5807 1.61854 13.3729 1.7 13.125 1.7H12.25V4.25C12.25 5.11417 12.0422 5.92521 11.6266 6.68313C11.2109 7.44104 10.6313 8.04667 9.8875 8.5C10.6313 8.95333 11.2109 9.55896 11.6266 10.3169C12.0422 11.0748 12.25 11.8858 12.25 12.75V15.3H13.125C13.3729 15.3 13.5807 15.3815 13.7484 15.5444C13.9161 15.7073 14 15.9092 14 16.15C14 16.3908 13.9161 16.5927 13.7484 16.7556C13.5807 16.9185 13.3729 17 13.125 17H0.875Z" fill="#F5F5F5"/>
</svg>