<svg xmlns="http://www.w3.org/2000/svg" width="36" height="30" viewBox="0 0 36 30" fill="none">
  <path d="M6.07559 24.4331C5.53084 24.1253 5.09776 23.7068 4.77634 23.1777C4.45492 22.6486 4.29421 22.0552 4.29421 21.3973V13.1604L0.91114 11.285C0.603355 11.0998 0.374551 10.8815 0.224731 10.6302C0.0749104 10.379 0 10.0998 0 9.79266C0 9.48554 0.0749104 9.20669 0.224731 8.95609C0.374551 8.70549 0.603355 8.48757 0.91114 8.30234L15.4017 0.398631C15.6589 0.255467 15.9245 0.153239 16.1985 0.0919435C16.4724 0.0306485 16.7535 0 17.0419 0C17.3302 0 17.6114 0.0306485 17.8853 0.0919435C18.1592 0.153239 18.4254 0.255148 18.6837 0.397674L35.0889 9.29109C35.3885 9.46814 35.6152 9.69037 35.7691 9.95779C35.923 10.2252 36 10.5137 36 10.8233V22.2962C36 22.5972 35.8981 22.8495 35.6942 23.0531C35.4903 23.2567 35.2376 23.3585 34.9362 23.3585C34.6348 23.3585 34.3827 23.2567 34.1797 23.0531C33.9768 22.8495 33.8753 22.5972 33.8753 22.2962V10.9867L29.7895 13.1604V21.3973C29.7895 22.0552 29.6288 22.6486 29.3074 23.1777C28.986 23.7068 28.5529 24.1253 28.0082 24.4331L18.6925 29.475C18.4283 29.6248 18.1592 29.7303 17.8853 29.7916C17.6114 29.8529 17.3302 29.8835 17.0419 29.8835C16.7535 29.8835 16.4724 29.8529 16.1985 29.7916C15.9245 29.7303 15.6554 29.6248 15.3912 29.475L6.07559 24.4331ZM16.5516 17.4096C16.7423 17.5186 16.9125 17.573 17.0623 17.573C17.2121 17.573 17.3823 17.5186 17.573 17.4096L31.5546 9.79366L17.573 2.21863C17.3823 2.10967 17.2121 2.05519 17.0623 2.05519C16.9125 2.05519 16.7423 2.10967 16.5516 2.21863L2.52914 9.79366L16.5516 17.4096ZM16.5107 27.6772C16.7014 27.7862 16.8785 27.8406 17.0419 27.8406C17.2053 27.8406 17.3823 27.7862 17.573 27.6772L27.0521 22.5536C27.27 22.4174 27.4266 22.2608 27.5219 22.0837C27.6173 21.9067 27.6649 21.682 27.6649 21.4096V14.3289L18.7048 19.2196C18.4406 19.3694 18.1723 19.475 17.8999 19.5362C17.6275 19.5975 17.3415 19.6282 17.0419 19.6282C16.7422 19.6282 16.4562 19.5975 16.1839 19.5362C15.9115 19.475 15.6432 19.3694 15.3789 19.2196L6.41882 14.3289V21.4096C6.41882 21.6275 6.46648 21.8386 6.56181 22.0429C6.65717 22.2472 6.81379 22.4174 7.03167 22.5536L16.5107 27.6772Z" fill="#353535"/>
</svg>