<svg xmlns="http://www.w3.org/2000/svg" width="36" height="36" viewBox="0 0 36 36" fill="none">
  <path d="M6.6154 28.8461H17.3846V28.5615C17.3846 28.1079 17.2601 27.6876 17.0111 27.3006C16.7621 26.9137 16.4148 26.6135 15.9693 26.4C15.3278 26.1256 14.6783 25.9199 14.0209 25.7827C13.3633 25.6455 12.6897 25.5769 12 25.5769C11.3103 25.5769 10.6367 25.6455 9.97915 25.7827C9.32168 25.9199 8.67222 26.1256 8.03075 26.4C7.58518 26.6135 7.2379 26.9137 6.9889 27.3006C6.7399 27.6876 6.6154 28.1079 6.6154 28.5615V28.8461ZM22.8846 25.7693H29.1154C29.3709 25.7693 29.5822 25.6859 29.7493 25.5191C29.9165 25.3523 30 25.1414 30 24.8864C30 24.6314 29.9165 24.4199 29.7493 24.2519C29.5822 24.084 29.3709 24 29.1154 24H22.8846C22.6291 24 22.4178 24.0834 22.2507 24.2502C22.0835 24.4169 22 24.6278 22 24.8829C22 25.1379 22.0835 25.3494 22.2507 25.5173C22.4178 25.6853 22.6291 25.7693 22.8846 25.7693ZM11.991 24C12.6508 24 13.2147 23.7691 13.6827 23.3071C14.1506 22.8452 14.3846 22.2843 14.3846 21.6245C14.3846 20.9646 14.1536 20.4006 13.6917 19.9327C13.2298 19.4647 12.6689 19.2307 12.0091 19.2307C11.3492 19.2307 10.7853 19.4617 10.3173 19.9237C9.84937 20.3856 9.6154 20.9465 9.6154 21.6064C9.6154 22.2662 9.84635 22.8301 10.3083 23.2981C10.7702 23.766 11.3311 24 11.991 24ZM22.8846 21H29.1154C29.3709 21 29.5822 20.9166 29.7493 20.7499C29.9165 20.5831 30 20.3722 30 20.1171C30 19.8621 29.9165 19.6506 29.7493 19.4827C29.5822 19.3147 29.3709 19.2307 29.1154 19.2307H22.8846C22.6291 19.2307 22.4178 19.3141 22.2507 19.4809C22.0835 19.6477 22 19.8586 22 20.1136C22 20.3686 22.0835 20.5801 22.2507 20.7481C22.4178 20.916 22.6291 21 22.8846 21ZM3.23075 36C2.31025 36 1.54167 35.6917 0.925 35.075C0.308333 34.4583 0 33.6898 0 32.7693V13.2308C0 12.3103 0.308333 11.5417 0.925 10.925C1.54167 10.3083 2.31025 10 3.23075 10H14V2C14 1.45 14.1958 0.979167 14.5875 0.5875C14.9792 0.195833 15.45 0 16 0H20C20.55 0 21.0208 0.195833 21.4125 0.5875C21.8042 0.979167 22 1.45 22 2V10H32.7693C33.6898 10 34.4583 10.3083 35.075 10.925C35.6917 11.5417 36 12.3103 36 13.2308V32.7693C36 33.6898 35.6917 34.4583 35.075 35.075C34.4583 35.6917 33.6898 36 32.7693 36H3.23075ZM3.23075 34H32.7693C33.1282 34 33.4231 33.8846 33.6539 33.6539C33.8846 33.4231 34 33.1282 34 32.7693V13.2308C34 12.8718 33.8846 12.5769 33.6539 12.3461C33.4231 12.1154 33.1282 12 32.7693 12H22V13.5384C22 14.0743 21.8007 14.5417 21.402 14.9404C21.0032 15.3391 20.5359 15.5384 20 15.5384H16C15.4641 15.5384 14.9968 15.3391 14.5981 14.9404C14.1994 14.5417 14 14.0743 14 13.5384V12H3.23075C2.87178 12 2.57692 12.1154 2.34615 12.3461C2.11538 12.5769 2 12.8718 2 13.2308V32.7693C2 33.1282 2.11538 33.4231 2.34615 33.6539C2.57692 33.8846 2.87178 34 3.23075 34ZM16 13.5384H20V2H16V13.5384Z" fill="#1C1B1F"/>
</svg>