<svg xmlns="http://www.w3.org/2000/svg" width="36" height="36" viewBox="0 0 36 36" fill="none">
  <path d="M18 36C15.51 36 13.17 35.5277 10.98 34.583C8.79 33.6384 6.885 32.3564 5.265 30.737C3.645 29.1176 2.3625 27.2133 1.4175 25.0241C0.4725 22.8349 0 20.4958 0 18.0067C0 15.5176 0.472317 13.1774 1.41695 10.9862C2.36162 8.79497 3.64365 6.88888 5.26305 5.26795C6.88245 3.64705 8.78673 2.36383 10.9759 1.4183C13.1651 0.472768 15.5042 0 17.9933 0C20.4824 0 22.8226 0.472499 25.0138 1.4175C27.205 2.3625 29.1111 3.645 30.732 5.265C32.353 6.885 33.6362 8.79 34.5817 10.98C35.5272 13.17 36 15.51 36 18V19.9769C36 21.6616 35.4214 23.0866 34.2643 24.252C33.1072 25.4173 31.6857 26 30 26C28.8077 26 27.7205 25.6731 26.7384 25.0193C25.7564 24.3654 25.0308 23.4949 24.5616 22.4077C23.8 23.5026 22.8494 24.375 21.7096 25.025C20.5699 25.675 19.3333 26 18 26C15.7718 26 13.8814 25.2237 12.3288 23.6712C10.7763 22.1186 10 20.2282 10 18C10 15.7718 10.7763 13.8814 12.3288 12.3289C13.8814 10.7763 15.7718 10 18 10C20.2282 10 22.1186 10.7763 23.6711 12.3289C25.2237 13.8814 26 15.7718 26 18V19.9769C26 21.0744 26.3923 22.0193 27.177 22.8116C27.9615 23.6038 28.9026 24 30 24C31.0974 24 32.0385 23.6038 32.8231 22.8116C33.6077 22.0193 34 21.0744 34 19.9769V18C34 13.5333 32.45 9.75 29.35 6.65C26.25 3.55 22.4667 2 18 2C13.5333 2 9.75 3.55 6.65 6.65C3.55 9.75 2 13.5333 2 18C2 22.4667 3.55 26.25 6.65 29.35C9.75 32.45 13.5333 34 18 34H27C27.2833 34 27.5208 34.096 27.7125 34.2879C27.9042 34.4798 28 34.7177 28 35.0014C28 35.2851 27.9042 35.5224 27.7125 35.7135C27.5208 35.9045 27.2833 36 27 36H18ZM18 24C19.6667 24 21.0833 23.4167 22.25 22.25C23.4167 21.0833 24 19.6667 24 18C24 16.3333 23.4167 14.9167 22.25 13.75C21.0833 12.5833 19.6667 12 18 12C16.3333 12 14.9167 12.5833 13.75 13.75C12.5833 14.9167 12 16.3333 12 18C12 19.6667 12.5833 21.0833 13.75 22.25C14.9167 23.4167 16.3333 24 18 24Z" fill="#1C1B1F"/>
</svg>