<svg xmlns="http://www.w3.org/2000/svg" width="38" height="38" viewBox="0 0 38 38" fill="none">
  <path d="M1 7.4C1 5.15979 1 4.03968 1.43597 3.18404C1.81947 2.43139 2.43139 1.81947 3.18404 1.43597C4.03968 1 5.15979 1 7.4 1H8.6C10.8402 1 11.9603 1 12.816 1.43597C13.5686 1.81947 14.1805 2.43139 14.564 3.18404C15 4.03968 15 5.15979 15 7.4V8.6C15 10.8402 15 11.9603 14.564 12.816C14.1805 13.5686 13.5686 14.1805 12.816 14.564C11.9603 15 10.8402 15 8.6 15H7.4C5.15979 15 4.03968 15 3.18404 14.564C2.43139 14.1805 1.81947 13.5686 1.43597 12.816C1 11.9603 1 10.8402 1 8.6V7.4Z" stroke="#353535" stroke-width="2" stroke-linecap="round" stroke-linejoin="round"/>
  <path d="M1 29.4C1 27.1598 1 26.0397 1.43597 25.184C1.81947 24.4314 2.43139 23.8195 3.18404 23.436C4.03968 23 5.15979 23 7.4 23H8.6C10.8402 23 11.9603 23 12.816 23.436C13.5686 23.8195 14.1805 24.4314 14.564 25.184C15 26.0397 15 27.1598 15 29.4V30.6C15 32.8402 15 33.9603 14.564 34.816C14.1805 35.5686 13.5686 36.1805 12.816 36.564C11.9603 37 10.8402 37 8.6 37H7.4C5.15979 37 4.03968 37 3.18404 36.564C2.43139 36.1805 1.81947 35.5686 1.43597 34.816C1 33.9603 1 32.8402 1 30.6V29.4Z" stroke="#353535" stroke-width="2" stroke-linecap="round" stroke-linejoin="round"/>
  <path d="M23 7.4C23 5.15979 23 4.03968 23.436 3.18404C23.8195 2.43139 24.4314 1.81947 25.184 1.43597C26.0397 1 27.1598 1 29.4 1H30.6C32.8402 1 33.9603 1 34.816 1.43597C35.5686 1.81947 36.1805 2.43139 36.564 3.18404C37 4.03968 37 5.15979 37 7.4V8.6C37 10.8402 37 11.9603 36.564 12.816C36.1805 13.5686 35.5686 14.1805 34.816 14.564C33.9603 15 32.8402 15 30.6 15H29.4C27.1598 15 26.0397 15 25.184 14.564C24.4314 14.1805 23.8195 13.5686 23.436 12.816C23 11.9603 23 10.8402 23 8.6V7.4Z" stroke="#353535" stroke-width="2" stroke-linecap="round" stroke-linejoin="round"/>
  <path d="M23 29.4C23 27.1598 23 26.0397 23.436 25.184C23.8195 24.4314 24.4314 23.8195 25.184 23.436C26.0397 23 27.1598 23 29.4 23H30.6C32.8402 23 33.9603 23 34.816 23.436C35.5686 23.8195 36.1805 24.4314 36.564 25.184C37 26.0397 37 27.1598 37 29.4V30.6C37 32.8402 37 33.9603 36.564 34.816C36.1805 35.5686 35.5686 36.1805 34.816 36.564C33.9603 37 32.8402 37 30.6 37H29.4C27.1598 37 26.0397 37 25.184 36.564C24.4314 36.1805 23.8195 35.5686 23.436 34.816C23 33.9603 23 32.8402 23 30.6V29.4Z" stroke="#353535" stroke-width="2" stroke-linecap="round" stroke-linejoin="round"/>
</svg>