<svg xmlns="http://www.w3.org/2000/svg" width="36" height="18" viewBox="0 0 36 18" fill="none">
  <path d="M8.79782 10.9634C8.20226 10.9634 7.69244 10.7514 7.26836 10.3273C6.84425 9.90319 6.63219 9.39337 6.63219 8.79782C6.63219 8.20226 6.84425 7.69244 7.26836 7.26836C7.69244 6.84425 8.20226 6.63219 8.79782 6.63219C9.39337 6.63219 9.90319 6.84425 10.3273 7.26836C10.7514 7.69244 10.9634 8.20226 10.9634 8.79782C10.9634 9.39337 10.7514 9.90319 10.3273 10.3273C9.90319 10.7514 9.39337 10.9634 8.79782 10.9634ZM8.79782 17.5956C6.35399 17.5956 4.27672 16.7411 2.56601 15.0319C0.855338 13.3228 0 11.2474 0 8.80578C0 6.36415 0.855338 4.28611 2.56601 2.57165C4.27672 0.857215 6.35399 0 8.79782 0C10.6047 0 12.234 0.489509 13.6857 1.46853C15.1373 2.44758 16.197 3.71763 16.8648 5.27869H32.4809C32.6606 5.27869 32.8346 5.3114 33.0031 5.37683C33.1715 5.44223 33.3324 5.55163 33.4858 5.70503L35.5838 7.803C35.7372 7.95638 35.8449 8.11465 35.907 8.27782C35.969 8.44102 36 8.61586 36 8.80235C36 8.98883 35.969 9.16215 35.907 9.3223C35.8449 9.48248 35.7372 9.63925 35.5838 9.79263L31.8583 13.4844C31.7413 13.6105 31.601 13.7114 31.4372 13.7871C31.2735 13.8627 31.1116 13.9039 30.9514 13.9107C30.7912 13.9175 30.6311 13.8972 30.4709 13.8498C30.3107 13.8024 30.154 13.728 30.0006 13.6265L27.95 12.0801L25.5441 13.8363C25.42 13.931 25.2926 13.9964 25.1618 14.0325C25.0309 14.0686 24.8888 14.0867 24.7354 14.0867C24.582 14.0867 24.4382 14.063 24.304 14.0156C24.1697 13.9682 24.0406 13.9085 23.9165 13.8363L21.6392 12.3169H16.8648C16.197 13.8554 15.1373 15.1199 13.6857 16.1102C12.234 17.1005 10.6047 17.5956 8.79782 17.5956ZM8.79782 15.8361C10.5303 15.8361 12.0085 15.315 13.2323 14.2728C14.456 13.2306 15.2394 11.9921 15.5823 10.5574H22.1975L24.7151 12.2594C24.6925 12.2594 24.6869 12.2611 24.6981 12.2645C24.7094 12.2679 24.7151 12.2662 24.7151 12.2594L27.9838 9.91448L30.8363 12.0632L34.1017 8.79782L32.3421 7.03825H15.5823C15.2394 5.60353 14.456 4.36507 13.2323 3.32285C12.0085 2.28066 10.5303 1.75956 8.79782 1.75956C6.8623 1.75956 5.20537 2.44873 3.82705 3.82705C2.44872 5.20537 1.75956 6.8623 1.75956 8.79782C1.75956 10.7333 2.44872 12.3903 3.82705 13.7686C5.20537 15.1469 6.8623 15.8361 8.79782 15.8361Z" fill="#1C1B1F"/>
</svg>