<svg xmlns="http://www.w3.org/2000/svg" width="36" height="36" viewBox="0 0 36 36" fill="none">
  <path d="M2.25 32.0279C4.275 30.0404 6.62813 28.4748 9.30938 27.331C11.9906 26.1873 14.8875 25.6154 18 25.6154C21.1125 25.6154 24.0094 26.1873 26.6906 27.331C29.3719 28.4748 31.725 30.0404 33.75 32.0279V3.63459C33.75 3.28847 33.6058 2.97116 33.3173 2.68268C33.0288 2.39423 32.7115 2.25 32.3654 2.25H3.63459C3.28847 2.25 2.97116 2.39423 2.68268 2.68268C2.39423 2.97116 2.25 3.28847 2.25 3.63459V32.0279ZM18 20.4231C19.8866 20.4231 21.4832 19.7697 22.7899 18.463C24.0966 17.1563 24.75 15.5596 24.75 13.6731C24.75 11.7865 24.0966 10.1899 22.7899 8.88317C21.4832 7.57644 19.8866 6.92308 18 6.92308C16.1134 6.92308 14.5168 7.57644 13.2101 8.88317C11.9034 10.1899 11.25 11.7865 11.25 13.6731C11.25 15.5596 11.9034 17.1563 13.2101 18.463C14.5168 19.7697 16.1134 20.4231 18 20.4231ZM3.63459 36C2.59903 36 1.73438 35.6531 1.04062 34.9594C0.346875 34.2656 0 33.401 0 32.3654V3.63459C0 2.59903 0.346875 1.73438 1.04062 1.04062C1.73438 0.346875 2.59903 0 3.63459 0H32.3654C33.401 0 34.2656 0.346875 34.9594 1.04062C35.6531 1.73438 36 2.59903 36 3.63459V32.3654C36 33.401 35.6531 34.2656 34.9594 34.9594C34.2656 35.6531 33.401 36 32.3654 36H3.63459ZM4.24041 33.75H31.7596V33.3606C29.7808 31.5 27.626 30.119 25.2952 29.2175C22.9644 28.3161 20.5327 27.8654 18 27.8654C15.525 27.8654 13.1149 28.3089 10.7697 29.1959C8.42453 30.0829 6.24808 31.4423 4.24041 33.274V33.75ZM18 18.1731C16.774 18.1731 15.7176 17.7296 14.8305 16.8425C13.9435 15.9555 13.5 14.899 13.5 13.6731C13.5 12.4471 13.9435 11.3906 14.8305 10.5036C15.7176 9.61659 16.774 9.17308 18 9.17308C19.226 9.17308 20.2824 9.61659 21.1695 10.5036C22.0565 11.3906 22.5 12.4471 22.5 13.6731C22.5 14.899 22.0565 15.9555 21.1695 16.8425C20.2824 17.7296 19.226 18.1731 18 18.1731Z" fill="#353535"/>
</svg>