<svg width="152" height="48" viewBox="0 0 152 48" fill="none" xmlns="http://www.w3.org/2000/svg">
<rect width="152" height="48" rx="24" fill="#ABD700"/>
<path d="M45.584 29.5H39.152V18.044H40.624V28.092H45.584V29.5ZM50.3848 29.756C49.2328 29.756 48.2834 29.3613 47.5368 28.572C46.7901 27.7827 46.4168 26.7853 46.4168 25.58C46.4168 24.3853 46.7794 23.3933 47.5048 22.604C48.2301 21.804 49.1581 21.404 50.2888 21.404C51.4514 21.404 52.3741 21.7827 53.0568 22.54C53.7501 23.2867 54.0968 24.3373 54.0968 25.692L54.0808 25.852H47.9208C47.9421 26.62 48.1981 27.2387 48.6888 27.708C49.1794 28.1773 49.7661 28.412 50.4488 28.412C51.3874 28.412 52.1234 27.9427 52.6568 27.004L53.9688 27.644C53.6168 28.3053 53.1261 28.8227 52.4968 29.196C51.8781 29.5693 51.1741 29.756 50.3848 29.756ZM48.0328 24.636H52.5288C52.4861 24.092 52.2621 23.644 51.8568 23.292C51.4621 22.9293 50.9288 22.748 50.2568 22.748C49.7021 22.748 49.2221 22.9187 48.8168 23.26C48.4221 23.6013 48.1608 24.06 48.0328 24.636ZM58.3125 29.628C57.6725 29.628 57.1392 29.4307 56.7125 29.036C56.2965 28.6413 56.0832 28.092 56.0725 27.388V23.004H54.6965V21.66H56.0725V19.26H57.5445V21.66H59.4645V23.004H57.5445V26.908C57.5445 27.4307 57.6458 27.788 57.8485 27.98C58.0512 28.1613 58.2805 28.252 58.5365 28.252C58.6538 28.252 58.7658 28.2413 58.8725 28.22C58.9898 28.188 59.0965 28.1507 59.1925 28.108L59.6565 29.42C59.2725 29.5587 58.8245 29.628 58.3125 29.628ZM61.4248 21.532L60.7368 21.084L61.5368 19.868C61.3128 19.8253 61.1208 19.7133 60.9608 19.532C60.8114 19.3507 60.7368 19.132 60.7368 18.876C60.7368 18.5667 60.8434 18.3107 61.0568 18.108C61.2701 17.8947 61.5261 17.788 61.8248 17.788C62.1341 17.788 62.3901 17.8947 62.5928 18.108C62.8061 18.3107 62.9128 18.5667 62.9128 18.876C62.9128 19.1747 62.8008 19.5 62.5768 19.852L61.4248 21.532ZM69.7866 27.324C69.7866 28.0067 69.488 28.5827 68.8906 29.052C68.2933 29.5213 67.5413 29.756 66.6346 29.756C65.8453 29.756 65.152 29.5533 64.5546 29.148C63.9573 28.732 63.5306 28.188 63.2746 27.516L64.5866 26.956C64.7786 27.4253 65.056 27.7933 65.4186 28.06C65.792 28.316 66.1973 28.444 66.6346 28.444C67.104 28.444 67.4933 28.3427 67.8026 28.14C68.1226 27.9373 68.2826 27.6973 68.2826 27.42C68.2826 26.9187 67.8986 26.5507 67.1306 26.316L65.7866 25.98C64.2613 25.596 63.4986 24.86 63.4986 23.772C63.4986 23.0573 63.7866 22.4867 64.3626 22.06C64.9493 21.6227 65.696 21.404 66.6026 21.404C67.296 21.404 67.92 21.5693 68.4746 21.9C69.04 22.2307 69.4346 22.6733 69.6586 23.228L68.3466 23.772C68.1973 23.4413 67.952 23.1853 67.6106 23.004C67.28 22.812 66.9066 22.716 66.4906 22.716C66.1066 22.716 65.76 22.812 65.4506 23.004C65.152 23.196 65.0026 23.4307 65.0026 23.708C65.0026 24.156 65.424 24.476 66.2666 24.668L67.4506 24.972C69.008 25.356 69.7866 26.14 69.7866 27.324ZM78.1035 28.412C78.8288 28.412 79.4208 28.1507 79.8795 27.628C80.3595 27.1053 80.5995 26.4227 80.5995 25.58C80.5995 24.7587 80.3595 24.0813 79.8795 23.548C79.4102 23.0147 78.8182 22.748 78.1035 22.748C77.3995 22.748 76.8075 23.0147 76.3275 23.548C75.8475 24.0813 75.6075 24.7587 75.6075 25.58C75.6075 26.412 75.8475 27.0893 76.3275 27.612C76.8075 28.1453 77.3995 28.412 78.1035 28.412ZM78.0555 33.212C77.6182 33.212 77.2075 33.1533 76.8235 33.036C76.4395 32.9293 76.0875 32.7747 75.7675 32.572C75.4582 32.3693 75.1915 32.1293 74.9675 31.852C74.7435 31.5747 74.5728 31.2653 74.4555 30.924L75.8475 30.348C76.0075 30.8067 76.2848 31.1747 76.6795 31.452C77.0742 31.7293 77.5328 31.868 78.0555 31.868C78.8555 31.868 79.4795 31.628 79.9275 31.148C80.3755 30.668 80.5995 30.0067 80.5995 29.164V28.412H80.5355C80.2582 28.828 79.8795 29.1587 79.3995 29.404C78.9302 29.6387 78.4182 29.756 77.8635 29.756C76.8395 29.756 75.9595 29.356 75.2235 28.556C74.4982 27.7347 74.1355 26.7427 74.1355 25.58C74.1355 24.4173 74.4982 23.4307 75.2235 22.62C75.9595 21.8093 76.8395 21.404 77.8635 21.404C78.4182 21.404 78.9302 21.5267 79.3995 21.772C79.8795 22.0067 80.2582 22.332 80.5355 22.748H80.5995V21.66H82.0075V29.164C82.0075 30.4227 81.6502 31.4093 80.9355 32.124C80.2102 32.8493 79.2502 33.212 78.0555 33.212ZM83.2761 25.58C83.2761 24.3747 83.6548 23.3773 84.4121 22.588C85.1801 21.7987 86.1455 21.404 87.3081 21.404C88.4708 21.404 89.4308 21.7987 90.1881 22.588C90.9561 23.3773 91.3401 24.3747 91.3401 25.58C91.3401 26.796 90.9561 27.7933 90.1881 28.572C89.4308 29.3613 88.4708 29.756 87.3081 29.756C86.1455 29.756 85.1801 29.3613 84.4121 28.572C83.6548 27.7827 83.2761 26.7853 83.2761 25.58ZM84.7481 25.58C84.7481 26.4227 84.9935 27.1053 85.4841 27.628C85.9748 28.1507 86.5828 28.412 87.3081 28.412C88.0335 28.412 88.6415 28.1507 89.1321 27.628C89.6228 27.1053 89.8681 26.4227 89.8681 25.58C89.8681 24.748 89.6228 24.0707 89.1321 23.548C88.6308 23.0147 88.0228 22.748 87.3081 22.748C86.5935 22.748 85.9855 23.0147 85.4841 23.548C84.9935 24.0707 84.7481 24.748 84.7481 25.58Z" fill="#2F3B00"/>
<path d="M110 20.1392C111.462 21.2012 112.771 22.4462 113.894 23.8413C114.035 24.0165 114.035 24.2618 113.894 24.437C112.771 25.8321 111.462 27.0771 110 28.1392" stroke="#2F3B00" stroke-width="2" stroke-linecap="round" stroke-linejoin="round"/>
</svg>
