<svg xmlns="http://www.w3.org/2000/svg" width="40" height="40" viewBox="0 0 40 40" fill="none">
  <path d="M12.5203 20.1665L17.1036 17.5235C17.6211 17.2247 17.9987 16.7326 18.1534 16.1553C18.3081 15.5781 18.2271 14.9631 17.9283 14.4456C17.6296 13.9281 17.1374 13.5504 16.5602 13.3958C15.983 13.2411 15.368 13.322 14.8505 13.6208L6.93896 18.1889L12.5203 20.1665Z" fill="#EA4335"/>
  <path d="M15.9407 27.0146C16.4358 27.0135 16.9169 26.8494 17.3095 26.5477C17.7021 26.246 17.9844 25.8233 18.1129 25.3451C18.2413 24.8669 18.2087 24.3597 18.0202 23.9018C17.8316 23.444 17.4975 23.061 17.0695 22.8119L9.15803 18.2439C8.90178 18.0959 8.6189 17.9999 8.32554 17.9613C8.03218 17.9227 7.73409 17.9422 7.44828 18.0188C7.16248 18.0954 6.89455 18.2275 6.65981 18.4077C6.42507 18.5878 6.22811 18.8124 6.08017 19.0686C5.93223 19.3249 5.83621 19.6078 5.79759 19.9011C5.75898 20.1945 5.77852 20.4926 5.85511 20.7784C5.93169 21.0642 6.06382 21.3321 6.24395 21.5669C6.42408 21.8016 6.64869 21.9986 6.90494 22.1465L14.8164 26.7146C15.1584 26.9114 15.5461 27.0149 15.9407 27.0146Z" fill="#4285F4"/>
  <path d="M23.8407 26.9619C24.2355 26.9615 24.6232 26.8572 24.9649 26.6595L32.8764 22.0915L27.3616 20.0719L22.7118 22.7569C22.2838 23.0059 21.9497 23.389 21.7612 23.8468C21.5726 24.3047 21.54 24.8119 21.6685 25.2901C21.7969 25.7683 22.0793 26.1909 22.4719 26.4927C22.8645 26.7944 23.3455 26.9585 23.8407 26.9596V26.9619Z" fill="#FBBC04"/>
  <path d="M31.7487 22.3985C32.2443 22.3981 32.7259 22.2344 33.119 21.9326C33.512 21.6309 33.7947 21.208 33.9231 20.7294C34.0515 20.2507 34.0186 19.7431 33.8294 19.2851C33.6402 18.8271 33.3052 18.4443 32.8764 18.1959L24.9649 13.6278C24.4501 13.3563 23.8502 13.2945 23.2909 13.4554C22.7316 13.6162 22.2562 13.9873 21.9644 14.4909C21.6725 14.9944 21.5869 15.5914 21.7253 16.1567C21.8638 16.722 22.2156 17.2118 22.7072 17.5234L30.6198 22.0915C30.9623 22.2919 31.3519 22.3979 31.7487 22.3985Z" fill="#0F9D58"/>
</svg>