<svg width="300" height="301" viewBox="0 0 300 301" fill="none" xmlns="http://www.w3.org/2000/svg">
<g clip-path="url(#clip0_92_967)">
<mask id="mask0_92_967" style="mask-type:luminance" maskUnits="userSpaceOnUse" x="0" y="0" width="300" height="301">
<path d="M300 0.5H0V300.5H300V0.5Z" fill="white"/>
</mask>
<g mask="url(#mask0_92_967)">
<path d="M107.337 25.002C126.505 -7.66736 173.738 -7.66734 192.905 25.002L193.601 26.1885C202.445 41.2599 218.564 50.567 236.037 50.6894L237.414 50.699C275.291 50.9642 298.907 91.8684 280.197 124.803L279.518 125.999C270.887 141.193 270.887 159.807 279.518 175.001L280.197 176.197C298.907 209.132 275.291 250.035 237.414 250.301L236.037 250.31C218.564 250.433 202.445 259.74 193.601 274.811L192.905 275.997C173.738 308.667 126.505 308.667 107.337 275.997L106.641 274.811C97.7979 259.74 81.6776 250.433 64.2041 250.31L62.8284 250.301C24.9519 250.035 1.33591 209.132 20.0444 176.197L20.7239 175.001C29.3547 159.807 29.3547 141.193 20.7239 125.999L20.0444 124.803C1.33591 91.8684 24.9519 50.9642 62.8284 50.699L64.2041 50.6894C81.6777 50.567 97.7979 41.2599 106.641 26.1885L107.337 25.002Z" fill="#E570D2"/>
</g>
</g>
<path d="M196.059 147.421L196.001 124.61L151.98 99.4512V202.545L169.57 192.329V163.323L182.852 171.003L182.773 151.165L169.57 143.623V132.107L196.066 147.418L196.059 147.421ZM104.003 124.607L148.023 99.4512V202.545L130.434 192.329V132.107L103.938 147.418L104.003 124.607Z" fill="#F5F5F5"/>
<defs>
<clipPath id="clip0_92_967">
<rect width="300" height="300" fill="white" transform="translate(0 0.5)"/>
</clipPath>
</defs>
</svg>
