<svg xmlns="http://www.w3.org/2000/svg" width="64" height="64" viewBox="0 0 64 64" fill="none">
  <mask id="mask0_218_1858" style="mask-type:luminance" maskUnits="userSpaceOnUse" x="0" y="0" width="64" height="64">
    <path d="M64 32C64 14.3269 49.6731 0 32 0C14.3269 0 0 14.3269 0 32C0 49.6731 14.3269 64 32 64C49.6731 64 64 49.6731 64 32Z" fill="white"/>
  </mask>
  <g mask="url(#mask0_218_1858)">
    <path d="M64 0H0V64H64V0Z" fill="#73B06F"/>
    <path d="M0.333324 16.9198C-14.3386 29.6738 -15.8932 51.9069 -3.13918 66.5788C9.61489 81.2507 31.848 82.8054 46.5199 70.0513C61.1918 57.2972 62.7464 35.0641 49.9924 20.3923C37.2383 5.72038 15.0052 4.16569 0.333324 16.9198Z" fill="#405059"/>
    <path d="M13.7744 42.1212C13.4978 43.8676 14.1575 45.6889 15.6084 47.1845C17.0593 48.6802 19.1825 49.7276 21.511 50.0964C23.8394 50.4652 26.1824 50.1251 28.0244 49.151C29.8665 48.177 31.0567 46.6486 31.3333 44.9023" fill="#F5F5F5"/>
    <path d="M12.5315 32.9246C12.6851 31.9549 12.22 31.0754 11.4927 30.9602C10.7654 30.845 10.0513 31.5377 9.89768 32.5075C9.74408 33.4772 10.2092 34.3568 10.9365 34.4719C11.6638 34.5871 12.3779 33.8944 12.5315 32.9246Z" fill="#F5F5F5"/>
    <path d="M37.1135 36.8181C37.2671 35.8484 36.802 34.9689 36.0747 34.8537C35.3474 34.7385 34.6333 35.4312 34.4797 36.401C34.3261 37.3707 34.7912 38.2502 35.5185 38.3654C36.2458 38.4806 36.9599 37.7879 37.1135 36.8181Z" fill="#F5F5F5"/>
  </g>
</svg>