<svg width="300" height="301" viewBox="0 0 300 301" fill="none" xmlns="http://www.w3.org/2000/svg">
<g clip-path="url(#clip0_87_440)">
<mask id="mask0_87_440" style="mask-type:luminance" maskUnits="userSpaceOnUse" x="0" y="0" width="300" height="301">
<path d="M300 0.5H0V300.5H300V0.5Z" fill="white"/>
</mask>
<g mask="url(#mask0_87_440)">
<path d="M237.604 300.5C197.171 231.268 102.83 231.268 62.3962 300.5C84.2793 231.268 69.2356 216.225 0 238.107C69.2356 197.675 69.2356 103.34 0 62.9089C69.2356 84.7748 84.2793 69.7321 62.3962 0.5C102.83 69.7321 197.171 69.7321 237.604 0.5C215.736 69.7321 230.781 84.7748 300 62.9089C230.781 103.34 230.781 197.675 300 238.107C230.781 216.225 215.736 231.268 237.604 300.5Z" fill="#BA75DA"/>
</g>
</g>
<path d="M165.278 169.333L183.611 151L165.278 132.667M134.722 132.667L116.389 151L134.722 169.333M124.333 206H175.667C185.935 206 191.068 206 194.99 204.002C198.44 202.244 201.244 199.44 203.002 195.99C205 192.068 205 186.935 205 176.667V125.333C205 115.066 205 109.932 203.002 106.01C201.244 102.561 198.44 99.7559 194.99 97.9982C191.068 96 185.935 96 175.667 96H124.333C114.066 96 108.932 96 105.01 97.9982C101.561 99.7559 98.7559 102.561 96.9982 106.01C95 109.932 95 115.066 95 125.333V176.667C95 186.935 95 192.068 96.9982 195.99C98.7559 199.44 101.561 202.244 105.01 204.002C108.932 206 114.066 206 124.333 206Z" stroke="#F5F5F5" stroke-width="8" stroke-linecap="round" stroke-linejoin="round"/>
<defs>
<clipPath id="clip0_87_440">
<rect width="300" height="300" fill="white" transform="translate(0 0.5)"/>
</clipPath>
</defs>
</svg>
