<svg width="40" height="40" viewBox="0 0 40 40" fill="none" xmlns="http://www.w3.org/2000/svg">
<g id="Group 8813">
<circle id="Ellipse 193" cx="20" cy="20" r="20" fill="#BA75DA" fill-opacity="0.3"/>
<path id="Vector" fill-rule="evenodd" clip-rule="evenodd" d="M19.495 10.2857L28.698 15.1428V20.9326H26.6529V17.1936L20.5175 20.4317V29.1746L19.495 29.7143L10.292 24.8571V15.1428L19.495 10.2857ZM26.6529 21.8674L26.6529 24.6716H29.7206V26.5411L26.6529 26.5411L26.6529 29.3454H24.6078L24.6078 26.5411L21.5401 26.5411V24.6716H24.6078L24.6078 21.8674H26.6529ZM12.3371 17.1936L12.3371 23.7778L18.4724 27.0158V20.4317L12.3371 17.1936ZM19.495 12.4444L13.4619 15.6286L19.495 18.8127L25.5281 15.6286L19.495 12.4444Z" fill="#BA75DA"/>
</g>
</svg>
