<svg width="81" height="96" viewBox="0 0 81 96" fill="none" xmlns="http://www.w3.org/2000/svg">
<g id="Group">
<path id="Vector" fill-rule="evenodd" clip-rule="evenodd" d="M52.5 0H12.5C9.32033 0.00949637 6.27359 1.27683 4.02521 3.52521C1.77683 5.77359 0.509496 8.82033 0.5 12L0.5 67.96C0.509496 71.1397 1.77683 74.1864 4.02521 76.4348C6.27359 78.6832 9.32033 79.9505 12.5 79.96H52.5C55.6797 79.9505 58.7265 78.6832 60.9748 76.4348C63.2232 74.1864 64.4906 71.1397 64.5 67.96V12C64.4906 8.82033 63.2232 5.77359 60.9748 3.52521C58.7265 1.27683 55.6797 0.00949637 52.5 0ZM56.5 67.96C56.4835 69.0158 56.0568 70.0236 55.3102 70.7702C54.5636 71.5168 53.5558 71.9435 52.5 71.96H12.5C11.4443 71.9435 10.4364 71.5168 9.68983 70.7702C8.94323 70.0236 8.5165 69.0158 8.50001 67.96V12C8.5165 10.9443 8.94323 9.93643 9.68983 9.18983C10.4364 8.44323 11.4443 8.0165 12.5 8H52.5C54.696 8.036 56.464 9.804 56.5 12V67.96Z" fill="#EB6B6B"/>
<path id="Vector_2" fill-rule="evenodd" clip-rule="evenodd" d="M80.5 28V84C80.4906 87.1797 79.2232 90.2264 76.9748 92.4748C74.7265 94.7232 71.6797 95.9905 68.5 96H20.5C19.4391 96 18.4217 95.5786 17.6716 94.8284C16.9214 94.0783 16.5 93.0609 16.5 92C16.5 90.9391 16.9214 89.9217 17.6716 89.1716C18.4217 88.4214 19.4391 88 20.5 88H68.5C69.5558 87.9835 70.5636 87.5568 71.3102 86.8102C72.0568 86.0636 72.4835 85.0557 72.5 84V28C72.5 26.9391 72.9215 25.9217 73.6716 25.1716C74.4218 24.4214 75.4392 24 76.5 24C77.5609 24 78.5783 24.4214 79.3285 25.1716C80.0786 25.9217 80.5 26.9391 80.5 28Z" fill="#EB6B6B"/>
<path id="Vector_3" d="M32.5 64C34.7091 64 36.5 62.2091 36.5 60C36.5 57.7909 34.7091 56 32.5 56C30.2909 56 28.5 57.7909 28.5 60C28.5 62.2091 30.2909 64 32.5 64Z" fill="#EB6B6B"/>
<path id="Vector_4" fill-rule="evenodd" clip-rule="evenodd" d="M48.5 32C48.5029 35.5465 47.325 38.993 45.1522 41.7959C42.9794 44.5989 39.9353 46.5987 36.5 47.48V48C36.5 49.0609 36.0786 50.0783 35.3284 50.8284C34.5783 51.5786 33.5609 52 32.5 52C31.4391 52 30.4217 51.5786 29.6716 50.8284C28.9214 50.0783 28.5 49.0609 28.5 48V44C28.5 42.9391 28.9214 41.9217 29.6716 41.1716C30.4217 40.4214 31.4391 40 32.5 40C34.0823 40 35.629 39.5308 36.9446 38.6518C38.2602 37.7727 39.2855 36.5233 39.8911 35.0615C40.4966 33.5997 40.655 31.9911 40.3463 30.4393C40.0376 28.8874 39.2757 27.462 38.1569 26.3431C37.038 25.2243 35.6126 24.4624 34.0607 24.1537C32.5089 23.845 30.9003 24.0035 29.4385 24.609C27.9767 25.2145 26.7273 26.2398 25.8482 27.5554C24.9692 28.871 24.5 30.4178 24.5 32C24.5 33.0609 24.0786 34.0783 23.3284 34.8284C22.5783 35.5786 21.5609 36 20.5 36C19.4391 36 18.4217 35.5786 17.6716 34.8284C16.9214 34.0783 16.5 33.0609 16.5 32C16.5 27.7565 18.1857 23.6869 21.1863 20.6863C24.1869 17.6857 28.2565 16 32.5 16C36.7435 16 40.8131 17.6857 43.8137 20.6863C46.8143 23.6869 48.5 27.7565 48.5 32Z" fill="#EB6B6B"/>
</g>
</svg>
