<svg width="917" height="168" viewBox="0 0 917 168" fill="none" xmlns="http://www.w3.org/2000/svg">
<path d="M27.4372 86.89H8.8396V1.93799H41.6724C62.3364 1.93799 74.046 11.9256 74.046 29.49C74.046 40.5108 69.3392 48.3172 59.9256 53.1388L74.8496 86.89H54.53L41.7872 57.1568H27.4372V86.89ZM27.4372 18.4692V40.8552H41.5576C49.7084 40.8552 54.4152 36.7224 54.4152 29.49C54.4152 22.3724 49.938 18.4692 41.6724 18.4692H27.4372ZM141.833 86.89H87.8767V1.93799H141.833V19.158H106.474V35.804H137.815V52.1056H106.474V69.67H141.833V86.89ZM193.784 88.2676C168.299 88.2676 152.341 71.392 152.341 44.5288C152.341 18.01 169.217 0.560384 194.588 0.560384C215.826 0.560384 231.094 12.7292 233.735 31.786H214.104C211.578 23.2908 204.346 18.4692 194.129 18.4692C180.353 18.4692 171.972 28.2272 171.972 44.414C171.972 60.3712 180.467 70.3588 194.129 70.3588C204.575 70.3588 212.267 65.1928 214.563 56.8124H233.849C230.865 75.7544 215.022 88.2676 193.784 88.2676ZM264.885 86.89H246.287V1.93799H279.12C299.784 1.93799 311.494 11.9256 311.494 29.49C311.494 40.5108 306.787 48.3172 297.373 53.1388L312.297 86.89H291.978L279.235 57.1568H264.885V86.89ZM264.885 18.4692V40.8552H279.005C287.156 40.8552 291.863 36.7224 291.863 29.49C291.863 22.3724 287.386 18.4692 279.12 18.4692H264.885ZM324.75 54.9756V1.93799H343.348V53.7128C343.348 64.3892 349.203 70.244 359.65 70.244C370.211 70.244 376.181 64.1596 376.181 53.7128V1.93799H394.778V54.9756C394.778 75.1804 381.002 88.2676 359.65 88.2676C338.412 88.2676 324.75 75.2952 324.75 54.9756ZM430.47 1.93799V86.89H411.873V1.93799H430.47ZM441.653 19.158V1.93799H508.466V19.158H484.358V86.89H465.761V19.158H441.653ZM537.633 86.89H519.61V1.93799H537.633L562.889 65.3076L588.26 1.93799H606.513V86.89H588.49V69.096C588.49 50.728 588.49 46.71 589.408 40.396L571.385 86.89H554.394L536.485 40.396C537.519 46.71 537.633 53.8276 537.633 63.1264V86.89ZM678.164 86.89H624.208V1.93799H678.164V19.158H642.806V35.804H674.146V52.1056H642.806V69.67H678.164V86.89ZM711.747 86.89H693.379V1.93799H711.747L747.565 56.0088V1.93799H765.933V86.89H747.565L711.747 32.934V86.89ZM777.084 19.158V1.93799H843.897V19.158H819.789V86.89H801.192V19.158H777.084ZM850.334 26.62C850.334 11.2368 863.307 0.330787 881.56 0.330787C899.813 0.330787 911.293 10.4332 911.293 26.5052H892.81C892.81 20.5356 888.333 16.862 881.33 16.862C873.754 16.862 868.932 20.306 868.932 25.9312C868.932 31.0972 871.572 33.6228 877.542 34.8856L890.285 37.526C905.438 40.6256 912.671 47.858 912.671 61.2896C912.671 77.706 899.813 88.3824 880.297 88.3824C861.355 88.3824 849.072 78.1652 849.072 62.208H867.554C867.554 68.4072 872.146 71.8512 880.412 71.8512C888.792 71.8512 894.073 68.522 894.073 63.1264C894.073 58.4196 891.892 56.0088 886.267 54.8608L873.294 52.2204C858.141 49.1208 850.334 40.5108 850.334 26.62Z" fill="#353535"/>
<path d="M27.44 57.1188L27.4399 1.89999H41.6752C62.3392 1.89999 74.0488 11.8876 74.0488 29.452C74.0488 40.4728 69.342 48.2792 59.9284 53.1008C59.9284 53.1008 59.1527 53.952 51.8027 55.702C44.4527 57.452 41.79 57.1188 41.79 57.1188H27.44Z" fill="#BA75DA"/>
<path d="M264.95 57.1188L264.95 1.89999H279.185C299.849 1.89999 311.559 11.8876 311.559 29.452C311.559 40.4728 306.852 48.2792 297.438 53.1008C297.438 53.1008 296.663 53.952 289.313 55.702C281.963 57.452 279.3 57.1188 279.3 57.1188H264.95Z" fill="#EB6B6B"/>
<path d="M141.898 86.852H106.54V1.89999H141.898V19.12H106.54V35.766V52.0676V69.632H141.898V86.852Z" fill="#6B83FF"/>
<path d="M678.308 86.852H642.95V1.89999H678.308V19.12H642.95V35.766V52.0676V69.632H678.308V86.852Z" fill="#EB6B6B"/>
<path d="M193.687 88.4184C168.202 88.4184 155.42 70.5 153.57 56.7H172.2C172.2 56.7 179.539 56.7 193.2 56.7C203.647 56.7 214.563 56.7 214.563 56.7H233.85C231 76 214.925 88.4184 193.687 88.4184Z" fill="#ABD700"/>
<path d="M324.8 54.9528V53.69H343.397C343.397 53.69 349.252 53.69 359.699 53.69C370.261 53.69 376.299 53.69 376.299 53.69H394.828V54.9528C394.828 75.1576 381.052 88.2448 359.699 88.2448C338.461 88.2448 324.8 75.2724 324.8 54.9528Z" fill="#6B83FF"/>
<path d="M441.63 19.12V1.89999H508.443V19.12H484.335H465.738H441.63Z" fill="#ABD700"/>
<path d="M777 19.12V1.89999H843.814V19.12H819.706H801.108H777Z" fill="#BA75DA"/>
<path d="M537.524 86.852H519.5V1.89999H537.524L562.78 65.2696L566.89 75.652L571.275 86.852H554.284H545.89C547.99 86.852 539.24 86.852 537.524 86.852Z" fill="#BA75DA"/>
<path d="M702.77 17.902L693.35 1.89999H711.718L747.535 55.9708L755.62 69.702L765.8 86.95H747.6L711.718 32.896L702.77 17.902Z" fill="#ABD700"/>
<path d="M850.36 26.5892C850.36 11.206 863.332 0.299988 881.585 0.299988C899.839 0.299988 911.319 10.4024 911.319 26.4744H892.836L881.325 26.5892C873.749 26.5892 868.957 26.5892 868.957 26.5892H850.36Z" fill="#6B83FF"/>
<path d="M412.956 166.047L375.072 166.19V157.58L392.579 143.015C398.248 138.351 400.615 135.051 400.615 130.674C400.615 125.292 397.961 122.423 393.225 122.423C388.274 122.423 385.404 125.795 385.404 131.75H373.853C373.853 119.84 381.458 112.091 393.153 112.091C405.279 112.091 412.526 118.62 412.526 129.956C412.526 137.203 408.149 143.087 401.548 148.611L393.584 155.284H412.956V166.047ZM417.726 139.786C417.726 123.355 427.053 112.091 440.901 112.091C454.749 112.091 464.076 123.355 464.076 139.786C464.076 156.217 455.466 167.123 440.901 167.123C426.336 167.123 417.726 156.217 417.726 139.786ZM429.206 139.786C429.206 151.194 433.511 156.934 440.901 156.934C448.291 156.934 452.596 151.194 452.596 139.786C452.596 128.019 448.291 122.279 440.901 122.279C433.511 122.279 429.206 128.019 429.206 139.786ZM507.899 166.047L470.015 166.19V157.58L487.522 143.015C493.19 138.351 495.558 135.051 495.558 130.674C495.558 125.292 492.903 122.423 488.168 122.423C483.217 122.423 480.347 125.795 480.347 131.75H468.795C468.795 119.84 476.401 112.091 488.096 112.091C500.222 112.091 507.469 118.62 507.469 129.956C507.469 137.203 503.092 143.087 496.491 148.611L488.527 155.284H507.899V166.047ZM555.431 156.791H548.902V166.19H537.924V156.791H511.52V146.602L534.408 113.095H548.902V146.602H555.431V156.791ZM523.861 146.602H537.924V125.938L523.861 146.602Z" fill="#353535"/>
</svg>
