<svg xmlns="http://www.w3.org/2000/svg" width="25" height="24" viewBox="0 0 25 24" fill="none">
  <mask id="mask0_117_227" style="mask-type:alpha" maskUnits="userSpaceOnUse" x="0" y="0" width="25" height="24">
    <rect x="0.5" width="24" height="24" fill="#D9D9D9"/>
  </mask>
  <g mask="url(#mask0_117_227)">
    <path d="M18.5 20C17.95 20 17.4792 19.8042 17.0875 19.4125C16.6958 19.0208 16.5 18.55 16.5 18V15C16.5 14.45 16.6958 13.9792 17.0875 13.5875C17.4792 13.1958 17.95 13 18.5 13C19.05 13 19.5208 13.1958 19.9125 13.5875C20.3042 13.9792 20.5 14.45 20.5 15V18C20.5 18.55 20.3042 19.0208 19.9125 19.4125C19.5208 19.8042 19.05 20 18.5 20ZM12.5 20C11.95 20 11.4792 19.8042 11.0875 19.4125C10.6958 19.0208 10.5 18.55 10.5 18V6C10.5 5.45 10.6958 4.97917 11.0875 4.5875C11.4792 4.19583 11.95 4 12.5 4C13.05 4 13.5208 4.19583 13.9125 4.5875C14.3042 4.97917 14.5 5.45 14.5 6V18C14.5 18.55 14.3042 19.0208 13.9125 19.4125C13.5208 19.8042 13.05 20 12.5 20ZM6.5 20C5.95 20 5.47917 19.8042 5.0875 19.4125C4.69583 19.0208 4.5 18.55 4.5 18V11C4.5 10.45 4.69583 9.97917 5.0875 9.5875C5.47917 9.19583 5.95 9 6.5 9C7.05 9 7.52083 9.19583 7.9125 9.5875C8.30417 9.97917 8.5 10.45 8.5 11V18C8.5 18.55 8.30417 19.0208 7.9125 19.4125C7.52083 19.8042 7.05 20 6.5 20Z" fill="black" fill-opacity="0.4"/>
  </g>
</svg>