<svg xmlns="http://www.w3.org/2000/svg" width="25" height="25" viewBox="0 0 25 25" fill="none">
  <mask id="mask0_439_1567" style="mask-type:alpha" maskUnits="userSpaceOnUse" x="0" y="0" width="25" height="25">
    <rect x="0.5" y="0.5" width="24" height="24" fill="#D9D9D9"/>
  </mask>
  <g mask="url(#mask0_439_1567)">
    <path d="M17.8498 19.1998C17.4665 19.1998 17.1456 19.0706 16.8873 18.8123C16.629 18.554 16.4998 18.2331 16.4998 17.8498V16.3998C16.4998 16.0165 16.629 15.6956 16.8873 15.4373C17.1456 15.179 17.4665 15.0498 17.8498 15.0498C18.2331 15.0498 18.554 15.179 18.8123 15.4373C19.0706 15.6956 19.1998 16.0165 19.1998 16.3998V17.8498C19.1998 18.2331 19.0706 18.554 18.8123 18.8123C18.554 19.0706 18.2331 19.1998 17.8498 19.1998ZM12.4998 19.1998C12.1165 19.1998 11.7956 19.0706 11.5373 18.8123C11.279 18.554 11.1498 18.2331 11.1498 17.8498V7.1498C11.1498 6.76647 11.279 6.44564 11.5373 6.1873C11.7956 5.92897 12.1165 5.7998 12.4998 5.7998C12.8831 5.7998 13.204 5.92897 13.4623 6.1873C13.7206 6.44564 13.8498 6.76647 13.8498 7.1498V17.8498C13.8498 18.2331 13.7206 18.554 13.4623 18.8123C13.204 19.0706 12.8831 19.1998 12.4998 19.1998ZM7.1498 19.1998C6.76647 19.1998 6.44564 19.0706 6.1873 18.8123C5.92897 18.554 5.7998 18.2331 5.7998 17.8498V11.8998C5.7998 11.5165 5.92897 11.1956 6.1873 10.9373C6.44564 10.679 6.76647 10.5498 7.1498 10.5498C7.53314 10.5498 7.85397 10.679 8.1123 10.9373C8.37064 11.1956 8.4998 11.5165 8.4998 11.8998V17.8498C8.4998 18.2331 8.37064 18.554 8.1123 18.8123C7.85397 19.0706 7.53314 19.1998 7.1498 19.1998Z" fill="#111B52"/>
  </g>
</svg>