<svg width="121" height="34" viewBox="0 0 121 34" fill="none" xmlns="http://www.w3.org/2000/svg">
<mask id="mask0_25_286" style="mask-type:alpha" maskUnits="userSpaceOnUse" x="19" y="5" width="25" height="24">
<rect x="19.5" y="5" width="24" height="24" fill="#D9D9D9"/>
</mask>
<g mask="url(#mask0_25_286)">
<path d="M37.5 25C36.95 25 36.4792 24.8042 36.0875 24.4125C35.6958 24.0208 35.5 23.55 35.5 23V20C35.5 19.45 35.6958 18.9792 36.0875 18.5875C36.4792 18.1958 36.95 18 37.5 18C38.05 18 38.5208 18.1958 38.9125 18.5875C39.3042 18.9792 39.5 19.45 39.5 20V23C39.5 23.55 39.3042 24.0208 38.9125 24.4125C38.5208 24.8042 38.05 25 37.5 25ZM31.5 25C30.95 25 30.4792 24.8042 30.0875 24.4125C29.6958 24.0208 29.5 23.55 29.5 23V11C29.5 10.45 29.6958 9.97917 30.0875 9.5875C30.4792 9.19583 30.95 9 31.5 9C32.05 9 32.5208 9.19583 32.9125 9.5875C33.3042 9.97917 33.5 10.45 33.5 11V23C33.5 23.55 33.3042 24.0208 32.9125 24.4125C32.5208 24.8042 32.05 25 31.5 25ZM25.5 25C24.95 25 24.4792 24.8042 24.0875 24.4125C23.6958 24.0208 23.5 23.55 23.5 23V16C23.5 15.45 23.6958 14.9792 24.0875 14.5875C24.4792 14.1958 24.95 14 25.5 14C26.05 14 26.5208 14.1958 26.9125 14.5875C27.3042 14.9792 27.5 15.45 27.5 16V23C27.5 23.55 27.3042 24.0208 26.9125 24.4125C26.5208 24.8042 26.05 25 25.5 25Z" fill="black" fill-opacity="0.4"/>
</g>
<path d="M59.796 12.708V16.236H61.868C62.3907 16.236 62.834 16.068 63.198 15.732C63.562 15.3867 63.744 14.962 63.744 14.458C63.744 13.9913 63.5713 13.5853 63.226 13.24C62.89 12.8853 62.4653 12.708 61.952 12.708H59.796ZM59.796 21.5H58.508V11.476H61.924C62.792 11.476 63.5293 11.7653 64.136 12.344C64.752 12.9133 65.06 13.618 65.06 14.458C65.06 15.1487 64.8313 15.7647 64.374 16.306C63.926 16.838 63.3567 17.1787 62.666 17.328L62.638 17.37L65.452 21.444V21.5H63.926L61.224 17.44H59.796V21.5ZM69.321 21.724C68.313 21.724 67.4824 21.3787 66.829 20.688C66.1757 19.9973 65.849 19.1247 65.849 18.07C65.849 17.0247 66.1664 16.1567 66.801 15.466C67.4357 14.766 68.2477 14.416 69.237 14.416C70.2544 14.416 71.0617 14.7473 71.659 15.41C72.2657 16.0633 72.569 16.9827 72.569 18.168L72.555 18.308H67.165C67.1837 18.98 67.4077 19.5213 67.837 19.932C68.2664 20.3427 68.7797 20.548 69.377 20.548C70.1984 20.548 70.8424 20.1373 71.309 19.316L72.457 19.876C72.149 20.4547 71.7197 20.9073 71.169 21.234C70.6277 21.5607 70.0117 21.724 69.321 21.724ZM67.263 17.244H71.197C71.1597 16.768 70.9637 16.376 70.609 16.068C70.2637 15.7507 69.797 15.592 69.209 15.592C68.7237 15.592 68.3037 15.7413 67.949 16.04C67.6037 16.3387 67.375 16.74 67.263 17.244ZM79.0653 19.596C79.0653 20.1933 78.8039 20.6973 78.2813 21.108C77.7586 21.5187 77.1006 21.724 76.3073 21.724C75.6166 21.724 75.0099 21.5467 74.4873 21.192C73.9646 20.828 73.5913 20.352 73.3673 19.764L74.5153 19.274C74.6833 19.6847 74.9259 20.0067 75.2433 20.24C75.5699 20.464 75.9246 20.576 76.3073 20.576C76.7179 20.576 77.0586 20.4873 77.3293 20.31C77.6093 20.1327 77.7493 19.9227 77.7493 19.68C77.7493 19.2413 77.4133 18.9193 76.7413 18.714L75.5653 18.42C74.2306 18.084 73.5633 17.44 73.5633 16.488C73.5633 15.8627 73.8153 15.3633 74.3193 14.99C74.8326 14.6073 75.4859 14.416 76.2793 14.416C76.8859 14.416 77.4319 14.5607 77.9173 14.85C78.4119 15.1393 78.7573 15.5267 78.9533 16.012L77.8053 16.488C77.6746 16.1987 77.4599 15.9747 77.1613 15.816C76.8719 15.648 76.5453 15.564 76.1813 15.564C75.8453 15.564 75.5419 15.648 75.2713 15.816C75.0099 15.984 74.8792 16.1893 74.8792 16.432C74.8792 16.824 75.2479 17.104 75.9853 17.272L77.0213 17.538C78.3839 17.874 79.0653 18.56 79.0653 19.596ZM86.2063 21.5H84.9743V20.548H84.9183C84.7223 20.884 84.419 21.164 84.0083 21.388C83.607 21.612 83.187 21.724 82.7483 21.724C81.9083 21.724 81.2597 21.486 80.8023 21.01C80.3543 20.5247 80.1303 19.8387 80.1303 18.952V14.64H81.4183V18.868C81.4463 19.988 82.011 20.548 83.1123 20.548C83.6257 20.548 84.055 20.3427 84.4003 19.932C84.7457 19.512 84.9183 19.0127 84.9183 18.434V14.64H86.2063V21.5ZM89.0622 11.476V21.5H87.7742V11.476H89.0622ZM93.416 21.612C92.856 21.612 92.3893 21.4393 92.016 21.094C91.652 20.7487 91.4653 20.268 91.456 19.652V15.816H90.252V14.64H91.456V12.54H92.744V14.64H94.424V15.816H92.744V19.232C92.744 19.6893 92.8327 20.002 93.01 20.17C93.1873 20.3287 93.388 20.408 93.612 20.408C93.7147 20.408 93.8127 20.3987 93.906 20.38C94.0087 20.352 94.102 20.3193 94.186 20.282L94.592 21.43C94.256 21.5513 93.864 21.612 93.416 21.612ZM101.036 19.596C101.036 20.1933 100.775 20.6973 100.252 21.108C99.7293 21.5187 99.0713 21.724 98.278 21.724C97.5873 21.724 96.9806 21.5467 96.458 21.192C95.9353 20.828 95.562 20.352 95.338 19.764L96.486 19.274C96.654 19.6847 96.8966 20.0067 97.214 20.24C97.5406 20.464 97.8953 20.576 98.278 20.576C98.6886 20.576 99.0293 20.4873 99.3 20.31C99.58 20.1327 99.72 19.9227 99.72 19.68C99.72 19.2413 99.384 18.9193 98.712 18.714L97.536 18.42C96.2013 18.084 95.534 17.44 95.534 16.488C95.534 15.8627 95.786 15.3633 96.29 14.99C96.8033 14.6073 97.4566 14.416 98.25 14.416C98.8566 14.416 99.4026 14.5607 99.888 14.85C100.383 15.1393 100.728 15.5267 100.924 16.012L99.776 16.488C99.6453 16.1987 99.4306 15.9747 99.132 15.816C98.8426 15.648 98.516 15.564 98.152 15.564C97.816 15.564 97.5126 15.648 97.242 15.816C96.9806 15.984 96.85 16.1893 96.85 16.432C96.85 16.824 97.2186 17.104 97.956 17.272L98.992 17.538C100.355 17.874 101.036 18.56 101.036 19.596Z" fill="black" fill-opacity="0.4"/>
</svg>
