<svg width="448" height="454" viewBox="0 0 448 454" fill="none" xmlns="http://www.w3.org/2000/svg">
<path d="M232.729 204.988C248.216 205.951 476.053 146.191 444.708 29.7366C413.364 -86.7183 224.017 180.916 222.081 186.693C220.146 192.47 217.241 204.026 232.729 204.988Z" fill="#ABD700"/>
<path d="M24.8495 99.795C-77.5886 134.96 172.991 236.713 191.115 222.681C251.941 175.588 71.6855 83.7172 24.8495 99.795Z" fill="#ABD700"/>
<path d="M217.323 211.55C218.179 210.467 217.995 208.894 216.911 208.039C215.828 207.183 214.256 207.367 213.4 208.45L217.323 211.55ZM222.864 372.144C216.763 355.404 206.89 325.819 202.838 295.022C198.769 264.096 200.665 232.636 217.323 211.55L213.4 208.45C195.42 231.209 193.773 264.458 197.88 295.674C202.004 327.02 212.027 357.013 218.167 373.856L222.864 372.144Z" fill="#353535"/>
<path d="M354.358 432.748C335.516 460.5 99.3968 460.897 80.897 432.748C62.3972 404.599 123.951 385.402 164.987 362.041C186.178 349.977 215.441 331.546 283.722 365.057C352.003 398.567 373.2 404.996 354.358 432.748Z" fill="#763D31"/>
</svg>
