<svg width="24" height="24" viewBox="0 0 24 24" fill="none" xmlns="http://www.w3.org/2000/svg">
<mask id="mask0_455_1676" style="mask-type:alpha" maskUnits="userSpaceOnUse" x="0" y="0" width="24" height="24">
<rect width="24" height="24" fill="#D9D9D9"/>
</mask>
<g mask="url(#mask0_455_1676)">
<path d="M9.51965 15.6153C7.81196 15.6153 6.36582 15.023 5.18122 13.8384C3.99661 12.6538 3.4043 11.2077 3.4043 9.49999C3.4043 7.79231 3.99661 6.34616 5.18122 5.16154C6.36582 3.97694 7.81196 3.38464 9.51965 3.38464C11.2273 3.38464 12.6735 3.97694 13.8581 5.16154C15.0427 6.34616 15.635 7.79231 15.635 9.49999C15.635 10.2141 15.5151 10.8961 15.2754 11.5461C15.0356 12.1961 14.7158 12.7615 14.3158 13.2423L20.0696 18.9961C20.2081 19.1346 20.2789 19.3087 20.2821 19.5183C20.2853 19.7279 20.2145 19.9051 20.0696 20.05C19.9248 20.1948 19.7491 20.2673 19.5427 20.2673C19.3363 20.2673 19.1607 20.1948 19.0158 20.05L13.2619 14.2961C12.7619 14.7089 12.1869 15.032 11.5369 15.2653C10.8869 15.4987 10.2145 15.6153 9.51965 15.6153ZM9.51965 14.1154C10.8081 14.1154 11.8995 13.6683 12.7937 12.774C13.6879 11.8798 14.135 10.7885 14.135 9.49999C14.135 8.21153 13.6879 7.12018 12.7937 6.22594C11.8995 5.33171 10.8081 4.88459 9.51965 4.88459C8.23118 4.88459 7.13983 5.33171 6.2456 6.22594C5.35138 7.12018 4.90427 8.21153 4.90427 9.49999C4.90427 10.7885 5.35138 11.8798 6.2456 12.774C7.13983 13.6683 8.23118 14.1154 9.51965 14.1154Z" fill="#353535"/>
</g>
</svg>
