<svg width="81" height="80" viewBox="0 0 81 80" fill="none" xmlns="http://www.w3.org/2000/svg">
<path id="check_box" d="M34.2778 46.2222L24.7222 36.6667C23.9074 35.8519 22.8704 35.4444 21.6111 35.4444C20.3519 35.4444 19.3148 35.8519 18.5 36.6667C17.6852 37.4815 17.2778 38.5185 17.2778 39.7778C17.2778 41.037 17.6852 42.0741 18.5 42.8889L31.1667 55.5556C32.0556 56.4444 33.0926 56.8889 34.2778 56.8889C35.463 56.8889 36.5 56.4444 37.3889 55.5556L62.5 30.4444C63.3148 29.6296 63.7222 28.5926 63.7222 27.3333C63.7222 26.0741 63.3148 25.037 62.5 24.2222C61.6852 23.4074 60.6482 23 59.3889 23C58.1296 23 57.0926 23.4074 56.2778 24.2222L34.2778 46.2222ZM9.38889 80C6.94444 80 4.85185 79.1296 3.11111 77.3889C1.37037 75.6482 0.5 73.5556 0.5 71.1111V8.88889C0.5 6.44444 1.37037 4.35185 3.11111 2.61111C4.85185 0.870371 6.94444 0 9.38889 0H71.6111C74.0556 0 76.1482 0.870371 77.8889 2.61111C79.6296 4.35185 80.5 6.44444 80.5 8.88889V71.1111C80.5 73.5556 79.6296 75.6482 77.8889 77.3889C76.1482 79.1296 74.0556 80 71.6111 80H9.38889ZM9.38889 71.1111H71.6111V8.88889H9.38889V71.1111Z" fill="#ABD700"/>
</svg>
