<svg xmlns="http://www.w3.org/2000/svg" width="38" height="36" viewBox="0 0 38 36" fill="none">
  <path d="M10.9785 8.73333L16.1118 2.0875C16.4785 1.59861 16.9139 1.23958 17.4181 1.01042C17.9223 0.78125 18.4493 0.666667 18.9993 0.666667C19.5493 0.666667 20.0764 0.78125 20.5806 1.01042C21.0848 1.23958 21.5202 1.59861 21.8868 2.0875L27.0202 8.73333L34.8118 11.3458C35.6063 11.5903 36.2327 12.041 36.691 12.6979C37.1493 13.3549 37.3785 14.0806 37.3785 14.875C37.3785 15.2417 37.325 15.6083 37.2181 15.975C37.1112 16.3417 36.9355 16.6931 36.691 17.0292L31.6493 24.1792L31.8327 31.6958C31.8632 32.7653 31.5118 33.6667 30.7785 34.4C30.0452 35.1333 29.1896 35.5 28.2118 35.5C28.1507 35.5 27.8146 35.4542 27.2035 35.3625L18.9993 33.0708L10.7952 35.3625C10.6424 35.4236 10.4743 35.4618 10.291 35.4771C10.1077 35.4924 9.93963 35.5 9.78685 35.5C8.80907 35.5 7.95352 35.1333 7.22018 34.4C6.48685 33.6667 6.13546 32.7653 6.16602 31.6958L6.34935 24.1333L1.35352 17.0292C1.10907 16.6931 0.933377 16.3417 0.826432 15.975C0.719488 15.6083 0.666016 15.2417 0.666016 14.875C0.666016 14.1111 0.887543 13.4007 1.3306 12.7437C1.77365 12.0868 2.3924 11.6208 3.18685 11.3458L10.9785 8.73333ZM13.2243 11.8958L4.33268 14.8292L10.016 23.0333L9.83268 31.7875L18.9993 29.2667L28.166 31.8333L27.9827 23.0333L33.666 14.9208L24.7743 11.8958L18.9993 4.33333L13.2243 11.8958Z" fill="#ABD700"/>
</svg>