<svg width="121" height="34" viewBox="0 0 121 34" fill="none" xmlns="http://www.w3.org/2000/svg">
<mask id="mask0_25_269" style="mask-type:alpha" maskUnits="userSpaceOnUse" x="16" y="5" width="24" height="24">
<rect x="16" y="5" width="24" height="24" fill="#D9D9D9"/>
</mask>
<g mask="url(#mask0_25_269)">
<path d="M31 25C28.7667 25 26.875 24.225 25.325 22.675C23.775 21.125 23 19.2333 23 17C23 14.7833 23.775 12.8958 25.325 11.3375C26.875 9.77917 28.7667 9 31 9C33.2167 9 35.1042 9.77917 36.6625 11.3375C38.2208 12.8958 39 14.7833 39 17C39 19.2333 38.2208 21.125 36.6625 22.675C35.1042 24.225 33.2167 25 31 25ZM31 23C32.6667 23 34.0833 22.4167 35.25 21.25C36.4167 20.0833 37 18.6667 37 17C37 15.3333 36.4167 13.9167 35.25 12.75C34.0833 11.5833 32.6667 11 31 11C29.3333 11 27.9167 11.5833 26.75 12.75C25.5833 13.9167 25 15.3333 25 17C25 18.6667 25.5833 20.0833 26.75 21.25C27.9167 22.4167 29.3333 23 31 23ZM32 16.6V14C32 13.7167 31.9042 13.4792 31.7125 13.2875C31.5208 13.0958 31.2833 13 31 13C30.7167 13 30.4792 13.0958 30.2875 13.2875C30.0958 13.4792 30 13.7167 30 14V17.025C30 17.1583 30.0292 17.2875 30.0875 17.4125C30.1458 17.5375 30.2167 17.6417 30.3 17.725L32.575 20C32.775 20.2 33.0125 20.3 33.2875 20.3C33.5625 20.3 33.8 20.2 34 20C34.2 19.8 34.3 19.5625 34.3 19.2875C34.3 19.0125 34.2 18.775 34 18.575L32 16.6ZM19 14C18.7167 14 18.4792 13.9042 18.2875 13.7125C18.0958 13.5208 18 13.2833 18 13C18 12.7167 18.0958 12.4792 18.2875 12.2875C18.4792 12.0958 18.7167 12 19 12H21C21.2833 12 21.5208 12.0958 21.7125 12.2875C21.9042 12.4792 22 12.7167 22 13C22 13.2833 21.9042 13.5208 21.7125 13.7125C21.5208 13.9042 21.2833 14 21 14H19ZM18 18C17.7167 18 17.4792 17.9042 17.2875 17.7125C17.0958 17.5208 17 17.2833 17 17C17 16.7167 17.0958 16.4792 17.2875 16.2875C17.4792 16.0958 17.7167 16 18 16H21C21.2833 16 21.5208 16.0958 21.7125 16.2875C21.9042 16.4792 22 16.7167 22 17C22 17.2833 21.9042 17.5208 21.7125 17.7125C21.5208 17.9042 21.2833 18 21 18H18ZM19 22C18.7167 22 18.4792 21.9042 18.2875 21.7125C18.0958 21.5208 18 21.2833 18 21C18 20.7167 18.0958 20.4792 18.2875 20.2875C18.4792 20.0958 18.7167 20 19 20H21C21.2833 20 21.5208 20.0958 21.7125 20.2875C21.9042 20.4792 22 20.7167 22 21C22 21.2833 21.9042 21.5208 21.7125 21.7125C21.5208 21.9042 21.2833 22 21 22H19Z" fill="#000C49"/>
</g>
<path d="M58.424 12.708V21.5H57.136V12.708H54.336V11.476H61.224V12.708H58.424ZM63.5867 12.274C63.5867 12.526 63.4981 12.7407 63.3207 12.918C63.1434 13.0953 62.9287 13.184 62.6767 13.184C62.4247 13.184 62.2101 13.0953 62.0327 12.918C61.8554 12.7407 61.7667 12.526 61.7667 12.274C61.7667 12.022 61.8554 11.8073 62.0327 11.63C62.2101 11.4527 62.4247 11.364 62.6767 11.364C62.9287 11.364 63.1434 11.4527 63.3207 11.63C63.4981 11.8073 63.5867 12.022 63.5867 12.274ZM63.3207 14.64V21.5H62.0327V14.64H63.3207ZM66.2849 21.5H64.9969V14.64H66.2289V15.592H66.2849C66.4809 15.256 66.7796 14.976 67.1809 14.752C67.5916 14.528 67.9976 14.416 68.3989 14.416C68.9029 14.416 69.3462 14.5327 69.7289 14.766C70.1116 14.9993 70.3916 15.3213 70.5689 15.732C71.1382 14.8547 71.9269 14.416 72.9349 14.416C73.7282 14.416 74.3396 14.6587 74.7689 15.144C75.1982 15.6293 75.4129 16.32 75.4129 17.216V21.5H74.1249V17.412C74.1249 16.768 74.0082 16.306 73.7749 16.026C73.5416 15.7367 73.1496 15.592 72.5989 15.592C72.1042 15.592 71.6889 15.802 71.3529 16.222C71.0169 16.642 70.8489 17.1367 70.8489 17.706V21.5H69.5609V17.412C69.5609 16.768 69.4442 16.306 69.2109 16.026C68.9776 15.7367 68.5856 15.592 68.0349 15.592C67.5402 15.592 67.1249 15.802 66.7889 16.222C66.4529 16.642 66.2849 17.1367 66.2849 17.706V21.5ZM79.9988 21.724C78.9908 21.724 78.1601 21.3787 77.5068 20.688C76.8534 19.9973 76.5268 19.1247 76.5268 18.07C76.5268 17.0247 76.8441 16.1567 77.4788 15.466C78.1134 14.766 78.9254 14.416 79.9148 14.416C80.9321 14.416 81.7394 14.7473 82.3368 15.41C82.9434 16.0633 83.2468 16.9827 83.2468 18.168L83.2328 18.308H77.8428C77.8614 18.98 78.0854 19.5213 78.5148 19.932C78.9441 20.3427 79.4574 20.548 80.0548 20.548C80.8761 20.548 81.5201 20.1373 81.9868 19.316L83.1348 19.876C82.8268 20.4547 82.3974 20.9073 81.8468 21.234C81.3054 21.5607 80.6894 21.724 79.9988 21.724ZM77.9408 17.244H81.8748C81.8374 16.768 81.6414 16.376 81.2868 16.068C80.9414 15.7507 80.4748 15.592 79.8868 15.592C79.4014 15.592 78.9814 15.7413 78.6268 16.04C78.2814 16.3387 78.0528 16.74 77.9408 17.244ZM85.7126 11.476V21.5H84.4246V11.476H85.7126ZM88.948 12.274C88.948 12.526 88.8594 12.7407 88.682 12.918C88.5047 13.0953 88.29 13.184 88.038 13.184C87.786 13.184 87.5714 13.0953 87.394 12.918C87.2167 12.7407 87.128 12.526 87.128 12.274C87.128 12.022 87.2167 11.8073 87.394 11.63C87.5714 11.4527 87.786 11.364 88.038 11.364C88.29 11.364 88.5047 11.4527 88.682 11.63C88.8594 11.8073 88.948 12.022 88.948 12.274ZM88.682 14.64V21.5H87.394V14.64H88.682ZM90.3582 14.64H91.5902V15.592H91.6462C91.8422 15.256 92.1409 14.976 92.5422 14.752C92.9529 14.528 93.3776 14.416 93.8162 14.416C94.6562 14.416 95.3002 14.6587 95.7482 15.144C96.2056 15.62 96.4342 16.3013 96.4342 17.188V21.5H95.1462V17.272C95.1182 16.152 94.5536 15.592 93.4522 15.592C92.9389 15.592 92.5096 15.802 92.1642 16.222C91.8189 16.6327 91.6462 17.1273 91.6462 17.706V21.5H90.3582V14.64ZM101.026 21.724C100.018 21.724 99.1874 21.3787 98.5341 20.688C97.8808 19.9973 97.5541 19.1247 97.5541 18.07C97.5541 17.0247 97.8714 16.1567 98.5061 15.466C99.1408 14.766 99.9528 14.416 100.942 14.416C101.959 14.416 102.767 14.7473 103.364 15.41C103.971 16.0633 104.274 16.9827 104.274 18.168L104.26 18.308H98.8701C98.8888 18.98 99.1128 19.5213 99.5421 19.932C99.9714 20.3427 100.485 20.548 101.082 20.548C101.903 20.548 102.547 20.1373 103.014 19.316L104.162 19.876C103.854 20.4547 103.425 20.9073 102.874 21.234C102.333 21.5607 101.717 21.724 101.026 21.724ZM98.9681 17.244H102.902C102.865 16.768 102.669 16.376 102.314 16.068C101.969 15.7507 101.502 15.592 100.914 15.592C100.429 15.592 100.009 15.7413 99.6541 16.04C99.3088 16.3387 99.0801 16.74 98.9681 17.244Z" fill="#000C49"/>
</svg>
