<svg width="113" height="80" viewBox="0 0 113 80" fill="none" xmlns="http://www.w3.org/2000/svg">
<path id="group" d="M0.5 67.8317C0.5 65.0106 1.2281 62.4931 2.68429 60.2792C4.14039 58.0651 6.08502 56.3426 8.51818 55.1114C13.7201 52.5671 18.9509 50.6054 24.2105 49.2265C29.4702 47.8476 35.251 47.1581 41.5528 47.1581C47.8546 47.1581 53.6353 47.8476 58.8949 49.2265C64.1546 50.6054 69.3854 52.5671 74.5873 55.1114C77.0205 56.3426 78.9651 58.0651 80.4212 60.2792C81.8773 62.4931 82.6054 65.0106 82.6054 67.8317V71.6843C82.6054 73.8878 81.7966 75.8246 80.1791 77.4947C78.5617 79.1649 76.5986 80 74.2898 80H8.81567C6.50695 80 4.54385 79.1912 2.92636 77.5736C1.30888 75.9562 0.500137 73.993 0.500137 71.6843L0.5 67.8317ZM103.869 80H91.4371C92.1248 78.7439 92.6494 77.407 93.0108 75.9893C93.3721 74.5716 93.5528 73.1366 93.5528 71.6843V67.158C93.5528 63.565 92.6731 60.1408 90.9136 56.8853C89.1541 53.6298 86.6585 50.8365 83.4267 48.5055C87.0968 49.0528 90.581 49.9002 93.8792 51.0476C97.1774 52.195 100.325 53.5511 103.321 55.1159C106.149 56.6247 108.333 58.4029 109.874 60.4506C111.414 62.4984 112.184 64.7342 112.184 67.158V71.6843C112.184 73.993 111.376 75.9562 109.758 77.5736C108.141 79.1912 106.177 80 103.869 80ZM41.5528 38.3156C36.2844 38.3156 31.7743 36.4398 28.0225 32.6881C24.2708 28.9363 22.3949 24.4262 22.3949 19.1579C22.3949 13.8894 24.2708 9.37935 28.0225 5.62766C31.7743 1.87589 36.2844 0 41.5528 0C46.8211 0 51.3312 1.87589 55.083 5.62766C58.8346 9.37935 60.7105 13.8894 60.7105 19.1579C60.7105 24.4262 58.8346 28.9363 55.083 32.6881C51.3312 36.4398 46.8211 38.3156 41.5528 38.3156ZM88.8157 19.1579C88.8157 24.4262 86.9398 28.9363 83.188 32.6881C79.4363 36.4398 74.9262 38.3156 69.6578 38.3156C69.0403 38.3156 68.2544 38.2454 67.3 38.1051C66.3457 37.9648 65.5598 37.8105 64.9422 37.6421C67.1009 35.0469 68.7598 32.1678 69.9191 29.0049C71.0783 25.842 71.6579 22.5575 71.6579 19.1513C71.6579 15.7452 71.0667 12.4737 69.8843 9.3368C68.7019 6.19999 67.0545 3.31229 64.9422 0.673682C65.7282 0.392972 66.5141 0.210515 67.3 0.126311C68.086 0.0421067 68.8719 0 69.6578 0C74.9262 0 79.4363 1.87589 83.188 5.62766C86.9398 9.37935 88.8157 13.8894 88.8157 19.1579ZM8.71044 71.7896H74.3951V67.8317C74.3951 66.6878 74.1091 65.6703 73.5372 64.779C72.9652 63.8877 72.0582 63.1088 70.8161 62.4421C66.3107 60.1193 61.6721 58.3597 56.9002 57.1631C52.1283 55.9666 47.0124 55.3684 41.5528 55.3684C36.0931 55.3684 30.9773 55.9666 26.2053 57.1631C21.4334 58.3597 16.7948 60.1193 12.2894 62.4421C11.0474 63.1088 10.1403 63.8877 9.56831 64.779C8.9964 65.6703 8.71044 66.6878 8.71044 67.8317V71.7896ZM41.5528 30.1053C44.5633 30.1053 47.1405 29.0334 49.2844 26.8895C51.4283 24.7456 52.5002 22.1684 52.5002 19.1579C52.5002 16.1473 51.4283 13.5701 49.2844 11.4262C47.1405 9.28238 44.5633 8.21044 41.5528 8.21044C38.5422 8.21044 35.965 9.28238 33.8211 11.4262C31.6773 13.5701 30.6053 16.1473 30.6053 19.1579C30.6053 22.1684 31.6773 24.7456 33.8211 26.8895C35.965 29.0334 38.5422 30.1053 41.5528 30.1053Z" fill="#6B83FF"/>
</svg>
