<svg xmlns="http://www.w3.org/2000/svg" width="80" height="96" viewBox="0 0 80 96" fill="none">
  <g opacity="0.5">
    <path fill-rule="evenodd" clip-rule="evenodd" d="M52 0H12C8.82033 0.00949637 5.77359 1.27683 3.52521 3.52521C1.27683 5.77359 0.00949637 8.82033 0 12L0 67.96C0.00949637 71.1397 1.27683 74.1864 3.52521 76.4348C5.77359 78.6832 8.82033 79.9505 12 79.96H52C55.1797 79.9505 58.2265 78.6832 60.4748 76.4348C62.7232 74.1864 63.9906 71.1397 64 67.96V12C63.9906 8.82033 62.7232 5.77359 60.4748 3.52521C58.2265 1.27683 55.1797 0.00949637 52 0ZM56 67.96C55.9835 69.0158 55.5568 70.0236 54.8102 70.7702C54.0636 71.5168 53.0558 71.9435 52 71.96H12C10.9443 71.9435 9.93643 71.5168 9.18983 70.7702C8.44323 70.0236 8.0165 69.0158 8.00001 67.96V12C8.0165 10.9443 8.44323 9.93643 9.18983 9.18983C9.93643 8.44323 10.9443 8.0165 12 8H52C54.196 8.036 55.964 9.804 56 12V67.96Z" fill="#F5F5F5"/>
    <path fill-rule="evenodd" clip-rule="evenodd" d="M80 28V84C79.9906 87.1797 78.7232 90.2264 76.4748 92.4748C74.2265 94.7232 71.1797 95.9905 68 96H20C18.9391 96 17.9217 95.5786 17.1716 94.8284C16.4214 94.0783 16 93.0609 16 92C16 90.9391 16.4214 89.9217 17.1716 89.1716C17.9217 88.4214 18.9391 88 20 88H68C69.0558 87.9835 70.0636 87.5568 70.8102 86.8102C71.5568 86.0636 71.9835 85.0557 72 84V28C72 26.9391 72.4215 25.9217 73.1716 25.1716C73.9218 24.4214 74.9392 24 76 24C77.0609 24 78.0783 24.4214 78.8285 25.1716C79.5786 25.9217 80 26.9391 80 28Z" fill="#F5F5F5"/>
    <path d="M32 64C34.2091 64 36 62.2091 36 60C36 57.7908 34.2091 56 32 56C29.7909 56 28 57.7908 28 60C28 62.2091 29.7909 64 32 64Z" fill="#F5F5F5"/>
    <path fill-rule="evenodd" clip-rule="evenodd" d="M48 32C48.0029 35.5465 46.825 38.993 44.6522 41.7959C42.4794 44.5989 39.4353 46.5987 36 47.48V48C36 49.0609 35.5786 50.0783 34.8284 50.8284C34.0783 51.5786 33.0609 52 32 52C30.9391 52 29.9217 51.5786 29.1716 50.8284C28.4214 50.0783 28 49.0609 28 48V44C28 42.9391 28.4214 41.9217 29.1716 41.1716C29.9217 40.4214 30.9391 40 32 40C33.5823 40 35.129 39.5308 36.4446 38.6518C37.7602 37.7727 38.7855 36.5233 39.3911 35.0615C39.9966 33.5997 40.155 31.9911 39.8463 30.4393C39.5376 28.8874 38.7757 27.462 37.6569 26.3431C36.538 25.2243 35.1126 24.4624 33.5607 24.1537C32.0089 23.845 30.4003 24.0035 28.9385 24.609C27.4767 25.2145 26.2273 26.2398 25.3482 27.5554C24.4692 28.871 24 30.4178 24 32C24 33.0609 23.5786 34.0783 22.8284 34.8284C22.0783 35.5786 21.0609 36 20 36C18.9391 36 17.9217 35.5786 17.1716 34.8284C16.4214 34.0783 16 33.0609 16 32C16 27.7565 17.6857 23.6869 20.6863 20.6863C23.6869 17.6857 27.7565 16 32 16C36.2435 16 40.3131 17.6857 43.3137 20.6863C46.3143 23.6869 48 27.7565 48 32Z" fill="#F5F5F5"/>
  </g>
</svg>