<svg xmlns="http://www.w3.org/2000/svg" width="34" height="34" viewBox="0 0 34 34" fill="none">
  <path d="M6.30447 26.4705C7.82552 25.3418 9.4825 24.4505 11.2754 23.7966C13.0683 23.1428 14.9765 22.8158 17 22.8158C19.0235 22.8158 20.9317 23.1428 22.7246 23.7966C24.5175 24.4505 26.1745 25.3418 27.6955 26.4705C28.8082 25.2477 29.6898 23.8322 30.3402 22.2239C30.9906 20.6157 31.3158 18.8744 31.3158 17C31.3158 13.0333 29.9215 9.65568 27.1329 6.86708C24.3443 4.07848 20.9667 2.68417 17 2.68417C13.0333 2.68417 9.65568 4.07848 6.86708 6.86708C4.07847 9.65568 2.68417 13.0333 2.68417 17C2.68417 18.8744 3.00938 20.6157 3.6598 22.2239C4.31021 23.8322 5.19177 25.2477 6.30447 26.4705ZM17.0005 18.3421C15.3667 18.3421 13.9889 17.7813 12.867 16.6598C11.7452 15.5383 11.1842 14.1606 11.1842 12.5268C11.1842 10.893 11.745 9.51518 12.8665 8.39333C13.988 7.27147 15.3657 6.71054 16.9995 6.71054C18.6333 6.71054 20.0111 7.27129 21.133 8.39279C22.2548 9.51431 22.8158 10.892 22.8158 12.5258C22.8158 14.1596 22.255 15.5374 21.1335 16.6593C20.012 17.7811 18.6343 18.3421 17.0005 18.3421ZM17 34C14.6393 34 12.4248 33.5561 10.3566 32.6682C8.28839 31.7803 6.48916 30.5713 4.95891 29.0411C3.4287 27.5108 2.21967 25.7116 1.33182 23.6434C0.44394 21.5752 0 19.3607 0 17C0 14.6393 0.44394 12.4248 1.33182 10.3566C2.21967 8.28839 3.4287 6.48916 4.95891 4.95891C6.48916 3.4287 8.28839 2.21967 10.3566 1.33182C12.4248 0.443941 14.6393 0 17 0C19.3607 0 21.5752 0.443941 23.6434 1.33182C25.7116 2.21967 27.5108 3.4287 29.0411 4.95891C30.5713 6.48916 31.7803 8.28839 32.6682 10.3566C33.5561 12.4248 34 14.6393 34 17C34 19.3607 33.5561 21.5752 32.6682 23.6434C31.7803 25.7116 30.5713 27.5108 29.0411 29.0411C27.5108 30.5713 25.7116 31.7803 23.6434 32.6682C21.5752 33.5561 19.3607 34 17 34ZM17 31.3158C18.6151 31.3158 20.1723 31.056 21.6716 30.5364C23.1708 30.0167 24.5021 29.29 25.6652 28.3563C24.5021 27.457 23.1881 26.7561 21.7232 26.2537C20.2584 25.7512 18.684 25.5 17 25.5C15.316 25.5 13.7388 25.7483 12.2682 26.245C10.7976 26.7417 9.48644 27.4455 8.33476 28.3563C9.49792 29.29 10.8291 30.0167 12.3284 30.5364C13.8277 31.056 15.3849 31.3158 17 31.3158ZM17 15.6579C17.8901 15.6579 18.6346 15.3585 19.2334 14.7598C19.8322 14.1609 20.1316 13.4165 20.1316 12.5263C20.1316 11.6362 19.8322 10.8917 19.2334 10.2929C18.6346 9.69407 17.8901 9.39467 17 9.39467C16.1099 9.39467 15.3654 9.69407 14.7666 10.2929C14.1678 10.8917 13.8684 11.6362 13.8684 12.5263C13.8684 13.4165 14.1678 14.1609 14.7666 14.7598C15.3654 15.3585 16.1099 15.6579 17 15.6579Z" fill="#6B83FF"/>
</svg>