<svg xmlns="http://www.w3.org/2000/svg" width="78" height="78" viewBox="0 0 78 78" fill="none">
  <mask id="mask0_842_2413" style="mask-type:alpha" maskUnits="userSpaceOnUse" x="0" y="0" width="78" height="78">
    <rect width="77.6829" height="77.6829" fill="#D9D9D9"/>
  </mask>
  <g mask="url(#mask0_842_2413)">
    <path d="M13.3559 64.7344C12.8521 64.7344 12.4061 64.6146 12.018 64.375C11.6299 64.1353 11.3281 63.8194 11.1125 63.4272C10.8773 63.0413 10.748 62.6233 10.7244 62.173C10.701 61.7227 10.8269 61.2687 11.1023 60.811L36.5812 16.8691C36.8567 16.4114 37.1884 16.0788 37.5764 15.8713C37.9643 15.6638 38.3866 15.5601 38.8431 15.5601C39.2996 15.5601 39.7218 15.6638 40.1098 15.8713C40.4978 16.0788 40.8295 16.4114 41.1049 16.8691L66.5838 60.811C66.8592 61.2687 66.9852 61.7227 66.9617 62.173C66.9382 62.6233 66.8088 63.0413 66.5737 63.4272C66.3581 63.8194 66.0562 64.1353 65.6681 64.375C65.28 64.6146 64.8341 64.7344 64.3303 64.7344H13.3559ZM14.4053 61.4976H63.2808L38.8431 19.4194L14.4053 61.4976ZM38.8431 57.0159C39.4075 57.0159 39.8805 56.825 40.2623 56.4433C40.644 56.0615 40.8349 55.5884 40.8349 55.024C40.8349 54.4596 40.644 53.9866 40.2623 53.6048C39.8805 53.2231 39.4075 53.0322 38.8431 53.0322C38.2787 53.0322 37.8056 53.2231 37.4238 53.6048C37.0421 53.9866 36.8512 54.4596 36.8512 55.024C36.8512 55.5884 37.0421 56.0615 37.4238 56.4433C37.8056 56.825 38.2787 57.0159 38.8431 57.0159ZM38.8453 49.7954C39.3044 49.7954 39.6886 49.6403 39.9977 49.33C40.3069 49.0198 40.4615 48.6355 40.4615 48.1769V35.2299C40.4615 34.7713 40.3062 34.3869 39.9955 34.0768C39.685 33.7666 39.3001 33.6115 38.8409 33.6115C38.3817 33.6115 37.9975 33.7666 37.6884 34.0768C37.3793 34.3869 37.2247 34.7713 37.2247 35.2299V48.1769C37.2247 48.6355 37.38 49.0198 37.6906 49.33C38.0012 49.6403 38.3861 49.7954 38.8453 49.7954Z" fill="#EB6B6B"/>
  </g>
</svg>