<svg width="300" height="301" viewBox="0 0 300 301" fill="none" xmlns="http://www.w3.org/2000/svg">
<g clip-path="url(#clip0_87_447)">
<mask id="mask0_87_447" style="mask-type:luminance" maskUnits="userSpaceOnUse" x="0" y="0" width="300" height="301">
<path d="M300 0.5H0V300.5H300V0.5Z" fill="white"/>
</mask>
<g mask="url(#mask0_87_447)">
<path fill-rule="evenodd" clip-rule="evenodd" d="M43.934 44.434C28.8987 59.4692 23.4687 80.4725 27.6441 99.8185C11.012 110.546 0 129.237 0 150.5C-2.61234e-06 171.763 11.012 190.454 27.6441 201.182C23.4687 220.527 28.8987 241.53 43.934 256.566C58.9694 271.601 79.9725 277.031 99.3185 272.856C110.046 289.488 128.737 300.5 150 300.5C171.263 300.5 189.954 289.488 200.682 272.856C220.027 277.031 241.03 271.601 256.066 256.566C271.101 241.53 276.531 220.527 272.356 201.182C288.988 190.454 300 171.763 300 150.5C300 129.237 288.988 110.546 272.356 99.8185C276.531 80.4725 271.101 59.4694 256.066 44.434C241.03 29.3987 220.027 23.9687 200.682 28.1441C189.954 11.512 171.263 0.5 150 0.5C128.737 0.5 110.046 11.512 99.3185 28.144C79.9725 23.9687 58.9694 29.3987 43.934 44.434Z" fill="#EB6B6B"/>
</g>
</g>
<path fill-rule="evenodd" clip-rule="evenodd" d="M136.789 190.396C137.841 192.367 138.894 194.143 139.9 195.717C129.207 193.312 119.928 187.17 113.507 178.734C117.744 176.348 123.172 173.874 129.697 172.064C131.551 179.337 134.168 185.481 136.789 190.396ZM144.878 186.083C142.6 181.813 140.318 176.48 138.673 170.162C142.213 169.636 145.992 169.333 150.001 169.333C154.008 169.333 157.787 169.636 161.327 170.161C159.682 176.48 157.4 181.813 155.122 186.083C153.296 189.507 151.477 192.24 150 194.24C148.523 192.24 146.704 189.507 144.878 186.083ZM136.25 151C136.25 154.569 136.49 157.957 136.914 161.156C140.998 160.53 145.364 160.167 150.001 160.167C154.637 160.167 159.003 160.529 163.086 161.156C163.51 157.957 163.75 154.569 163.75 151C163.75 147.431 163.51 144.043 163.086 140.844C159.003 141.47 154.637 141.833 150.001 141.833C145.364 141.833 140.998 141.47 136.914 140.844C136.49 144.043 136.25 147.431 136.25 151ZM127.92 138.954C127.387 142.737 127.083 146.755 127.083 151C127.083 155.245 127.387 159.263 127.92 163.046C120.137 165.136 113.693 168.082 108.709 170.917C105.798 164.894 104.167 158.138 104.167 151C104.167 143.862 105.798 137.106 108.709 131.083C113.692 133.918 120.137 136.864 127.92 138.954ZM138.673 131.838C142.213 132.364 145.992 132.667 150.001 132.667C154.008 132.667 157.787 132.364 161.327 131.838C159.682 125.52 157.4 120.187 155.122 115.917C153.296 112.494 151.477 109.76 150 107.76C148.523 109.76 146.704 112.494 144.878 115.917C142.6 120.187 140.318 125.52 138.673 131.838ZM172.08 138.954C172.612 142.737 172.917 146.756 172.917 151C172.917 155.245 172.612 159.263 172.08 163.046C179.863 165.136 186.307 168.082 191.292 170.917C194.202 164.894 195.833 158.137 195.833 151C195.833 143.863 194.202 137.106 191.292 131.083C186.308 133.918 179.863 136.864 172.08 138.954ZM186.493 123.266C182.255 125.653 176.828 128.126 170.304 129.937C168.449 122.663 165.833 116.519 163.211 111.604C162.159 109.632 161.106 107.857 160.1 106.283C170.794 108.688 180.073 114.831 186.493 123.266ZM129.697 129.937C123.172 128.126 117.745 125.653 113.507 123.266C119.928 114.83 129.207 108.688 139.9 106.283C138.894 107.857 137.841 109.632 136.789 111.603C134.168 116.519 131.551 122.663 129.697 129.937ZM170.304 172.063C168.449 179.337 165.833 185.481 163.211 190.396C162.159 192.367 161.106 194.143 160.1 195.717C170.794 193.312 180.073 187.169 186.494 178.733C182.256 176.347 176.828 173.874 170.304 172.063ZM150 206C180.376 206 205 181.376 205 151C205 120.624 180.376 96 150 96C119.624 96 95 120.624 95 151C95 181.376 119.624 206 150 206Z" fill="#F5F5F5"/>
<defs>
<clipPath id="clip0_87_447">
<rect width="300" height="300" fill="white" transform="translate(0 0.5)"/>
</clipPath>
</defs>
</svg>
