<svg xmlns="http://www.w3.org/2000/svg" width="74" height="74" viewBox="0 0 74 74" fill="none">
  <path fill-rule="evenodd" clip-rule="evenodd" d="M28.1128 63.5031C28.8201 64.8289 29.5285 66.0236 30.2056 67.0822C23.0117 65.4645 16.7695 61.3324 12.45 55.6575C15.3008 54.0521 18.952 52.3879 23.3415 51.1702C24.589 56.0632 26.3491 60.1961 28.1128 63.5031ZM33.5541 60.6011C32.0219 57.7286 30.4864 54.1413 29.3801 49.8908C31.7616 49.5372 34.3039 49.3333 37.0004 49.3333C39.6965 49.3333 42.2388 49.5372 44.6199 49.8904C43.5136 54.1413 41.9781 57.7286 40.4459 60.6011C39.2175 62.9045 37.9937 64.7434 37 66.089C36.0063 64.7434 34.7825 62.9045 33.5541 60.6011ZM27.75 37C27.75 39.4013 27.9116 41.6805 28.1965 43.8323C30.9439 43.4109 33.8813 43.1667 37.0004 43.1667C40.1191 43.1667 43.0565 43.4105 45.8035 43.8323C46.0884 41.6801 46.25 39.4013 46.25 37C46.25 34.5987 46.0884 32.3199 45.8035 30.1677C43.0565 30.5891 40.1191 30.8333 37.0004 30.8333C33.8813 30.8333 30.9439 30.5891 28.1965 30.1677C27.9116 32.3195 27.75 34.5987 27.75 37ZM22.1461 28.8962C21.7879 31.441 21.5833 34.1444 21.5833 37C21.5833 39.8556 21.7879 42.559 22.1461 45.1038C16.9106 46.5094 12.5751 48.4914 9.22221 50.3985C7.26425 46.347 6.16667 41.8018 6.16667 37C6.16667 32.1982 7.26425 27.6531 9.22217 23.6014C12.5747 25.5083 16.9102 27.4904 22.1461 28.8962ZM29.3801 24.1094C31.7616 24.4628 34.3039 24.6667 37.0004 24.6667C39.6965 24.6667 42.2388 24.4629 44.6199 24.1095C43.5136 19.8589 41.9781 16.2715 40.4459 13.3989C39.2175 11.0956 37.9937 9.25641 37 7.91109C36.0063 9.25641 34.7825 11.0956 33.5541 13.3989C32.0219 16.2714 30.4864 19.8588 29.3801 24.1094ZM51.8539 28.8966C52.2119 31.4414 52.4167 34.1448 52.4167 37C52.4167 39.8556 52.2119 42.5586 51.8539 45.1034C57.0894 46.5094 61.4249 48.4914 64.778 50.3985C66.7357 46.3466 67.8333 41.8014 67.8333 37C67.8333 32.1986 66.7357 27.6533 64.778 23.6016C61.4253 25.5085 57.0898 27.4906 51.8539 28.8966ZM61.5499 18.3429C58.6989 19.9484 55.0478 21.6123 50.6588 22.8302C49.411 17.9369 47.6511 13.8038 45.8874 10.497C45.1799 9.17094 44.4715 7.97658 43.7944 6.91777C50.9885 8.53561 57.2308 12.6678 61.5499 18.3429ZM23.3415 22.83C18.9523 21.6122 15.3011 19.9482 12.45 18.3427C16.7695 12.6677 23.0117 8.53561 30.2052 6.91777C29.5285 7.97658 28.8201 9.1709 28.1127 10.4969C26.3491 13.8038 24.5891 17.9368 23.3415 22.83ZM50.6588 51.1698C49.411 56.0632 47.6511 60.1961 45.8874 63.5031C45.1799 64.8289 44.4715 66.0236 43.7944 67.0822C50.9885 65.4645 57.2308 61.332 61.5503 55.657C58.6993 54.0517 55.0482 52.3879 50.6588 51.1698ZM37 74C57.4347 74 74 57.4347 74 37C74 16.5655 57.4347 0 37 0C16.5655 0 0 16.5655 0 37C0 57.4347 16.5655 74 37 74Z" fill="#EB6B6B"/>
</svg>