<svg width="121" height="34" viewBox="0 0 121 34" fill="none" xmlns="http://www.w3.org/2000/svg">
<circle cx="28.5" cy="17" r="8" stroke="#000C49" stroke-width="2"/>
<ellipse cx="28.5" cy="17" rx="3" ry="8" stroke="#000C49" stroke-width="2"/>
<path d="M20.5 17H36.5" stroke="#000C49" stroke-width="2" stroke-linecap="round"/>
<path d="M61.84 11.476H63.184L60.51 21.5H59.194L57.038 14.892H56.982L54.826 21.5H53.51L50.724 11.476H52.068L54.182 19.358H54.238L56.408 12.82H57.612L59.782 19.358H59.838L61.84 11.476ZM66.5046 21.724C65.4966 21.724 64.666 21.3787 64.0126 20.688C63.3593 19.9973 63.0326 19.1247 63.0326 18.07C63.0326 17.0247 63.35 16.1567 63.9846 15.466C64.6193 14.766 65.4313 14.416 66.4206 14.416C67.438 14.416 68.2453 14.7473 68.8426 15.41C69.4493 16.0633 69.7526 16.9827 69.7526 18.168L69.7386 18.308H64.3486C64.3673 18.98 64.5913 19.5213 65.0206 19.932C65.45 20.3427 65.9633 20.548 66.5606 20.548C67.382 20.548 68.026 20.1373 68.4926 19.316L69.6406 19.876C69.3326 20.4547 68.9033 20.9073 68.3526 21.234C67.8113 21.5607 67.1953 21.724 66.5046 21.724ZM64.4466 17.244H68.3806C68.3433 16.768 68.1473 16.376 67.7926 16.068C67.4473 15.7507 66.9806 15.592 66.3926 15.592C65.9073 15.592 65.4873 15.7413 65.1326 16.04C64.7873 16.3387 64.5586 16.74 64.4466 17.244ZM74.5565 21.724C74.0525 21.724 73.5905 21.6167 73.1705 21.402C72.7598 21.1873 72.4425 20.9027 72.2185 20.548H72.1625V21.5H70.9305V11.476H72.2185V14.64L72.1625 15.592H72.2185C72.4425 15.2373 72.7598 14.9527 73.1705 14.738C73.5905 14.5233 74.0525 14.416 74.5565 14.416C75.4618 14.416 76.2272 14.7707 76.8525 15.48C77.4965 16.1987 77.8185 17.062 77.8185 18.07C77.8185 19.0873 77.4965 19.9507 76.8525 20.66C76.2272 21.3693 75.4618 21.724 74.5565 21.724ZM74.3465 20.548C74.9625 20.548 75.4805 20.3147 75.9005 19.848C76.3205 19.3907 76.5305 18.798 76.5305 18.07C76.5305 17.3513 76.3205 16.7587 75.9005 16.292C75.4805 15.8253 74.9625 15.592 74.3465 15.592C73.7212 15.592 73.1985 15.8253 72.7785 16.292C72.3678 16.7587 72.1625 17.3513 72.1625 18.07C72.1625 18.798 72.3678 19.3953 72.7785 19.862C73.1985 20.3193 73.7212 20.548 74.3465 20.548ZM84.1785 19.596C84.1785 20.1933 83.9172 20.6973 83.3945 21.108C82.8719 21.5187 82.2139 21.724 81.4205 21.724C80.7299 21.724 80.1232 21.5467 79.6005 21.192C79.0779 20.828 78.7045 20.352 78.4805 19.764L79.6285 19.274C79.7965 19.6847 80.0392 20.0067 80.3565 20.24C80.6832 20.464 81.0379 20.576 81.4205 20.576C81.8312 20.576 82.1719 20.4873 82.4425 20.31C82.7225 20.1327 82.8625 19.9227 82.8625 19.68C82.8625 19.2413 82.5265 18.9193 81.8545 18.714L80.6785 18.42C79.3439 18.084 78.6765 17.44 78.6765 16.488C78.6765 15.8627 78.9285 15.3633 79.4325 14.99C79.9459 14.6073 80.5992 14.416 81.3925 14.416C81.9992 14.416 82.5452 14.5607 83.0305 14.85C83.5252 15.1393 83.8705 15.5267 84.0665 16.012L82.9185 16.488C82.7879 16.1987 82.5732 15.9747 82.2745 15.816C81.9852 15.648 81.6585 15.564 81.2945 15.564C80.9585 15.564 80.6552 15.648 80.3845 15.816C80.1232 15.984 79.9925 16.1893 79.9925 16.432C79.9925 16.824 80.3612 17.104 81.0985 17.272L82.1345 17.538C83.4972 17.874 84.1785 18.56 84.1785 19.596ZM86.8973 12.274C86.8973 12.526 86.8086 12.7407 86.6313 12.918C86.4539 13.0953 86.2393 13.184 85.9873 13.184C85.7353 13.184 85.5206 13.0953 85.3433 12.918C85.1659 12.7407 85.0773 12.526 85.0773 12.274C85.0773 12.022 85.1659 11.8073 85.3433 11.63C85.5206 11.4527 85.7353 11.364 85.9873 11.364C86.2393 11.364 86.4539 11.4527 86.6313 11.63C86.8086 11.8073 86.8973 12.022 86.8973 12.274ZM86.6313 14.64V21.5H85.3433V14.64H86.6313ZM90.9551 21.612C90.3951 21.612 89.9284 21.4393 89.5551 21.094C89.1911 20.7487 89.0044 20.268 88.9951 19.652V15.816H87.7911V14.64H88.9951V12.54H90.2831V14.64H91.9631V15.816H90.2831V19.232C90.2831 19.6893 90.3717 20.002 90.5491 20.17C90.7264 20.3287 90.9271 20.408 91.1511 20.408C91.2537 20.408 91.3517 20.3987 91.4451 20.38C91.5477 20.352 91.6411 20.3193 91.7251 20.282L92.1311 21.43C91.7951 21.5513 91.4031 21.612 90.9551 21.612ZM96.1999 21.724C95.1919 21.724 94.3613 21.3787 93.7079 20.688C93.0546 19.9973 92.7279 19.1247 92.7279 18.07C92.7279 17.0247 93.0453 16.1567 93.6799 15.466C94.3146 14.766 95.1266 14.416 96.1159 14.416C97.1333 14.416 97.9406 14.7473 98.5379 15.41C99.1446 16.0633 99.4479 16.9827 99.4479 18.168L99.4339 18.308H94.0439C94.0626 18.98 94.2866 19.5213 94.7159 19.932C95.1453 20.3427 95.6586 20.548 96.2559 20.548C97.0773 20.548 97.7213 20.1373 98.1879 19.316L99.3359 19.876C99.0279 20.4547 98.5986 20.9073 98.0479 21.234C97.5066 21.5607 96.8906 21.724 96.1999 21.724ZM94.1419 17.244H98.0759C98.0386 16.768 97.8426 16.376 97.4879 16.068C97.1426 15.7507 96.6759 15.592 96.0879 15.592C95.6026 15.592 95.1826 15.7413 94.8279 16.04C94.4826 16.3387 94.2539 16.74 94.1419 17.244Z" fill="#000C49"/>
</svg>
